Istok-Bold.ufo
<glyph name="exclam" format="2">
  <advance width="668"/>
  <unicode hex="0021"/>
  <outline>
    <contour>
      <point x="184.0" y="1359.0" type="line" smooth="yes"/>
      <point x="182.0" y="1434.0"/>
      <point x="254.0" y="1434.0" type="qcurve" smooth="yes"/>
      <point x="414.0" y="1434.0" type="line" smooth="yes"/>
      <point x="486.0" y="1434.0"/>
      <point x="484.0" y="1359.0" type="qcurve" smooth="yes"/>
      <point x="457.0" y="485.0" type="line" smooth="yes"/>
      <point x="455.0" y="420.0"/>
      <point x="392.0" y="420.0" type="qcurve" smooth="yes"/>
      <point x="276.0" y="420.0" type="line" smooth="yes"/>
      <point x="213.0" y="420.0"/>
      <point x="211.0" y="485.0" type="qcurve" smooth="yes"/>
    </contour>
    <contour>
      <point x="258.0" y="0.0" type="line" smooth="yes"/>
      <point x="188.0" y="0.0"/>
      <point x="188.0" y="75.0" type="qcurve" smooth="yes"/>
      <point x="188.0" y="209.0" type="line" smooth="yes"/>
      <point x="188.0" y="284.0"/>
      <point x="258.0" y="284.0" type="qcurve" smooth="yes"/>
      <point x="410.0" y="284.0" type="line" smooth="yes"/>
      <point x="480.0" y="284.0"/>
      <point x="480.0" y="209.0" type="qcurve" smooth="yes"/>
      <point x="480.0" y="75.0" type="line" smooth="yes"/>
      <point x="480.0" y="0.0"/>
      <point x="410.0" y="0.0" type="qcurve" smooth="yes"/>
    </contour>
  </outline>
</glyph>
<glyph name="ampersand" format="2">
  <advance width="1440"/>
  <unicode hex="0026"/>
  <outline>
    <contour>
      <point x="112.0" y="316.0" type="qcurve" smooth="yes"/>
      <point x="112.0" y="464.0"/>
      <point x="262.0" y="690.0"/>
      <point x="443.0" y="820.0" type="qcurve"/>
      <point x="372.0" y="900.0"/>
      <point x="270.0" y="1041.0"/>
      <point x="270.0" y="1164.0" type="qcurve" smooth="yes"/>
      <point x="270.0" y="1284.0"/>
      <point x="459.0" y="1468.0"/>
      <point x="676.0" y="1468.0" type="qcurve" smooth="yes"/>
      <point x="810.0" y="1468.0"/>
      <point x="1041.0" y="1332.0"/>
      <point x="1041.0" y="1165.0" type="qcurve" smooth="yes"/>
      <point x="1041.0" y="1041.0"/>
      <point x="937.0" y="866.0"/>
      <point x="815.0" y="774.0" type="qcurve"/>
      <point x="1055.0" y="460.0" type="line"/>
      <point x="1100.0" y="502.0"/>
      <point x="1174.0" y="610.0"/>
      <point x="1187.0" y="640.0" type="qcurve" smooth="yes"/>
      <point x="1215.0" y="705.0"/>
      <point x="1274.0" y="670.0" type="qcurve" smooth="yes"/>
      <point x="1380.0" y="606.0" type="line"/>
      <point x="1410.0" y="590.0"/>
      <point x="1386.0" y="531.0" type="qcurve" smooth="yes"/>
      <point x="1358.0" y="462.0"/>
      <point x="1272.0" y="338.0"/>
      <point x="1197.0" y="273.0" type="qcurve"/>
      <point x="1353.0" y="66.0" type="line" smooth="yes"/>
      <point x="1403.0" y="0.0"/>
      <point x="1322.0" y="0.0" type="qcurve" smooth="yes"/>
      <point x="1137.0" y="0.0" type="line" smooth="yes"/>
      <point x="1063.0" y="0.0"/>
      <point x="1020.0" y="59.0" type="qcurve" smooth="yes"/>
      <point x="984.0" y="108.0" type="line"/>
      <point x="884.0" y="28.0"/>
      <point x="670.0" y="-34.0"/>
      <point x="529.0" y="-34.0" type="qcurve" smooth="yes"/>
      <point x="348.0" y="-34.0"/>
      <point x="112.0" y="134.0"/>
    </contour>
    <contour>
      <point x="412.0" y="328.0" type="qcurve" smooth="yes"/>
      <point x="412.0" y="261.0"/>
      <point x="507.0" y="184.0"/>
      <point x="570.0" y="184.0" type="qcurve" smooth="yes"/>
      <point x="654.0" y="184.0"/>
      <point x="776.0" y="228.0"/>
      <point x="846.0" y="288.0" type="qcurve"/>
      <point x="590.0" y="624.0" type="line"/>
      <point x="494.0" y="546.0"/>
      <point x="412.0" y="426.0"/>
    </contour>
    <contour>
      <point x="540.0" y="1153.0" type="qcurve" smooth="yes"/>
      <point x="540.0" y="1083.0"/>
      <point x="615.0" y="996.0"/>
      <point x="660.0" y="951.0" type="qcurve"/>
      <point x="723.0" y="1008.0"/>
      <point x="771.0" y="1069.0"/>
      <point x="771.0" y="1135.0" type="qcurve" smooth="yes"/>
      <point x="771.0" y="1185.0"/>
      <point x="708.0" y="1238.0"/>
      <point x="654.0" y="1238.0" type="qcurve" smooth="yes"/>
      <point x="597.0" y="1238.0"/>
      <point x="540.0" y="1173.0"/>
    </contour>
  </outline>
</glyph>
<glyph name="parenleft" format="2">
  <advance width="740"/>
  <unicode hex="0028"/>
  <outline>
    <contour>
      <point x="115.0" y="544.0" type="qcurve" smooth="yes"/>
      <point x="115.0" y="914.0"/>
      <point x="372.0" y="1392.0"/>
      <point x="499.0" y="1514.0" type="qcurve" smooth="yes"/>
      <point x="551.0" y="1564.0"/>
      <point x="583.0" y="1538.0" type="qcurve" smooth="yes"/>
      <point x="667.0" y="1471.0" type="line" smooth="yes"/>
      <point x="701.0" y="1444.0"/>
      <point x="667.0" y="1399.0" type="qcurve" smooth="yes"/>
      <point x="588.0" y="1296.0"/>
      <point x="415.0" y="919.0"/>
      <point x="415.0" y="544.0" type="qcurve" smooth="yes"/>
      <point x="415.0" y="169.0"/>
      <point x="588.0" y="-208.0"/>
      <point x="667.0" y="-311.0" type="qcurve" smooth="yes"/>
      <point x="701.0" y="-356.0"/>
      <point x="667.0" y="-383.0" type="qcurve" smooth="yes"/>
      <point x="583.0" y="-450.0" type="line" smooth="yes"/>
      <point x="551.0" y="-476.0"/>
      <point x="499.0" y="-426.0" type="qcurve" smooth="yes"/>
      <point x="372.0" y="-304.0"/>
      <point x="115.0" y="174.0"/>
    </contour>
  </outline>
</glyph>
<glyph name="zero" format="2">
  <advance width="1200"/>
  <unicode hex="0030"/>
  <outline>
    <contour>
      <point x="88.0" y="711.0" type="qcurve" smooth="yes"/>
      <point x="88.0" y="1116.0"/>
      <point x="340.0" y="1456.0"/>
      <point x="600.0" y="1456.0" type="qcurve" smooth="yes"/>
      <point x="860.0" y="1456.0"/>
      <point x="1112.0" y="1116.0"/>
      <point x="1112.0" y="711.0" type="qcurve" smooth="yes"/>
      <point x="1112.0" y="306.0"/>
      <point x="860.0" y="-34.0"/>
      <point x="600.0" y="-34.0" type="qcurve" smooth="yes"/>
      <point x="340.0" y="-34.0"/>
      <point x="88.0" y="306.0"/>
    </contour>
    <contour>
      <point x="384.0" y="711.0" type="qcurve" smooth="yes"/>
      <point x="384.0" y="526.0"/>
      <point x="445.0" y="184.0"/>
      <point x="600.0" y="184.0" type="qcurve" smooth="yes"/>
      <point x="755.0" y="184.0"/>
      <point x="816.0" y="526.0"/>
      <point x="816.0" y="711.0" type="qcurve" smooth="yes"/>
      <point x="816.0" y="896.0"/>
      <point x="755.0" y="1238.0"/>
      <point x="600.0" y="1238.0" type="qcurve" smooth="yes"/>
      <point x="445.0" y="1238.0"/>
      <point x="384.0" y="896.0"/>
    </contour>
  </outline>
</glyph>
<glyph name="six" format="2">
  <advance width="1200"/>
  <unicode hex="0036"/>
  <outline>
    <contour>
      <point x="88.0" y="671.0" type="qcurve" smooth="yes"/>
      <point x="88.0" y="1122.0"/>
      <point x="411.0" y="1456.0"/>
      <point x="657.0" y="1456.0" type="qcurve" smooth="yes"/>
      <point x="753.0" y="1456.0"/>
      <point x="943.0" y="1401.0"/>
      <point x="994.0" y="1356.0" type="qcurve" smooth="yes"/>
      <point x="1042.0" y="1313.0"/>
      <point x="1015.0" y="1272.0" type="qcurve" smooth="yes"/>
      <point x="949.0" y="1173.0" type="line" smooth="yes"/>
      <point x="917.0" y="1124.0"/>
      <point x="856.0" y="1173.0" type="qcurve" smooth="yes"/>
      <point x="826.0" y="1197.0"/>
      <point x="711.0" y="1232.0"/>
      <point x="648.0" y="1232.0" type="qcurve" smooth="yes"/>
      <point x="543.0" y="1232.0"/>
      <point x="367.0" y="1035.0"/>
      <point x="367.0" y="799.0" type="qcurve"/>
      <point x="371.0" y="799.0" type="line"/>
      <point x="416.0" y="867.0"/>
      <point x="576.0" y="926.0"/>
      <point x="691.0" y="926.0" type="qcurve" smooth="yes"/>
      <point x="900.0" y="926.0"/>
      <point x="1114.0" y="651.0"/>
      <point x="1114.0" y="448.0" type="qcurve" smooth="yes"/>
      <point x="1114.0" y="228.0"/>
      <point x="864.0" y="-34.0"/>
      <point x="607.0" y="-34.0" type="qcurve" smooth="yes"/>
      <point x="333.0" y="-34.0"/>
      <point x="88.0" y="333.0"/>
    </contour>
    <contour>
      <point x="416.0" y="443.0" type="qcurve" smooth="yes"/>
      <point x="416.0" y="321.0"/>
      <point x="516.0" y="190.0"/>
      <point x="612.0" y="190.0" type="qcurve" smooth="yes"/>
      <point x="714.0" y="190.0"/>
      <point x="814.0" y="300.0"/>
      <point x="814.0" y="450.0" type="qcurve" smooth="yes"/>
      <point x="814.0" y="582.0"/>
      <point x="714.0" y="702.0"/>
      <point x="624.0" y="702.0" type="qcurve" smooth="yes"/>
      <point x="525.0" y="702.0"/>
      <point x="416.0" y="540.0"/>
    </contour>
  </outline>
</glyph>
<glyph name="greater" format="2">
  <advance width="1280"/>
  <unicode hex="003E"/>
  <outline>
    <contour>
      <point x="97.0" y="220.0" type="line" smooth="yes"/>
      <point x="74.0" y="264.0"/>
      <point x="126.0" y="292.0" type="qcurve" smooth="yes"/>
      <point x="960.0" y="734.0" type="line"/>
      <point x="960.0" y="736.0" type="line"/>
      <point x="126.0" y="1178.0" type="line" smooth="yes"/>
      <point x="74.0" y="1206.0"/>
      <point x="97.0" y="1250.0" type="qcurve" smooth="yes"/>
      <point x="134.0" y="1321.0" type="line" smooth="yes"/>
      <point x="158.0" y="1365.0"/>
      <point x="211.0" y="1337.0" type="qcurve" smooth="yes"/>
      <point x="1152.0" y="836.0" type="line" smooth="yes"/>
      <point x="1192.0" y="815.0"/>
      <point x="1192.0" y="781.0" type="qcurve" smooth="yes"/>
      <point x="1192.0" y="689.0" type="line" smooth="yes"/>
      <point x="1192.0" y="655.0"/>
      <point x="1152.0" y="634.0" type="qcurve" smooth="yes"/>
      <point x="211.0" y="133.0" type="line" smooth="yes"/>
      <point x="158.0" y="105.0"/>
      <point x="134.0" y="149.0" type="qcurve" smooth="yes"/>
    </contour>
  </outline>
</glyph>
<glyph name="D" format="2">
  <advance width="1450"/>
  <unicode hex="0044"/>
  <outline>
    <contour>
      <point x="230.0" y="0.0" type="line" smooth="yes"/>
      <point x="160.0" y="0.0"/>
      <point x="160.0" y="75.0" type="qcurve" smooth="yes"/>
      <point x="160.0" y="1359.0" type="line" smooth="yes"/>
      <point x="160.0" y="1434.0"/>
      <point x="230.0" y="1434.0" type="qcurve" smooth="yes"/>
      <point x="579.0" y="1434.0" type="line" smooth="yes"/>
      <point x="1039.0" y="1434.0"/>
      <point x="1364.0" y="1062.0"/>
      <point x="1364.0" y="719.0" type="qcurve" smooth="yes"/>
      <point x="1364.0" y="376.0"/>
      <point x="1039.0" y="0.0"/>
      <point x="579.0" y="0.0" type="qcurve" smooth="yes"/>
    </contour>
    <contour>
      <point x="452.0" y="248.0" type="line"/>
      <point x="560.0" y="248.0" type="line" smooth="yes"/>
      <point x="870.0" y="248.0"/>
      <point x="1052.0" y="479.0"/>
      <point x="1052.0" y="719.0" type="qcurve" smooth="yes"/>
      <point x="1052.0" y="959.0"/>
      <point x="870.0" y="1188.0"/>
      <point x="560.0" y="1188.0" type="qcurve" smooth="yes"/>
      <point x="452.0" y="1188.0" type="line"/>
    </contour>
  </outline>
</glyph>
<glyph name="M" format="2">
  <advance width="1828"/>
  <unicode hex="004D"/>
  <outline>
    <contour>
      <point x="230.0" y="0.0" type="line" smooth="yes"/>
      <point x="160.0" y="0.0"/>
      <point x="160.0" y="75.0" type="qcurve" smooth="yes"/>
      <point x="160.0" y="1359.0" type="line" smooth="yes"/>
      <point x="160.0" y="1434.0"/>
      <point x="230.0" y="1434.0" type="qcurve" smooth="yes"/>
      <point x="520.0" y="1434.0" type="line" smooth="yes"/>
      <point x="578.0" y="1434.0"/>
      <point x="603.0" y="1354.0" type="qcurve" smooth="yes"/>
      <point x="874.0" y="477.0" type="line" smooth="yes"/>
      <point x="892.0" y="420.0"/>
      <point x="906.0" y="347.0"/>
      <point x="911.0" y="297.0" type="qcurve"/>
      <point x="917.0" y="297.0" type="line"/>
      <point x="922.0" y="347.0"/>
      <point x="936.0" y="420.0"/>
      <point x="954.0" y="477.0" type="qcurve" smooth="yes"/>
      <point x="1225.0" y="1354.0" type="line" smooth="yes"/>
      <point x="1250.0" y="1434.0"/>
      <point x="1308.0" y="1434.0" type="qcurve" smooth="yes"/>
      <point x="1598.0" y="1434.0" type="line" smooth="yes"/>
      <point x="1668.0" y="1434.0"/>
      <point x="1668.0" y="1359.0" type="qcurve" smooth="yes"/>
      <point x="1668.0" y="75.0" type="line" smooth="yes"/>
      <point x="1668.0" y="0.0"/>
      <point x="1598.0" y="0.0" type="qcurve" smooth="yes"/>
      <point x="1446.0" y="0.0" type="line" smooth="yes"/>
      <point x="1376.0" y="0.0"/>
      <point x="1376.0" y="75.0" type="qcurve" smooth="yes"/>
      <point x="1376.0" y="901.0" type="line" smooth="yes"/>
      <point x="1376.0" y="961.0"/>
      <point x="1381.0" y="1021.0" type="qcurve"/>
      <point x="1374.0" y="1021.0" type="line"/>
      <point x="1085.0" y="81.0" type="line" smooth="yes"/>
      <point x="1060.0" y="0.0"/>
      <point x="999.0" y="0.0" type="qcurve" smooth="yes"/>
      <point x="829.0" y="0.0" type="line" smooth="yes"/>
      <point x="768.0" y="0.0"/>
      <point x="743.0" y="81.0" type="qcurve" smooth="yes"/>
      <point x="454.0" y="1021.0" type="line"/>
      <point x="447.0" y="1021.0" type="line"/>
      <point x="452.0" y="961.0"/>
      <point x="452.0" y="901.0" type="qcurve" smooth="yes"/>
      <point x="452.0" y="75.0" type="line" smooth="yes"/>
      <point x="452.0" y="0.0"/>
      <point x="382.0" y="0.0" type="qcurve" smooth="yes"/>
    </contour>
  </outline>
</glyph>
<glyph name="W" format="2">
  <advance width="2022"/>
  <unicode hex="0057"/>
  <outline>
    <contour>
      <point x="45.0" y="1354.0" type="line" smooth="yes"/>
      <point x="23.0" y="1434.0"/>
      <point x="91.0" y="1434.0" type="qcurve" smooth="yes"/>
      <point x="276.0" y="1434.0" type="line" smooth="yes"/>
      <point x="323.0" y="1434.0"/>
      <point x="339.0" y="1368.0" type="qcurve" smooth="yes"/>
      <point x="529.0" y="582.0" type="line" smooth="yes"/>
      <point x="550.0" y="496.0"/>
      <point x="563.0" y="433.0"/>
      <point x="568.0" y="363.0" type="qcurve"/>
      <point x="573.0" y="363.0" type="line"/>
      <point x="578.0" y="433.0"/>
      <point x="588.0" y="505.0"/>
      <point x="612.0" y="588.0" type="qcurve" smooth="yes"/>
      <point x="835.0" y="1360.0" type="line" smooth="yes"/>
      <point x="856.0" y="1434.0"/>
      <point x="919.0" y="1434.0" type="qcurve" smooth="yes"/>
      <point x="1103.0" y="1434.0" type="line" smooth="yes"/>
      <point x="1166.0" y="1434.0"/>
      <point x="1187.0" y="1360.0" type="qcurve" smooth="yes"/>
      <point x="1410.0" y="588.0" type="line" smooth="yes"/>
      <point x="1434.0" y="505.0"/>
      <point x="1444.0" y="433.0"/>
      <point x="1449.0" y="363.0" type="qcurve"/>
      <point x="1454.0" y="363.0" type="line"/>
      <point x="1459.0" y="433.0"/>
      <point x="1472.0" y="496.0"/>
      <point x="1493.0" y="582.0" type="qcurve" smooth="yes"/>
      <point x="1683.0" y="1368.0" type="line" smooth="yes"/>
      <point x="1699.0" y="1434.0"/>
      <point x="1746.0" y="1434.0" type="qcurve" smooth="yes"/>
      <point x="1931.0" y="1434.0" type="line" smooth="yes"/>
      <point x="1999.0" y="1434.0"/>
      <point x="1977.0" y="1354.0" type="qcurve" smooth="yes"/>
      <point x="1637.0" y="97.0" type="line" smooth="yes"/>
      <point x="1611.0" y="0.0"/>
      <point x="1543.0" y="0.0" type="qcurve" smooth="yes"/>
      <point x="1368.0" y="0.0" type="line" smooth="yes"/>
      <point x="1310.0" y="0.0"/>
      <point x="1283.0" y="96.0" type="qcurve" smooth="yes"/>
      <point x="1043.0" y="934.0" type="line" smooth="yes"/>
      <point x="1023.0" y="1002.0"/>
      <point x="1017.0" y="1043.0"/>
      <point x="1012.0" y="1099.0" type="qcurve"/>
      <point x="1010.0" y="1099.0" type="line"/>
      <point x="1005.0" y="1043.0"/>
      <point x="999.0" y="1002.0"/>
      <point x="979.0" y="934.0" type="qcurve" smooth="yes"/>
      <point x="739.0" y="96.0" type="line" smooth="yes"/>
      <point x="712.0" y="0.0"/>
      <point x="654.0" y="0.0" type="qcurve" smooth="yes"/>
      <point x="479.0" y="0.0" type="line" smooth="yes"/>
      <point x="411.0" y="0.0"/>
      <point x="385.0" y="97.0" type="qcurve" smooth="yes"/>
    </contour>
  </outline>
</glyph>
<glyph name="X" format="2">
  <advance width="1418"/>
  <unicode hex="0058"/>
  <outline>
    <contour>
      <point x="108.0" y="0.0" type="line" smooth="yes"/>
      <point x="12.0" y="0.0"/>
      <point x="70.0" y="86.0" type="qcurve" smooth="yes"/>
      <point x="513.0" y="740.0" type="line"/>
      <point x="106.0" y="1348.0" type="line" smooth="yes"/>
      <point x="48.0" y="1434.0"/>
      <point x="144.0" y="1434.0" type="qcurve" smooth="yes"/>
      <point x="346.0" y="1434.0" type="line" smooth="yes"/>
      <point x="399.0" y="1434.0"/>
      <point x="436.0" y="1375.0" type="qcurve" smooth="yes"/>
      <point x="709.0" y="943.0" type="line"/>
      <point x="982.0" y="1375.0" type="line" smooth="yes"/>
      <point x="1019.0" y="1434.0"/>
      <point x="1072.0" y="1434.0" type="qcurve" smooth="yes"/>
      <point x="1274.0" y="1434.0" type="line" smooth="yes"/>
      <point x="1370.0" y="1434.0"/>
      <point x="1312.0" y="1348.0" type="qcurve" smooth="yes"/>
      <point x="904.0" y="740.0" type="line"/>
      <point x="1348.0" y="86.0" type="line" smooth="yes"/>
      <point x="1406.0" y="0.0"/>
      <point x="1310.0" y="0.0" type="qcurve" smooth="yes"/>
      <point x="1105.0" y="0.0" type="line" smooth="yes"/>
      <point x="1053.0" y="-0.0"/>
      <point x="1015.0" y="59.0" type="qcurve" smooth="yes"/>
      <point x="709.0" y="537.0" type="line"/>
      <point x="403.0" y="59.0" type="line" smooth="yes"/>
      <point x="365.0" y="0.0"/>
      <point x="313.0" y="0.0" type="qcurve" smooth="yes"/>
    </contour>
  </outline>
</glyph>
<glyph name="a" format="2">
  <advance width="1123"/>
  <unicode hex="0061"/>
  <outline>
    <contour>
      <point x="80.0" y="280.0" type="qcurve" smooth="yes"/>
      <point x="80.0" y="480.0"/>
      <point x="462.0" y="660.0"/>
      <point x="707.0" y="666.0" type="qcurve"/>
      <point x="707.0" y="706.0" type="line" smooth="yes"/>
      <point x="707.0" y="798.0"/>
      <point x="615.0" y="874.0"/>
      <point x="533.0" y="874.0" type="qcurve" smooth="yes"/>
      <point x="475.0" y="874.0"/>
      <point x="386.0" y="841.0"/>
      <point x="320.6340026855469" y="798.3469848632812"/>
      <point x="295.0" y="776.0" type="qcurve" smooth="yes"/>
      <point x="249.0" y="736.0"/>
      <point x="219.0" y="772.0" type="qcurve" smooth="yes"/>
      <point x="136.0" y="874.0" type="line" smooth="yes"/>
      <point x="105.0" y="912.0"/>
      <point x="151.0" y="952.0" type="qcurve" smooth="yes"/>
      <point x="185.93299865722656" y="982.97802734375"/>
      <point x="279.0" y="1029.0"/>
      <point x="433.0" y="1070.0"/>
      <point x="556.0" y="1070.0" type="qcurve" smooth="yes"/>
      <point x="764.0" y="1070.0"/>
      <point x="987.0" y="878.0"/>
      <point x="987.0" y="691.0" type="qcurve" smooth="yes"/>
      <point x="987.0" y="60.0" type="line" smooth="yes"/>
      <point x="987.0" y="0.0"/>
      <point x="927.0" y="0.0" type="qcurve" smooth="yes"/>
      <point x="763.0" y="0.0" type="line" smooth="yes"/>
      <point x="709.0" y="0.0"/>
      <point x="709.0" y="60.0" type="qcurve" smooth="yes"/>
      <point x="709.0" y="90.0" type="line"/>
      <point x="707.0" y="90.0" type="line"/>
      <point x="648.0" y="33.0"/>
      <point x="483.0" y="-20.0"/>
      <point x="414.0" y="-20.0" type="qcurve" smooth="yes"/>
      <point x="250.0" y="-20.0"/>
      <point x="80.0" y="141.0"/>
    </contour>
    <contour>
      <point x="376.0" y="286.0" type="qcurve" smooth="yes"/>
      <point x="376.0" y="251.36599731445312"/>
      <point x="404.5" y="200.0"/>
      <point x="463.5" y="176.0"/>
      <point x="501.0" y="176.0" type="qcurve" smooth="yes"/>
      <point x="552.0" y="176.0"/>
      <point x="648.0" y="204.0"/>
      <point x="707.0" y="256.0" type="qcurve"/>
      <point x="707.0" y="473.0" type="line"/>
      <point x="539.0" y="454.0"/>
      <point x="425.0" y="394.0"/>
      <point x="376.0" y="330.0"/>
    </contour>
  </outline>
</glyph>
<glyph name="d" format="2">
  <advance width="1192"/>
  <unicode hex="0064"/>
  <outline>
    <contour>
      <point x="80.0" y="525.0" type="qcurve" smooth="yes"/>
      <point x="80.0" y="745.0"/>
      <point x="271.0" y="1070.0"/>
      <point x="506.0" y="1070.0" type="qcurve" smooth="yes"/>
      <point x="596.0" y="1070.0"/>
      <point x="724.0" y="1018.0"/>
      <point x="776.0" y="932.0" type="qcurve"/>
      <point x="780.0" y="932.0" type="line"/>
      <point x="776.0" y="972.0"/>
      <point x="776.0" y="1012.0" type="qcurve" smooth="yes"/>
      <point x="776.0" y="1416.0" type="line" smooth="yes"/>
      <point x="776.0" y="1476.0"/>
      <point x="836.0" y="1476.0" type="qcurve" smooth="yes"/>
      <point x="996.0" y="1476.0" type="line" smooth="yes"/>
      <point x="1056.0" y="1476.0"/>
      <point x="1056.0" y="1416.0" type="qcurve" smooth="yes"/>
      <point x="1056.0" y="60.0" type="line" smooth="yes"/>
      <point x="1056.0" y="0.0"/>
      <point x="996.0" y="0.0" type="qcurve" smooth="yes"/>
      <point x="838.0" y="0.0" type="line" smooth="yes"/>
      <point x="788.1380004882812" y="0.0"/>
      <point x="784.0" y="60.0" type="qcurve" smooth="yes"/>
      <point x="780.0" y="118.0" type="line"/>
      <point x="776.0" y="118.0" type="line"/>
      <point x="724.0" y="32.0"/>
      <point x="596.0" y="-20.0"/>
      <point x="506.0" y="-20.0" type="qcurve" smooth="yes"/>
      <point x="271.0" y="-20.0"/>
      <point x="80.0" y="305.0"/>
    </contour>
    <contour>
      <point x="376.0" y="525.0" type="qcurve" smooth="yes"/>
      <point x="376.0" y="365.0"/>
      <point x="459.0" y="176.0"/>
      <point x="594.0" y="176.0" type="qcurve" smooth="yes"/>
      <point x="669.0" y="176.0"/>
      <point x="776.0" y="345.0"/>
      <point x="776.0" y="480.0" type="qcurve" smooth="yes"/>
      <point x="776.0" y="570.0" type="line" smooth="yes"/>
      <point x="776.0" y="705.0"/>
      <point x="669.0" y="874.0"/>
      <point x="594.0" y="874.0" type="qcurve" smooth="yes"/>
      <point x="459.0" y="874.0"/>
      <point x="376.0" y="685.0"/>
    </contour>
  </outline>
</glyph>
<glyph name="f" format="2">
  <advance width="682"/>
  <unicode hex="0066"/>
  <outline>
    <contour>
      <point x="101.0" y="850.0" type="line" smooth="yes"/>
      <point x="42.0" y="850.0"/>
      <point x="42.0" y="900.0" type="qcurve" smooth="yes"/>
      <point x="42.0" y="1000.0" type="line" smooth="yes"/>
      <point x="42.0" y="1050.0"/>
      <point x="101.0" y="1050.0" type="qcurve" smooth="yes"/>
      <point x="157.0" y="1050.0" type="line"/>
      <point x="157.0" y="1190.0" type="line" smooth="yes"/>
      <point x="157.0" y="1374.0"/>
      <point x="367.0" y="1496.0"/>
      <point x="512.0" y="1496.0" type="qcurve" smooth="yes"/>
      <point x="581.0" y="1496.0"/>
      <point x="680.0" y="1480.0"/>
      <point x="718.0" y="1468.0" type="qcurve" smooth="yes"/>
      <point x="754.0" y="1456.0"/>
      <point x="744.0" y="1418.0" type="qcurve" smooth="yes"/>
      <point x="714.0" y="1305.0" type="line" smooth="yes"/>
      <point x="705.0" y="1272.0"/>
      <point x="668.0" y="1285.0" type="qcurve" smooth="yes"/>
      <point x="646.0" y="1293.0"/>
      <point x="567.0" y="1300.0"/>
      <point x="544.0" y="1300.0" type="qcurve" smooth="yes"/>
      <point x="471.0" y="1300.0"/>
      <point x="437.0" y="1198.0"/>
      <point x="437.0" y="1090.0" type="qcurve" smooth="yes"/>
      <point x="437.0" y="1050.0" type="line"/>
      <point x="569.0" y="1050.0" type="line" smooth="yes"/>
      <point x="628.0" y="1050.0"/>
      <point x="628.0" y="1000.0" type="qcurve" smooth="yes"/>
      <point x="628.0" y="900.0" type="line" smooth="yes"/>
      <point x="628.0" y="850.0"/>
      <point x="569.0" y="850.0" type="qcurve" smooth="yes"/>
      <point x="437.0" y="850.0" type="line"/>
      <point x="437.0" y="60.0" type="line" smooth="yes"/>
      <point x="437.0" y="0.0"/>
      <point x="377.0" y="0.0" type="qcurve" smooth="yes"/>
      <point x="217.0" y="0.0" type="line" smooth="yes"/>
      <point x="157.0" y="0.0"/>
      <point x="157.0" y="60.0" type="qcurve" smooth="yes"/>
      <point x="157.0" y="850.0" type="line"/>
    </contour>
  </outline>
</glyph>
<glyph name="g" format="2">
  <advance width="1192"/>
  <unicode hex="0067"/>
  <outline>
    <contour>
      <point x="80.0" y="525.0" type="qcurve" smooth="yes"/>
      <point x="80.0" y="745.0"/>
      <point x="271.0" y="1070.0"/>
      <point x="506.0" y="1070.0" type="qcurve" smooth="yes"/>
      <point x="596.0" y="1070.0"/>
      <point x="724.0" y="1018.0"/>
      <point x="776.0" y="932.0" type="qcurve"/>
      <point x="780.0" y="932.0" type="line"/>
      <point x="784.0" y="990.0" type="line" smooth="yes"/>
      <point x="788.0" y="1050.0"/>
      <point x="838.0" y="1050.0" type="qcurve" smooth="yes"/>
      <point x="996.0" y="1050.0" type="line" smooth="yes"/>
      <point x="1056.0" y="1050.0"/>
      <point x="1056.0" y="990.0" type="qcurve" smooth="yes"/>
      <point x="1056.0" y="11.0" type="line" smooth="yes"/>
      <point x="1056.0" y="-234.0"/>
      <point x="792.0" y="-420.0"/>
      <point x="542.0" y="-420.0" type="qcurve" smooth="yes"/>
      <point x="436.0" y="-420.0"/>
      <point x="256.0" y="-398.0"/>
      <point x="164.0" y="-354.0" type="qcurve" smooth="yes"/>
      <point x="116.0" y="-331.0"/>
      <point x="148.0" y="-267.0" type="qcurve" smooth="yes"/>
      <point x="184.0" y="-195.0" type="line" smooth="yes"/>
      <point x="206.0" y="-151.0"/>
      <point x="257.0" y="-175.0" type="qcurve" smooth="yes"/>
      <point x="298.0" y="-194.0"/>
      <point x="419.0" y="-224.0"/>
      <point x="512.0" y="-224.0" type="qcurve" smooth="yes"/>
      <point x="640.0" y="-224.0"/>
      <point x="776.0" y="-129.0"/>
      <point x="776.0" y="31.0" type="qcurve" smooth="yes"/>
      <point x="776.0" y="48.0" type="line" smooth="yes"/>
      <point x="776.0" y="88.0"/>
      <point x="780.0" y="128.0" type="qcurve"/>
      <point x="776.0" y="128.0" type="line"/>
      <point x="724.0" y="42.0"/>
      <point x="596.0" y="-10.0"/>
      <point x="506.0" y="-10.0" type="qcurve" smooth="yes"/>
      <point x="271.0" y="-10.0"/>
      <point x="80.0" y="315.0"/>
    </contour>
    <contour>
      <point x="376.0" y="525.0" type="qcurve" smooth="yes"/>
      <point x="376.0" y="375.0"/>
      <point x="459.0" y="186.0"/>
      <point x="594.0" y="186.0" type="qcurve" smooth="yes"/>
      <point x="669.0" y="186.0"/>
      <point x="776.0" y="355.0"/>
      <point x="776.0" y="490.0" type="qcurve" smooth="yes"/>
      <point x="776.0" y="570.0" type="line" smooth="yes"/>
      <point x="776.0" y="705.0"/>
      <point x="669.0" y="874.0"/>
      <point x="594.0" y="874.0" type="qcurve" smooth="yes"/>
      <point x="459.0" y="874.0"/>
      <point x="376.0" y="685.0"/>
    </contour>
  </outline>
</glyph>
<glyph name="r" format="2">
  <advance width="786"/>
  <unicode hex="0072"/>
  <outline>
    <contour>
      <point x="196.0" y="0.0" type="line" smooth="yes"/>
      <point x="136.0" y="0.0"/>
      <point x="136.0" y="60.0" type="qcurve" smooth="yes"/>
      <point x="136.0" y="990.0" type="line" smooth="yes"/>
      <point x="136.0" y="1050.0"/>
      <point x="196.0" y="1050.0" type="qcurve" smooth="yes"/>
      <point x="354.0" y="1050.0" type="line" smooth="yes"/>
      <point x="414.0" y="1050.0"/>
      <point x="414.0" y="990.0" type="qcurve" smooth="yes"/>
      <point x="414.0" y="908.0" type="line"/>
      <point x="418.0" y="908.0" type="line"/>
      <point x="444.0" y="972.0"/>
      <point x="566.0" y="1070.0"/>
      <point x="649.0" y="1070.0" type="qcurve" smooth="yes"/>
      <point x="706.0" y="1070.0"/>
      <point x="743.0" y="1056.0" type="qcurve" smooth="yes"/>
      <point x="778.0" y="1043.0"/>
      <point x="770.0" y="1008.0" type="qcurve" smooth="yes"/>
      <point x="742.0" y="889.0" type="line" smooth="yes"/>
      <point x="733.0" y="849.0"/>
      <point x="688.0" y="865.0" type="qcurve" smooth="yes"/>
      <point x="662.0" y="874.0"/>
      <point x="638.0" y="874.0" type="qcurve" smooth="yes"/>
      <point x="542.0" y="874.0"/>
      <point x="416.0" y="644.0"/>
      <point x="416.0" y="424.0" type="qcurve" smooth="yes"/>
      <point x="416.0" y="60.0" type="line" smooth="yes"/>
      <point x="416.0" y="0.0"/>
      <point x="356.0" y="0.0" type="qcurve" smooth="yes"/>
    </contour>
  </outline>
</glyph>
<glyph name="s" format="2">
  <advance width="1005"/>
  <unicode hex="0073"/>
  <outline>
    <contour>
      <point x="93.0" y="70.0" type="qcurve" smooth="yes"/>
      <point x="44.0" y="105.0"/>
      <point x="66.0" y="145.0" type="qcurve" smooth="yes"/>
      <point x="117.0" y="238.0" type="line" smooth="yes"/>
      <point x="144.0" y="288.0"/>
      <point x="201.0" y="250.0" type="qcurve" smooth="yes"/>
      <point x="258.0" y="212.0"/>
      <point x="413.0" y="176.0"/>
      <point x="477.0" y="176.0" type="qcurve" smooth="yes"/>
      <point x="522.0" y="176.0"/>
      <point x="600.0" y="194.0"/>
      <point x="654.0" y="246.0"/>
      <point x="654.0" y="296.0" type="qcurve" smooth="yes"/>
      <point x="654.0" y="326.0"/>
      <point x="622.0" y="368.0"/>
      <point x="572.0" y="390.0"/>
      <point x="544.0" y="397.0" type="qcurve" smooth="yes"/>
      <point x="507.0" y="406.0"/>
      <point x="368.0" y="448.0"/>
      <point x="304.0" y="476.0" type="qcurve" smooth="yes"/>
      <point x="251.0" y="499.0"/>
      <point x="150.0" y="582.0"/>
      <point x="103.0" y="684.0"/>
      <point x="103.0" y="759.0" type="qcurve" smooth="yes"/>
      <point x="103.0" y="860.0"/>
      <point x="220.0" y="1012.0"/>
      <point x="406.0" y="1070.0"/>
      <point x="545.0" y="1070.0" type="qcurve" smooth="yes"/>
      <point x="639.0" y="1070.0"/>
      <point x="817.0" y="1016.0"/>
      <point x="855.0" y="992.0" type="qcurve" smooth="yes"/>
      <point x="915.0" y="954.0"/>
      <point x="885.0" y="911.0" type="qcurve" smooth="yes"/>
      <point x="824.0" y="822.0" type="line" smooth="yes"/>
      <point x="796.0" y="782.0"/>
      <point x="734.0" y="816.0" type="qcurve" smooth="yes"/>
      <point x="687.0" y="842.0"/>
      <point x="596.0" y="874.0"/>
      <point x="540.0" y="874.0" type="qcurve" smooth="yes"/>
      <point x="502.0" y="874.0"/>
      <point x="432.0" y="858.0"/>
      <point x="383.0" y="814.0"/>
      <point x="383.0" y="778.0" type="qcurve" smooth="yes"/>
      <point x="383.0" y="740.0"/>
      <point x="428.0" y="697.0"/>
      <point x="487.0" y="677.0"/>
      <point x="514.0" y="668.0" type="qcurve" smooth="yes"/>
      <point x="570.0" y="650.0"/>
      <point x="684.0" y="617.0"/>
      <point x="743.0" y="594.0" type="qcurve" smooth="yes"/>
      <point x="794.0" y="574.0"/>
      <point x="890.0" y="500.0"/>
      <point x="934.0" y="386.0"/>
      <point x="934.0" y="313.0" type="qcurve" smooth="yes"/>
      <point x="934.0" y="216.0"/>
      <point x="818.0" y="50.0"/>
      <point x="628.0" y="-20.0"/>
      <point x="502.0" y="-20.0" type="qcurve" smooth="yes"/>
      <point x="361.0" y="-20.0"/>
      <point x="163.0" y="20.0"/>
    </contour>
  </outline>
</glyph>
<glyph name="w" format="2">
  <advance width="1604"/>
  <unicode hex="0077"/>
  <outline>
    <contour>
      <point x="42.0" y="972.0" type="line" smooth="yes"/>
      <point x="20.0" y="1050.0"/>
      <point x="75.0" y="1050.0" type="qcurve" smooth="yes"/>
      <point x="244.0" y="1050.0" type="line" smooth="yes"/>
      <point x="292.0" y="1050.0"/>
      <point x="304.0" y="999.0" type="qcurve" smooth="yes"/>
      <point x="439.0" y="413.0" type="line" smooth="yes"/>
      <point x="451.0" y="362.0"/>
      <point x="469.0" y="268.0"/>
      <point x="471.0" y="238.0" type="qcurve"/>
      <point x="477.0" y="238.0" type="line"/>
      <point x="479.0" y="268.0"/>
      <point x="497.0" y="365.0"/>
      <point x="509.0" y="413.0" type="qcurve" smooth="yes"/>
      <point x="651.0" y="999.0" type="line" smooth="yes"/>
      <point x="663.0" y="1050.0"/>
      <point x="711.0" y="1050.0" type="qcurve" smooth="yes"/>
      <point x="893.0" y="1050.0" type="line" smooth="yes"/>
      <point x="941.0" y="1050.0"/>
      <point x="953.0" y="999.0" type="qcurve" smooth="yes"/>
      <point x="1095.0" y="413.0" type="line" smooth="yes"/>
      <point x="1107.0" y="365.0"/>
      <point x="1125.0" y="268.0"/>
      <point x="1127.0" y="238.0" type="qcurve"/>
      <point x="1133.0" y="238.0" type="line"/>
      <point x="1135.0" y="268.0"/>
      <point x="1153.0" y="362.0"/>
      <point x="1165.0" y="413.0" type="qcurve" smooth="yes"/>
      <point x="1300.0" y="999.0" type="line" smooth="yes"/>
      <point x="1312.0" y="1050.0"/>
      <point x="1360.0" y="1050.0" type="qcurve" smooth="yes"/>
      <point x="1529.0" y="1050.0" type="line" smooth="yes"/>
      <point x="1584.0" y="1050.0"/>
      <point x="1562.0" y="972.0" type="qcurve" smooth="yes"/>
      <point x="1302.0" y="67.0" type="line" smooth="yes"/>
      <point x="1283.0" y="0.0"/>
      <point x="1229.0" y="0.0" type="qcurve" smooth="yes"/>
      <point x="1048.0" y="0.0" type="line" smooth="yes"/>
      <point x="991.0" y="0.0"/>
      <point x="975.0" y="67.0" type="qcurve" smooth="yes"/>
      <point x="830.0" y="660.0" type="line" smooth="yes"/>
      <point x="817.0" y="711.0"/>
      <point x="806.0" y="773.0"/>
      <point x="804.0" y="811.0" type="qcurve"/>
      <point x="800.0" y="811.0" type="line"/>
      <point x="798.0" y="773.0"/>
      <point x="787.0" y="711.0"/>
      <point x="774.0" y="660.0" type="qcurve" smooth="yes"/>
      <point x="629.0" y="67.0" type="line" smooth="yes"/>
      <point x="613.0" y="0.0"/>
      <point x="556.0" y="0.0" type="qcurve" smooth="yes"/>
      <point x="375.0" y="0.0" type="line" smooth="yes"/>
      <point x="321.0" y="0.0"/>
      <point x="302.0" y="67.0" type="qcurve" smooth="yes"/>
    </contour>
  </outline>
</glyph>
<glyph name="z" format="2">
  <advance width="964"/>
  <unicode hex="007A"/>
  <outline>
    <contour>
      <point x="112.0" y="0.0" type="line" smooth="yes"/>
      <point x="52.0" y="0.0"/>
      <point x="52.0" y="50.0" type="qcurve" smooth="yes"/>
      <point x="52.0" y="126.0" type="line" smooth="yes"/>
      <point x="52.0" y="178.0"/>
      <point x="93.0" y="234.0" type="qcurve" smooth="yes"/>
      <point x="541.0" y="850.0" type="line"/>
      <point x="541.0" y="854.0" type="line"/>
      <point x="501.0" y="850.0"/>
      <point x="461.0" y="850.0" type="qcurve" smooth="yes"/>
      <point x="136.0" y="850.0" type="line" smooth="yes"/>
      <point x="76.0" y="850.0"/>
      <point x="76.0" y="900.0" type="qcurve" smooth="yes"/>
      <point x="76.0" y="932.0" type="line" smooth="yes"/>
      <point x="76.0" y="1050.0"/>
      <point x="136.0" y="1050.0" type="qcurve" smooth="yes"/>
      <point x="828.0" y="1050.0" type="line" smooth="yes"/>
      <point x="888.0" y="1050.0"/>
      <point x="888.0" y="1000.0" type="qcurve" smooth="yes"/>
      <point x="888.0" y="930.0" type="line" smooth="yes"/>
      <point x="888.0" y="881.0"/>
      <point x="845.0" y="822.0" type="qcurve" smooth="yes"/>
      <point x="394.0" y="200.0" type="line"/>
      <point x="394.0" y="196.0" type="line"/>
      <point x="447.0" y="200.0"/>
      <point x="474.0" y="200.0" type="qcurve" smooth="yes"/>
      <point x="852.0" y="200.0" type="line" smooth="yes"/>
      <point x="912.0" y="200.0"/>
      <point x="912.0" y="150.0" type="qcurve" smooth="yes"/>
      <point x="912.0" y="50.0" type="line" smooth="yes"/>
      <point x="912.0" y="0.0"/>
      <point x="852.0" y="0.0" type="qcurve" smooth="yes"/>
    </contour>
  </outline>
</glyph>
<glyph name="asciitilde" format="2">
  <advance width="1280"/>
  <unicode hex="007E"/>
  <outline>
    <contour>
      <point x="100.0" y="634.0" type="line" smooth="yes"/>
      <point x="69.0" y="650.0"/>
      <point x="83.0" y="688.0" type="qcurve" smooth="yes"/>
      <point x="128.0" y="810.0"/>
      <point x="282.0" y="926.0"/>
      <point x="424.0" y="926.0" type="qcurve" smooth="yes"/>
      <point x="554.0" y="926.0"/>
      <point x="818.0" y="714.0"/>
      <point x="893.0" y="714.0" type="qcurve" smooth="yes"/>
      <point x="968.0" y="714.0"/>
      <point x="1036.0" y="776.0"/>
      <point x="1062.0" y="822.0" type="qcurve" smooth="yes"/>
      <point x="1088.0" y="867.0"/>
      <point x="1114.0" y="852.0" type="qcurve" smooth="yes"/>
      <point x="1180.0" y="816.0" type="line" smooth="yes"/>
      <point x="1211.0" y="800.0"/>
      <point x="1197.0" y="762.0" type="qcurve" smooth="yes"/>
      <point x="1152.0" y="640.0"/>
      <point x="998.0" y="524.0"/>
      <point x="856.0" y="524.0" type="qcurve" smooth="yes"/>
      <point x="726.0" y="524.0"/>
      <point x="462.0" y="736.0"/>
      <point x="387.0" y="736.0" type="qcurve" smooth="yes"/>
      <point x="312.0" y="736.0"/>
      <point x="244.0" y="674.0"/>
      <point x="218.0" y="628.0" type="qcurve" smooth="yes"/>
      <point x="192.0" y="583.0"/>
      <point x="166.0" y="598.0" type="qcurve" smooth="yes"/>
    </contour>
  </outline>
</glyph>
<glyph name="exclamdown" format="2">
  <advance width="668"/>
  <unicode hex="00A1"/>
  <outline>
    <contour>
      <point x="254.0" y="-384.0" type="line" smooth="yes"/>
      <point x="182.0" y="-384.0"/>
      <point x="184.0" y="-309.0" type="qcurve" smooth="yes"/>
      <point x="211.0" y="565.0" type="line" smooth="yes"/>
      <point x="213.0" y="630.0"/>
      <point x="276.0" y="630.0" type="qcurve" smooth="yes"/>
      <point x="392.0" y="630.0" type="line" smooth="yes"/>
      <point x="455.0" y="630.0"/>
      <point x="457.0" y="565.0" type="qcurve" smooth="yes"/>
      <point x="484.0" y="-309.0" type="line" smooth="yes"/>
      <point x="486.0" y="-384.0"/>
      <point x="414.0" y="-384.0" type="qcurve" smooth="yes"/>
    </contour>
    <contour>
      <point x="258.0" y="766.0" type="line" smooth="yes"/>
      <point x="188.0" y="766.0"/>
      <point x="188.0" y="841.0" type="qcurve" smooth="yes"/>
      <point x="188.0" y="975.0" type="line" smooth="yes"/>
      <point x="188.0" y="1050.0"/>
      <point x="258.0" y="1050.0" type="qcurve" smooth="yes"/>
      <point x="410.0" y="1050.0" type="line" smooth="yes"/>
      <point x="480.0" y="1050.0"/>
      <point x="480.0" y="975.0" type="qcurve" smooth="yes"/>
      <point x="480.0" y="841.0" type="line" smooth="yes"/>
      <point x="480.0" y="766.0"/>
      <point x="410.0" y="766.0" type="qcurve" smooth="yes"/>
    </contour>
  </outline>
</glyph>
<glyph name="yen" format="2">
  <advance width="1200"/>
  <unicode hex="00A5"/>
  <outline>
    <contour>
      <point x="13.0" y="1348.0" type="line" smooth="yes"/>
      <point x="-39.0" y="1434.0"/>
      <point x="60.0" y="1434.0" type="qcurve" smooth="yes"/>
      <point x="215.0" y="1434.0" type="line" smooth="yes"/>
      <point x="272.0" y="1434.0"/>
      <point x="307.0" y="1365.0" type="qcurve" smooth="yes"/>
      <point x="494.0" y="994.0" type="line" smooth="yes"/>
      <point x="532.0" y="920.0"/>
      <point x="591.0" y="822.0"/>
      <point x="598.0" y="748.0" type="qcurve"/>
      <point x="602.0" y="748.0" type="line"/>
      <point x="609.0" y="822.0"/>
      <point x="668.0" y="919.0"/>
      <point x="706.0" y="994.0" type="qcurve" smooth="yes"/>
      <point x="893.0" y="1365.0" type="line" smooth="yes"/>
      <point x="928.0" y="1434.0"/>
      <point x="985.0" y="1434.0" type="qcurve" smooth="yes"/>
      <point x="1140.0" y="1434.0" type="line" smooth="yes"/>
      <point x="1239.0" y="1434.0"/>
      <point x="1187.0" y="1348.0" type="qcurve" smooth="yes"/>
      <point x="838.0" y="768.0" type="line"/>
      <point x="992.0" y="768.0" type="line" smooth="yes"/>
      <point x="1052.0" y="768.0"/>
      <point x="1052.0" y="708.0" type="qcurve" smooth="yes"/>
      <point x="1052.0" y="620.0" type="line" smooth="yes"/>
      <point x="1052.0" y="560.0"/>
      <point x="992.0" y="560.0" type="qcurve" smooth="yes"/>
      <point x="740.0" y="560.0" type="line"/>
      <point x="740.0" y="391.0" type="line"/>
      <point x="992.0" y="391.0" type="line" smooth="yes"/>
      <point x="1052.0" y="391.0"/>
      <point x="1052.0" y="331.0" type="qcurve" smooth="yes"/>
      <point x="1052.0" y="243.0" type="line" smooth="yes"/>
      <point x="1052.0" y="183.0"/>
      <point x="992.0" y="183.0" type="qcurve" smooth="yes"/>
      <point x="740.0" y="183.0" type="line"/>
      <point x="740.0" y="60.0" type="line" smooth="yes"/>
      <point x="740.0" y="0.0"/>
      <point x="680.0" y="0.0" type="qcurve" smooth="yes"/>
      <point x="520.0" y="0.0" type="line" smooth="yes"/>
      <point x="460.0" y="0.0"/>
      <point x="460.0" y="60.0" type="qcurve" smooth="yes"/>
      <point x="460.0" y="183.0" type="line"/>
      <point x="208.0" y="183.0" type="line" smooth="yes"/>
      <point x="148.0" y="183.0"/>
      <point x="148.0" y="243.0" type="qcurve" smooth="yes"/>
      <point x="148.0" y="331.0" type="line" smooth="yes"/>
      <point x="148.0" y="391.0"/>
      <point x="208.0" y="391.0" type="qcurve" smooth="yes"/>
      <point x="460.0" y="391.0" type="line"/>
      <point x="460.0" y="560.0" type="line"/>
      <point x="208.0" y="560.0" type="line" smooth="yes"/>
      <point x="148.0" y="560.0"/>
      <point x="148.0" y="620.0" type="qcurve" smooth="yes"/>
      <point x="148.0" y="708.0" type="line" smooth="yes"/>
      <point x="148.0" y="768.0"/>
      <point x="208.0" y="768.0" type="qcurve" smooth="yes"/>
      <point x="362.0" y="768.0" type="line"/>
    </contour>
  </outline>
</glyph>
<glyph name="logicalnot" format="2">
  <advance width="1200"/>
  <unicode hex="00AC"/>
  <outline>
    <contour>
      <point x="135.0" y="775.0" type="line" smooth="yes"/>
      <point x="75.0" y="775.0"/>
      <point x="75.0" y="825.0" type="qcurve" smooth="yes"/>
      <point x="75.0" y="911.0" type="line" smooth="yes"/>
      <point x="75.0" y="961.0"/>
      <point x="135.0" y="961.0" type="qcurve" smooth="yes"/>
      <point x="1125.0" y="961.0" type="line"/>
      <point x="1125.0" y="463.0" type="line" smooth="yes"/>
      <point x="1125.0" y="403.0"/>
      <point x="1075.0" y="403.0" type="qcurve" smooth="yes"/>
      <point x="989.0" y="403.0" type="line" smooth="yes"/>
      <point x="939.0" y="403.0"/>
      <point x="939.0" y="463.0" type="qcurve" smooth="yes"/>
      <point x="939.0" y="775.0" type="line"/>
    </contour>
  </outline>
</glyph>
<glyph name="acute" format="2">
  <advance width="614"/>
  <unicode hex="00B4"/>
  <outline>
    <contour>
      <point x="174.0" y="1150.0" type="line" smooth="yes"/>
      <point x="117.0" y="1150.0"/>
      <point x="153.0" y="1209.0" type="qcurve" smooth="yes"/>
      <point x="261.0" y="1388.0" type="line" smooth="yes"/>
      <point x="289.0" y="1435.0"/>
      <point x="367.0" y="1435.0" type="qcurve" smooth="yes"/>
      <point x="519.0" y="1435.0" type="line" smooth="yes"/>
      <point x="593.0" y="1435.0"/>
      <point x="541.0" y="1376.0" type="qcurve" smooth="yes"/>
      <point x="376.0" y="1187.0" type="line" smooth="yes"/>
      <point x="344.0" y="1150.0"/>
      <point x="275.0" y="1150.0" type="qcurve" smooth="yes"/>
    </contour>
  </outline>
</glyph>
<glyph name="paragraph" format="2">
  <advance width="1140"/>
  <unicode hex="00B6"/>
  <outline>
    <contour>
      <point x="75.0" y="1084.0" type="qcurve" smooth="yes"/>
      <point x="75.0" y="1226.0"/>
      <point x="283.0" y="1434.0"/>
      <point x="445.0" y="1434.0" type="qcurve" smooth="yes"/>
      <point x="595.0" y="1434.0" type="line" smooth="yes"/>
      <point x="645.0" y="1434.0"/>
      <point x="645.0" y="1374.0" type="qcurve" smooth="yes"/>
      <point x="645.0" y="-310.0" type="line" smooth="yes"/>
      <point x="645.0" y="-370.0"/>
      <point x="595.0" y="-370.0" type="qcurve" smooth="yes"/>
      <point x="495.0" y="-370.0" type="line" smooth="yes"/>
      <point x="445.0" y="-370.0"/>
      <point x="445.0" y="-310.0" type="qcurve" smooth="yes"/>
      <point x="445.0" y="734.0" type="line"/>
      <point x="283.0" y="734.0"/>
      <point x="75.0" y="942.0"/>
    </contour>
    <contour>
      <point x="854.0" y="-370.0" type="line" smooth="yes"/>
      <point x="804.0" y="-370.0"/>
      <point x="804.0" y="-310.0" type="qcurve" smooth="yes"/>
      <point x="804.0" y="1374.0" type="line" smooth="yes"/>
      <point x="804.0" y="1434.0"/>
      <point x="854.0" y="1434.0" type="qcurve" smooth="yes"/>
      <point x="954.0" y="1434.0" type="line" smooth="yes"/>
      <point x="1004.0" y="1434.0"/>
      <point x="1004.0" y="1374.0" type="qcurve" smooth="yes"/>
      <point x="1004.0" y="-310.0" type="line" smooth="yes"/>
      <point x="1004.0" y="-370.0"/>
      <point x="954.0" y="-370.0" type="qcurve" smooth="yes"/>
    </contour>
  </outline>
</glyph>
<glyph name="ordmasculine" format="2">
  <advance width="820"/>
  <unicode hex="00BA"/>
  <outline>
    <contour>
      <point x="54.0" y="1141.0" type="qcurve" smooth="yes"/>
      <point x="54.0" y="1311.0"/>
      <point x="230.0" y="1496.0"/>
      <point x="410.0" y="1496.0" type="qcurve" smooth="yes"/>
      <point x="590.0" y="1496.0"/>
      <point x="766.0" y="1311.0"/>
      <point x="766.0" y="1141.0" type="qcurve" smooth="yes"/>
      <point x="766.0" y="971.0"/>
      <point x="590.0" y="787.0"/>
      <point x="410.0" y="787.0" type="qcurve" smooth="yes"/>
      <point x="230.0" y="787.0"/>
      <point x="54.0" y="971.0"/>
    </contour>
    <contour>
      <point x="266.0" y="1141.0" type="qcurve" smooth="yes"/>
      <point x="266.0" y="1026.0"/>
      <point x="345.0" y="943.0"/>
      <point x="410.0" y="943.0" type="qcurve" smooth="yes"/>
      <point x="475.0" y="943.0"/>
      <point x="554.0" y="1026.0"/>
      <point x="554.0" y="1141.0" type="qcurve" smooth="yes"/>
      <point x="554.0" y="1256.0"/>
      <point x="475.0" y="1340.0"/>
      <point x="410.0" y="1340.0" type="qcurve" smooth="yes"/>
      <point x="345.0" y="1340.0"/>
      <point x="266.0" y="1256.0"/>
    </contour>
  </outline>
</glyph>
<glyph name="questiondown" format="2">
  <advance width="1106"/>
  <unicode hex="00BF"/>
  <outline>
    <contour>
      <point x="100.0" y="-18.0" type="qcurve" smooth="yes"/>
      <point x="100.0" y="123.0"/>
      <point x="431.0" y="450.0"/>
      <point x="431.0" y="556.0" type="qcurve" smooth="yes"/>
      <point x="431.0" y="572.0" type="line" smooth="yes"/>
      <point x="431.0" y="637.0"/>
      <point x="496.0" y="637.0" type="qcurve" smooth="yes"/>
      <point x="646.0" y="637.0" type="line" smooth="yes"/>
      <point x="711.0" y="637.0"/>
      <point x="711.0" y="572.0" type="qcurve" smooth="yes"/>
      <point x="711.0" y="542.0" type="line" smooth="yes"/>
      <point x="711.0" y="378.0"/>
      <point x="400.0" y="54.0"/>
      <point x="400.0" y="-24.0" type="qcurve" smooth="yes"/>
      <point x="400.0" y="-105.0"/>
      <point x="475.0" y="-194.0"/>
      <point x="572.0" y="-194.0" type="qcurve" smooth="yes"/>
      <point x="658.0" y="-194.0"/>
      <point x="764.0" y="-116.0"/>
      <point x="798.0" y="-60.0" type="qcurve" smooth="yes"/>
      <point x="831.0" y="-5.0"/>
      <point x="887.0" y="-41.0" type="qcurve" smooth="yes"/>
      <point x="992.0" y="-108.0" type="line" smooth="yes"/>
      <point x="1044.0" y="-141.0"/>
      <point x="1005.0" y="-210.0" type="qcurve" smooth="yes"/>
      <point x="964.0" y="-282.0"/>
      <point x="736.0" y="-418.0"/>
      <point x="562.0" y="-418.0" type="qcurve" smooth="yes"/>
      <point x="325.0" y="-418.0"/>
      <point x="100.0" y="-204.0"/>
    </contour>
    <contour>
      <point x="495.0" y="766.0" type="line" smooth="yes"/>
      <point x="425.0" y="766.0"/>
      <point x="425.0" y="841.0" type="qcurve" smooth="yes"/>
      <point x="425.0" y="975.0" type="line" smooth="yes"/>
      <point x="425.0" y="1050.0"/>
      <point x="495.0" y="1050.0" type="qcurve" smooth="yes"/>
      <point x="647.0" y="1050.0" type="line" smooth="yes"/>
      <point x="717.0" y="1050.0"/>
      <point x="717.0" y="975.0" type="qcurve" smooth="yes"/>
      <point x="717.0" y="841.0" type="line" smooth="yes"/>
      <point x="717.0" y="766.0"/>
      <point x="647.0" y="766.0" type="qcurve" smooth="yes"/>
    </contour>
  </outline>
</glyph>
<glyph name="oslash" format="2">
  <advance width="1206"/>
  <unicode hex="00F8"/>
  <outline>
    <contour>
      <point x="80.0" y="525.0" type="qcurve" smooth="yes"/>
      <point x="80.0" y="780.0"/>
      <point x="343.0" y="1070.0"/>
      <point x="603.0" y="1070.0" type="qcurve" smooth="yes"/>
      <point x="780.0" y="1070.0"/>
      <point x="898.0" y="1002.0" type="qcurve"/>
      <point x="949.0" y="1059.0" type="line" smooth="yes"/>
      <point x="989.0" y="1104.0"/>
      <point x="1026.0" y="1070.0" type="qcurve" smooth="yes"/>
      <point x="1101.0" y="1003.0" type="line" smooth="yes"/>
      <point x="1138.0" y="970.0"/>
      <point x="1098.0" y="925.0" type="qcurve" smooth="yes"/>
      <point x="1042.0" y="863.0" type="line"/>
      <point x="1126.0" y="729.0"/>
      <point x="1126.0" y="525.0" type="qcurve" smooth="yes"/>
      <point x="1126.0" y="270.0"/>
      <point x="863.0" y="-20.0"/>
      <point x="603.0" y="-20.0" type="qcurve" smooth="yes"/>
      <point x="426.0" y="-20.0"/>
      <point x="308.0" y="48.0" type="qcurve"/>
      <point x="257.0" y="-9.0" type="line" smooth="yes"/>
      <point x="217.0" y="-54.0"/>
      <point x="180.0" y="-20.0" type="qcurve" smooth="yes"/>
      <point x="105.0" y="47.0" type="line" smooth="yes"/>
      <point x="68.0" y="80.0"/>
      <point x="108.0" y="125.0" type="qcurve" smooth="yes"/>
      <point x="164.0" y="187.0" type="line"/>
      <point x="80.0" y="321.0"/>
    </contour>
    <contour>
      <point x="376.0" y="525.0" type="qcurve" smooth="yes"/>
      <point x="376.0" y="472.0"/>
      <point x="381.0" y="428.0" type="qcurve"/>
      <point x="741.0" y="828.0" type="line"/>
      <point x="687.0" y="874.0"/>
      <point x="603.0" y="874.0" type="qcurve" smooth="yes"/>
      <point x="493.0" y="874.0"/>
      <point x="376.0" y="715.0"/>
    </contour>
    <contour>
      <point x="465.0" y="222.0" type="line"/>
      <point x="519.0" y="176.0"/>
      <point x="603.0" y="176.0" type="qcurve" smooth="yes"/>
      <point x="713.0" y="176.0"/>
      <point x="830.0" y="335.0"/>
      <point x="830.0" y="525.0" type="qcurve" smooth="yes"/>
      <point x="830.0" y="578.0"/>
      <point x="825.0" y="622.0" type="qcurve"/>
    </contour>
  </outline>
</glyph>
<glyph name="Eogonek" format="2">
  <advance width="1280"/>
  <unicode hex="0118"/>
  <outline>
    <contour>
      <point x="230.0" y="0.0" type="line" smooth="yes"/>
      <point x="160.0" y="0.0"/>
      <point x="160.0" y="75.0" type="qcurve" smooth="yes"/>
      <point x="160.0" y="1359.0" type="line" smooth="yes"/>
      <point x="160.0" y="1434.0"/>
      <point x="230.0" y="1434.0" type="qcurve" smooth="yes"/>
      <point x="1088.0" y="1434.0" type="line" smooth="yes"/>
      <point x="1163.0" y="1434.0"/>
      <point x="1163.0" y="1369.0" type="qcurve" smooth="yes"/>
      <point x="1163.0" y="1251.0" type="line" smooth="yes"/>
      <point x="1163.0" y="1186.0"/>
      <point x="1088.0" y="1186.0" type="qcurve" smooth="yes"/>
      <point x="452.0" y="1186.0" type="line"/>
      <point x="452.0" y="868.0" type="line"/>
      <point x="1035.0" y="868.0" type="line" smooth="yes"/>
      <point x="1110.0" y="868.0"/>
      <point x="1110.0" y="803.0" type="qcurve" smooth="yes"/>
      <point x="1110.0" y="685.0" type="line" smooth="yes"/>
      <point x="1110.0" y="620.0"/>
      <point x="1035.0" y="620.0" type="qcurve" smooth="yes"/>
      <point x="452.0" y="620.0" type="line"/>
      <point x="452.0" y="248.0" type="line"/>
      <point x="1120.0" y="248.0" type="line" smooth="yes"/>
      <point x="1195.0" y="248.0"/>
      <point x="1195.0" y="183.0" type="qcurve" smooth="yes"/>
      <point x="1195.0" y="65.0" type="line" smooth="yes"/>
      <point x="1195.0" y="0.0"/>
      <point x="1120.0" y="0.0" type="qcurve" smooth="yes"/>
      <point x="1109.0" y="0.0" type="line"/>
      <point x="1059.0" y="-34.0"/>
      <point x="910.0" y="-145.0"/>
      <point x="910.0" y="-176.0" type="qcurve" smooth="yes"/>
      <point x="910.0" y="-207.0"/>
      <point x="958.0" y="-224.0"/>
      <point x="990.0" y="-224.0" type="qcurve" smooth="yes"/>
      <point x="1040.0" y="-224.0"/>
      <point x="1070.0" y="-219.0" type="qcurve" smooth="yes"/>
      <point x="1106.0" y="-213.0"/>
      <point x="1110.0" y="-250.0" type="qcurve" smooth="yes"/>
      <point x="1124.0" y="-368.0" type="line" smooth="yes"/>
      <point x="1128.0" y="-404.0"/>
      <point x="1090.0" y="-411.0" type="qcurve" smooth="yes"/>
      <point x="1046.0" y="-420.0"/>
      <point x="956.0" y="-420.0" type="qcurve" smooth="yes"/>
      <point x="815.0" y="-420.0"/>
      <point x="674.0" y="-332.0"/>
      <point x="674.0" y="-247.0" type="qcurve" smooth="yes"/>
      <point x="674.0" y="-211.0"/>
      <point x="694.0" y="-143.0"/>
      <point x="777.0" y="-46.0"/>
      <point x="830.0" y="-3.0" type="qcurve"/>
      <point x="830.0" y="4.0" type="line"/>
      <point x="770.0" y="0.0"/>
      <point x="710.0" y="0.0" type="qcurve" smooth="yes"/>
    </contour>
  </outline>
</glyph>
<glyph name="hbar" format="2">
  <advance width="1232"/>
  <unicode hex="0127"/>
  <outline>
    <contour>
      <point x="77.0" y="1180.0" type="line" smooth="yes"/>
      <point x="17.0" y="1180.0"/>
      <point x="17.0" y="1230.0" type="qcurve" smooth="yes"/>
      <point x="17.0" y="1330.0" type="line" smooth="yes"/>
      <point x="17.0" y="1380.0"/>
      <point x="77.0" y="1380.0" type="qcurve" smooth="yes"/>
      <point x="168.0" y="1380.0" type="line"/>
      <point x="168.0" y="1416.0" type="line" smooth="yes"/>
      <point x="168.0" y="1476.0"/>
      <point x="228.0" y="1476.0" type="qcurve" smooth="yes"/>
      <point x="388.0" y="1476.0" type="line" smooth="yes"/>
      <point x="448.0" y="1476.0"/>
      <point x="448.0" y="1416.0" type="qcurve" smooth="yes"/>
      <point x="448.0" y="1380.0" type="line"/>
      <point x="791.0" y="1380.0" type="line" smooth="yes"/>
      <point x="851.0" y="1380.0"/>
      <point x="851.0" y="1330.0" type="qcurve" smooth="yes"/>
      <point x="851.0" y="1230.0" type="line" smooth="yes"/>
      <point x="851.0" y="1180.0"/>
      <point x="791.0" y="1180.0" type="qcurve" smooth="yes"/>
      <point x="448.0" y="1180.0" type="line"/>
      <point x="448.0" y="1012.0" type="line" smooth="yes"/>
      <point x="448.0" y="972.0"/>
      <point x="444.0" y="932.0" type="qcurve"/>
      <point x="450.0" y="932.0" type="line"/>
      <point x="496.0" y="1011.0"/>
      <point x="638.0" y="1070.0"/>
      <point x="738.0" y="1070.0" type="qcurve" smooth="yes"/>
      <point x="894.0" y="1070.0"/>
      <point x="1098.0" y="874.0"/>
      <point x="1098.0" y="614.0" type="qcurve" smooth="yes"/>
      <point x="1098.0" y="60.0" type="line" smooth="yes"/>
      <point x="1098.0" y="0.0"/>
      <point x="1038.0" y="0.0" type="qcurve" smooth="yes"/>
      <point x="878.0" y="0.0" type="line" smooth="yes"/>
      <point x="818.0" y="0.0"/>
      <point x="818.0" y="60.0" type="qcurve" smooth="yes"/>
      <point x="818.0" y="542.0" type="line" smooth="yes"/>
      <point x="818.0" y="760.0"/>
      <point x="758.0" y="874.0"/>
      <point x="659.0" y="874.0" type="qcurve" smooth="yes"/>
      <point x="554.0" y="874.0"/>
      <point x="448.0" y="711.0"/>
      <point x="448.0" y="454.0" type="qcurve" smooth="yes"/>
      <point x="448.0" y="60.0" type="line" smooth="yes"/>
      <point x="448.0" y="0.0"/>
      <point x="388.0" y="0.0" type="qcurve" smooth="yes"/>
      <point x="228.0" y="0.0" type="line" smooth="yes"/>
      <point x="168.0" y="0.0"/>
      <point x="168.0" y="60.0" type="qcurve" smooth="yes"/>
      <point x="168.0" y="1180.0" type="line"/>
    </contour>
  </outline>
</glyph>
<glyph name="Lslash" format="2">
  <advance width="1244"/>
  <unicode hex="0141"/>
  <outline>
    <contour>
      <point x="125.0" y="398.0" type="line" smooth="yes"/>
      <point x="55.0" y="351.0"/>
      <point x="55.0" y="418.0" type="qcurve" smooth="yes"/>
      <point x="55.0" y="562.0" type="line" smooth="yes"/>
      <point x="55.0" y="616.0"/>
      <point x="105.0" y="650.0" type="qcurve" smooth="yes"/>
      <point x="242.0" y="742.0" type="line"/>
      <point x="242.0" y="1359.0" type="line" smooth="yes"/>
      <point x="242.0" y="1434.0"/>
      <point x="312.0" y="1434.0" type="qcurve" smooth="yes"/>
      <point x="474.0" y="1434.0" type="line" smooth="yes"/>
      <point x="534.0" y="1434.0"/>
      <point x="534.0" y="1359.0" type="qcurve" smooth="yes"/>
      <point x="534.0" y="1062.0" type="line" smooth="yes"/>
      <point x="534.0" y="1002.0"/>
      <point x="529.0" y="942.0" type="qcurve"/>
      <point x="536.0" y="942.0" type="line"/>
      <point x="767.0" y="1097.0" type="line" smooth="yes"/>
      <point x="837.0" y="1144.0"/>
      <point x="837.0" y="1077.0" type="qcurve" smooth="yes"/>
      <point x="837.0" y="933.0" type="line" smooth="yes"/>
      <point x="837.0" y="878.0"/>
      <point x="787.0" y="845.0" type="qcurve" smooth="yes"/>
      <point x="534.0" y="676.0" type="line"/>
      <point x="534.0" y="248.0" type="line"/>
      <point x="1117.0" y="248.0" type="line" smooth="yes"/>
      <point x="1192.0" y="248.0"/>
      <point x="1192.0" y="183.0" type="qcurve" smooth="yes"/>
      <point x="1192.0" y="65.0" type="line" smooth="yes"/>
      <point x="1192.0" y="0.0"/>
      <point x="1117.0" y="0.0" type="qcurve" smooth="yes"/>
      <point x="312.0" y="0.0" type="line" smooth="yes"/>
      <point x="242.0" y="0.0"/>
      <point x="242.0" y="75.0" type="qcurve" smooth="yes"/>
      <point x="242.0" y="356.0" type="line" smooth="yes"/>
      <point x="242.0" y="416.0"/>
      <point x="247.0" y="476.0" type="qcurve"/>
      <point x="240.0" y="476.0" type="line"/>
    </contour>
  </outline>
</glyph>
<glyph name="uni0197" format="2">
  <advance width="800"/>
  <unicode hex="0197"/>
  <outline>
    <contour>
      <point x="121.0" y="622.0" type="line" smooth="yes"/>
      <point x="46.0" y="622.0"/>
      <point x="46.0" y="687.0" type="qcurve" smooth="yes"/>
      <point x="46.0" y="805.0" type="line" smooth="yes"/>
      <point x="46.0" y="870.0"/>
      <point x="121.0" y="870.0" type="qcurve" smooth="yes"/>
      <point x="254.0" y="870.0" type="line"/>
      <point x="254.0" y="1359.0" type="line" smooth="yes"/>
      <point x="254.0" y="1434.0"/>
      <point x="324.0" y="1434.0" type="qcurve" smooth="yes"/>
      <point x="476.0" y="1434.0" type="line" smooth="yes"/>
      <point x="546.0" y="1434.0"/>
      <point x="546.0" y="1359.0" type="qcurve" smooth="yes"/>
      <point x="546.0" y="870.0" type="line"/>
      <point x="679.0" y="870.0" type="line" smooth="yes"/>
      <point x="754.0" y="870.0"/>
      <point x="754.0" y="805.0" type="qcurve" smooth="yes"/>
      <point x="754.0" y="687.0" type="line" smooth="yes"/>
      <point x="754.0" y="622.0"/>
      <point x="679.0" y="622.0" type="qcurve" smooth="yes"/>
      <point x="546.0" y="622.0" type="line"/>
      <point x="546.0" y="75.0" type="line" smooth="yes"/>
      <point x="546.0" y="0.0"/>
      <point x="476.0" y="0.0" type="qcurve" smooth="yes"/>
      <point x="324.0" y="0.0" type="line" smooth="yes"/>
      <point x="254.0" y="0.0"/>
      <point x="254.0" y="75.0" type="qcurve" smooth="yes"/>
      <point x="254.0" y="622.0" type="line"/>
    </contour>
  </outline>
</glyph>
<glyph name="uni0256" format="2">
  <advance width="1204"/>
  <unicode hex="0256"/>
  <outline>
    <contour>
      <point x="80.0" y="525.0" type="qcurve" smooth="yes"/>
      <point x="80.0" y="745.0"/>
      <point x="271.0" y="1070.0"/>
      <point x="506.0" y="1070.0" type="qcurve" smooth="yes"/>
      <point x="596.0" y="1070.0"/>
      <point x="724.0" y="1018.0"/>
      <point x="776.0" y="932.0" type="qcurve"/>
      <point x="780.0" y="932.0" type="line"/>
      <point x="776.0" y="972.0"/>
      <point x="776.0" y="1012.0" type="qcurve" smooth="yes"/>
      <point x="776.0" y="1416.0" type="line" smooth="yes"/>
      <point x="776.0" y="1476.0"/>
      <point x="836.0" y="1476.0" type="qcurve" smooth="yes"/>
      <point x="996.0" y="1476.0" type="line" smooth="yes"/>
      <point x="1056.0" y="1476.0"/>
      <point x="1056.0" y="1416.0" type="qcurve" smooth="yes"/>
      <point x="1056.0" y="26.0" type="line" smooth="yes"/>
      <point x="1056.0" y="-92.0"/>
      <point x="1104.0" y="-224.0"/>
      <point x="1164.0" y="-224.0" type="qcurve" smooth="yes"/>
      <point x="1211.0" y="-224.0"/>
      <point x="1232.0" y="-217.0" type="qcurve" smooth="yes"/>
      <point x="1274.0" y="-203.0"/>
      <point x="1283.0" y="-247.0" type="qcurve" smooth="yes"/>
      <point x="1305.0" y="-357.0" type="line" smooth="yes"/>
      <point x="1314.0" y="-402.0"/>
      <point x="1276.0" y="-409.0" type="qcurve" smooth="yes"/>
      <point x="1212.0" y="-420.0"/>
      <point x="1129.0" y="-420.0" type="qcurve" smooth="yes"/>
      <point x="970.0" y="-420.0"/>
      <point x="776.0" y="-252.0"/>
      <point x="776.0" y="-4.0" type="qcurve" smooth="yes"/>
      <point x="776.0" y="38.0" type="line" smooth="yes"/>
      <point x="776.0" y="78.0"/>
      <point x="780.0" y="118.0" type="qcurve"/>
      <point x="776.0" y="118.0" type="line"/>
      <point x="724.0" y="32.0"/>
      <point x="596.0" y="-20.0"/>
      <point x="506.0" y="-20.0" type="qcurve" smooth="yes"/>
      <point x="271.0" y="-20.0"/>
      <point x="80.0" y="305.0"/>
    </contour>
    <contour>
      <point x="376.0" y="525.0" type="qcurve" smooth="yes"/>
      <point x="376.0" y="365.0"/>
      <point x="459.0" y="176.0"/>
      <point x="594.0" y="176.0" type="qcurve" smooth="yes"/>
      <point x="669.0" y="176.0"/>
      <point x="776.0" y="345.0"/>
      <point x="776.0" y="480.0" type="qcurve" smooth="yes"/>
      <point x="776.0" y="570.0" type="line" smooth="yes"/>
      <point x="776.0" y="705.0"/>
      <point x="669.0" y="874.0"/>
      <point x="594.0" y="874.0" type="qcurve" smooth="yes"/>
      <point x="459.0" y="874.0"/>
      <point x="376.0" y="685.0"/>
    </contour>
  </outline>
</glyph>
<glyph name="uni0268" format="2">
  <advance width="728"/>
  <unicode hex="0268"/>
  <outline>
    <contour>
      <point x="107.0" y="448.0" type="line" smooth="yes"/>
      <point x="47.0" y="448.0"/>
      <point x="47.0" y="498.0" type="qcurve" smooth="yes"/>
      <point x="47.0" y="598.0" type="line" smooth="yes"/>
      <point x="47.0" y="648.0"/>
      <point x="107.0" y="648.0" type="qcurve" smooth="yes"/>
      <point x="224.0" y="648.0" type="line"/>
      <point x="224.0" y="990.0" type="line" smooth="yes"/>
      <point x="224.0" y="1050.0"/>
      <point x="284.0" y="1050.0" type="qcurve" smooth="yes"/>
      <point x="444.0" y="1050.0" type="line" smooth="yes"/>
      <point x="504.0" y="1050.0"/>
      <point x="504.0" y="990.0" type="qcurve" smooth="yes"/>
      <point x="504.0" y="648.0" type="line"/>
      <point x="621.0" y="648.0" type="line" smooth="yes"/>
      <point x="681.0" y="648.0"/>
      <point x="681.0" y="598.0" type="qcurve" smooth="yes"/>
      <point x="681.0" y="498.0" type="line" smooth="yes"/>
      <point x="681.0" y="448.0"/>
      <point x="621.0" y="448.0" type="qcurve" smooth="yes"/>
      <point x="504.0" y="448.0" type="line"/>
      <point x="504.0" y="60.0" type="line" smooth="yes"/>
      <point x="504.0" y="0.0"/>
      <point x="444.0" y="0.0" type="qcurve" smooth="yes"/>
      <point x="284.0" y="0.0" type="line" smooth="yes"/>
      <point x="224.0" y="0.0"/>
      <point x="224.0" y="60.0" type="qcurve" smooth="yes"/>
      <point x="224.0" y="448.0" type="line"/>
    </contour>
    <contour>
      <point x="284.0" y="1204.0" type="line" smooth="yes"/>
      <point x="224.0" y="1204.0"/>
      <point x="224.0" y="1264.0" type="qcurve" smooth="yes"/>
      <point x="224.0" y="1392.0" type="line" smooth="yes"/>
      <point x="224.0" y="1452.0"/>
      <point x="284.0" y="1452.0" type="qcurve" smooth="yes"/>
      <point x="444.0" y="1452.0" type="line" smooth="yes"/>
      <point x="504.0" y="1452.0"/>
      <point x="504.0" y="1392.0" type="qcurve" smooth="yes"/>
      <point x="504.0" y="1264.0" type="line" smooth="yes"/>
      <point x="504.0" y="1204.0"/>
      <point x="444.0" y="1204.0" type="qcurve" smooth="yes"/>
    </contour>
  </outline>
</glyph>
<glyph name="uni0269" format="2">
  <advance width="746"/>
  <unicode hex="0269"/>
  <outline>
    <contour>
      <point x="136.0" y="279.0" type="qcurve" smooth="yes"/>
      <point x="136.0" y="990.0" type="line" smooth="yes"/>
      <point x="136.0" y="1050.0"/>
      <point x="196.0" y="1050.0" type="qcurve" smooth="yes"/>
      <point x="356.0" y="1050.0" type="line" smooth="yes"/>
      <point x="416.0" y="1050.0"/>
      <point x="416.0" y="990.0" type="qcurve" smooth="yes"/>
      <point x="416.0" y="344.0" type="line" smooth="yes"/>
      <point x="416.0" y="242.0"/>
      <point x="458.0" y="163.0"/>
      <point x="503.0" y="163.0" type="qcurve" smooth="yes"/>
      <point x="534.0" y="163.0"/>
      <point x="593.0" y="185.0"/>
      <point x="619.0" y="200.0" type="qcurve" smooth="yes"/>
      <point x="652.0" y="219.0"/>
      <point x="665.0" y="177.0" type="qcurve" smooth="yes"/>
      <point x="698.0" y="72.0" type="line" smooth="yes"/>
      <point x="709.0" y="38.0"/>
      <point x="678.0" y="20.0" type="qcurve" smooth="yes"/>
      <point x="649.0" y="3.0"/>
      <point x="530.0" y="-33.0"/>
      <point x="472.0" y="-33.0" type="qcurve" smooth="yes"/>
      <point x="305.0" y="-33.0"/>
      <point x="136.0" y="99.0"/>
    </contour>
  </outline>
</glyph>
<glyph name="uni0289" format="2">
  <advance width="1372"/>
  <unicode hex="0289"/>
  <outline>
    <contour>
      <point x="107.0" y="448.0" type="line" smooth="yes"/>
      <point x="47.0" y="448.0"/>
      <point x="47.0" y="498.0" type="qcurve" smooth="yes"/>
      <point x="47.0" y="598.0" type="line" smooth="yes"/>
      <point x="47.0" y="648.0"/>
      <point x="107.0" y="648.0" type="qcurve" smooth="yes"/>
      <point x="224.0" y="648.0" type="line"/>
      <point x="224.0" y="990.0" type="line" smooth="yes"/>
      <point x="224.0" y="1050.0"/>
      <point x="284.0" y="1050.0" type="qcurve" smooth="yes"/>
      <point x="444.0" y="1050.0" type="line" smooth="yes"/>
      <point x="504.0" y="1050.0"/>
      <point x="504.0" y="990.0" type="qcurve" smooth="yes"/>
      <point x="504.0" y="648.0" type="line"/>
      <point x="868.0" y="648.0" type="line"/>
      <point x="868.0" y="990.0" type="line" smooth="yes"/>
      <point x="868.0" y="1050.0"/>
      <point x="928.0" y="1050.0" type="qcurve" smooth="yes"/>
      <point x="1088.0" y="1050.0" type="line" smooth="yes"/>
      <point x="1148.0" y="1050.0"/>
      <point x="1148.0" y="990.0" type="qcurve" smooth="yes"/>
      <point x="1148.0" y="648.0" type="line"/>
      <point x="1265.0" y="648.0" type="line" smooth="yes"/>
      <point x="1325.0" y="648.0"/>
      <point x="1325.0" y="598.0" type="qcurve" smooth="yes"/>
      <point x="1325.0" y="498.0" type="line" smooth="yes"/>
      <point x="1325.0" y="448.0"/>
      <point x="1265.0" y="448.0" type="qcurve" smooth="yes"/>
      <point x="1148.0" y="448.0" type="line"/>
      <point x="1148.0" y="60.0" type="line" smooth="yes"/>
      <point x="1148.0" y="0.0"/>
      <point x="1088.0" y="0.0" type="qcurve" smooth="yes"/>
      <point x="930.0" y="0.0" type="line" smooth="yes"/>
      <point x="870.0" y="0.0"/>
      <point x="870.0" y="60.0" type="qcurve" smooth="yes"/>
      <point x="870.0" y="118.0" type="line"/>
      <point x="866.0" y="118.0" type="line"/>
      <point x="820.0" y="39.0"/>
      <point x="678.0" y="-20.0"/>
      <point x="581.0" y="-20.0" type="qcurve" smooth="yes"/>
      <point x="428.0" y="-20.0"/>
      <point x="224.0" y="176.0"/>
      <point x="224.0" y="436.0" type="qcurve" smooth="yes"/>
      <point x="224.0" y="448.0" type="line"/>
    </contour>
    <contour>
      <point x="505.0" y="435.0" type="line" smooth="yes"/>
      <point x="505.0" y="298.0"/>
      <point x="563.0" y="176.0"/>
      <point x="660.0" y="176.0" type="qcurve" smooth="yes"/>
      <point x="754.0" y="176.0"/>
      <point x="855.0" y="311.0"/>
      <point x="862.0" y="448.0" type="qcurve"/>
      <point x="505.0" y="448.0" type="line"/>
    </contour>
  </outline>
</glyph>
<glyph name="caron" format="2">
  <advance width="614"/>
  <unicode hex="02C7"/>
  <outline>
    <contour>
      <point x="13.0" y="1310.0" type="line" smooth="yes"/>
      <point x="-37.0" y="1345.0"/>
      <point x="-8.0" y="1386.0" type="qcurve" smooth="yes"/>
      <point x="17.0" y="1422.0" type="line" smooth="yes"/>
      <point x="47.0" y="1463.0"/>
      <point x="95.0" y="1428.0" type="qcurve" smooth="yes"/>
      <point x="306.0" y="1277.0" type="line"/>
      <point x="308.0" y="1277.0" type="line"/>
      <point x="519.0" y="1428.0" type="line" smooth="yes"/>
      <point x="568.0" y="1463.0"/>
      <point x="597.0" y="1422.0" type="qcurve" smooth="yes"/>
      <point x="622.0" y="1386.0" type="line" smooth="yes"/>
      <point x="651.0" y="1345.0"/>
      <point x="601.0" y="1310.0" type="qcurve" smooth="yes"/>
      <point x="394.0" y="1165.0" type="line" smooth="yes"/>
      <point x="355.0" y="1138.0"/>
      <point x="326.0" y="1138.0" type="qcurve" smooth="yes"/>
      <point x="288.0" y="1138.0" type="line" smooth="yes"/>
      <point x="259.0" y="1138.0"/>
      <point x="220.0" y="1165.0" type="qcurve" smooth="yes"/>
    </contour>
  </outline>
</glyph>
<glyph name="pi" format="2">
  <advance width="1402"/>
  <unicode hex="03C0"/>
  <outline>
    <contour>
      <point x="15.0" y="945.0" type="line" smooth="yes"/>
      <point x="4.036508560180664" y="975.0191040039062"/>
      <point x="48.0" y="998.0" type="qcurve" smooth="yes"/>
      <point x="94.0" y="1022.0"/>
      <point x="218.0" y="1050.0"/>
      <point x="314.0" y="1050.0" type="qcurve" smooth="yes"/>
      <point x="1296.0" y="1050.0" type="line" smooth="yes"/>
      <point x="1355.0" y="1050.0"/>
      <point x="1355.0" y="1000.0" type="qcurve" smooth="yes"/>
      <point x="1355.0" y="900.0" type="line" smooth="yes"/>
      <point x="1355.0" y="850.0"/>
      <point x="1296.0" y="850.0" type="qcurve" smooth="yes"/>
      <point x="1155.0" y="850.0" type="line"/>
      <point x="1155.0" y="275.0" type="line" smooth="yes"/>
      <point x="1155.0" y="224.0"/>
      <point x="1180.0" y="176.0"/>
      <point x="1214.0" y="176.0" type="qcurve" smooth="yes"/>
      <point x="1230.0" y="176.0"/>
      <point x="1267.0" y="186.0" type="qcurve" smooth="yes"/>
      <point x="1303.667724609375" y="196.90122985839844"/>
      <point x="1310.0" y="166.0" type="qcurve" smooth="yes"/>
      <point x="1335.0" y="44.0" type="line" smooth="yes"/>
      <point x="1341.88134765625" y="10.418862342834473"/>
      <point x="1306.0" y="1.0" type="qcurve" smooth="yes"/>
      <point x="1232.0" y="-20.0"/>
      <point x="1133.0" y="-20.0" type="qcurve" smooth="yes"/>
      <point x="1008.0" y="-20.0"/>
      <point x="875.0" y="128.0"/>
      <point x="875.0" y="263.0" type="qcurve" smooth="yes"/>
      <point x="875.0" y="850.0" type="line"/>
      <point x="550.0" y="850.0" type="line"/>
      <point x="550.0" y="60.0" type="line" smooth="yes"/>
      <point x="550.0" y="0.0"/>
      <point x="490.0" y="0.0" type="qcurve" smooth="yes"/>
      <point x="330.0" y="0.0" type="line" smooth="yes"/>
      <point x="270.0" y="0.0"/>
      <point x="270.0" y="60.0" type="qcurve" smooth="yes"/>
      <point x="270.0" y="850.0" type="line"/>
      <point x="226.0" y="850.0"/>
      <point x="149.0" y="833.0"/>
      <point x="117.0" y="818.0" type="qcurve" smooth="yes"/>
      <point x="69.50244903564453" y="795.76708984375"/>
      <point x="57.0" y="830.0" type="qcurve" smooth="yes"/>
    </contour>
  </outline>
</glyph>
<glyph name="afii10058" format="2">
  <advance width="2232"/>
  <unicode hex="0409"/>
  <outline>
    <contour>
      <point x="68.0" y="-10.0" type="qcurve" smooth="yes"/>
      <point x="26.0" y="4.0"/>
      <point x="38.0" y="58.0" type="qcurve" smooth="yes"/>
      <point x="64.0" y="172.0" type="line" smooth="yes"/>
      <point x="76.0" y="225.0"/>
      <point x="127.0" y="210.0" type="qcurve" smooth="yes"/>
      <point x="155.0" y="202.0"/>
      <point x="185.0" y="202.0" type="qcurve" smooth="yes"/>
      <point x="338.0" y="202.0"/>
      <point x="454.0" y="639.0"/>
      <point x="454.0" y="1090.0" type="qcurve" smooth="yes"/>
      <point x="454.0" y="1359.0" type="line" smooth="yes"/>
      <point x="454.0" y="1434.0"/>
      <point x="524.0" y="1434.0" type="qcurve" smooth="yes"/>
      <point x="1264.0" y="1434.0" type="line" smooth="yes"/>
      <point x="1334.0" y="1434.0"/>
      <point x="1334.0" y="1359.0" type="qcurve" smooth="yes"/>
      <point x="1334.0" y="870.0" type="line"/>
      <point x="1489.0" y="870.0" type="line" smooth="yes"/>
      <point x="1859.0" y="870.0"/>
      <point x="2147.0" y="635.0"/>
      <point x="2147.0" y="435.0" type="qcurve" smooth="yes"/>
      <point x="2147.0" y="235.0"/>
      <point x="1859.0" y="0.0"/>
      <point x="1489.0" y="0.0" type="qcurve" smooth="yes"/>
      <point x="1112.0" y="0.0" type="line" smooth="yes"/>
      <point x="1042.0" y="0.0"/>
      <point x="1042.0" y="75.0" type="qcurve" smooth="yes"/>
      <point x="1042.0" y="1186.0" type="line"/>
      <point x="704.0" y="1186.0" type="line"/>
      <point x="704.0" y="1034.0" type="line" smooth="yes"/>
      <point x="704.0" y="439.0"/>
      <point x="470.0" y="-34.0"/>
      <point x="208.0" y="-34.0" type="qcurve" smooth="yes"/>
      <point x="142.0" y="-34.0"/>
    </contour>
    <contour>
      <point x="1334.0" y="244.0" type="line"/>
      <point x="1460.0" y="244.0" type="line" smooth="yes"/>
      <point x="1670.0" y="244.0"/>
      <point x="1835.0" y="315.0"/>
      <point x="1835.0" y="435.0" type="qcurve" smooth="yes"/>
      <point x="1835.0" y="555.0"/>
      <point x="1670.0" y="626.0"/>
      <point x="1460.0" y="626.0" type="qcurve" smooth="yes"/>
      <point x="1334.0" y="626.0" type="line"/>
    </contour>
  </outline>
</glyph>
<glyph name="afii10059" format="2">
  <advance width="2180"/>
  <unicode hex="040A"/>
  <outline>
    <contour>
      <point x="230.0" y="0.0" type="line" smooth="yes"/>
      <point x="160.0" y="0.0"/>
      <point x="160.0" y="75.0" type="qcurve" smooth="yes"/>
      <point x="160.0" y="1359.0" type="line" smooth="yes"/>
      <point x="160.0" y="1434.0"/>
      <point x="230.0" y="1434.0" type="qcurve" smooth="yes"/>
      <point x="382.0" y="1434.0" type="line" smooth="yes"/>
      <point x="452.0" y="1434.0"/>
      <point x="452.0" y="1359.0" type="qcurve" smooth="yes"/>
      <point x="452.0" y="870.0" type="line"/>
      <point x="990.0" y="870.0" type="line"/>
      <point x="990.0" y="1359.0" type="line" smooth="yes"/>
      <point x="990.0" y="1434.0"/>
      <point x="1060.0" y="1434.0" type="qcurve" smooth="yes"/>
      <point x="1212.0" y="1434.0" type="line" smooth="yes"/>
      <point x="1282.0" y="1434.0"/>
      <point x="1282.0" y="1359.0" type="qcurve" smooth="yes"/>
      <point x="1282.0" y="870.0" type="line"/>
      <point x="1437.0" y="870.0" type="line" smooth="yes"/>
      <point x="1807.0" y="870.0"/>
      <point x="2095.0" y="635.0"/>
      <point x="2095.0" y="435.0" type="qcurve" smooth="yes"/>
      <point x="2095.0" y="235.0"/>
      <point x="1807.0" y="0.0"/>
      <point x="1437.0" y="0.0" type="qcurve" smooth="yes"/>
      <point x="1060.0" y="0.0" type="line" smooth="yes"/>
      <point x="990.0" y="0.0"/>
      <point x="990.0" y="75.0" type="qcurve" smooth="yes"/>
      <point x="990.0" y="622.0" type="line"/>
      <point x="452.0" y="622.0" type="line"/>
      <point x="452.0" y="75.0" type="line" smooth="yes"/>
      <point x="452.0" y="0.0"/>
      <point x="382.0" y="0.0" type="qcurve" smooth="yes"/>
    </contour>
    <contour>
      <point x="1282.0" y="244.0" type="line"/>
      <point x="1408.0" y="244.0" type="line" smooth="yes"/>
      <point x="1618.0" y="244.0"/>
      <point x="1783.0" y="315.0"/>
      <point x="1783.0" y="435.0" type="qcurve" smooth="yes"/>
      <point x="1783.0" y="555.0"/>
      <point x="1618.0" y="626.0"/>
      <point x="1408.0" y="626.0" type="qcurve" smooth="yes"/>
      <point x="1282.0" y="626.0" type="line"/>
    </contour>
  </outline>
</glyph>
<glyph name="afii10018" format="2">
  <advance width="1370"/>
  <unicode hex="0411"/>
  <outline>
    <contour>
      <point x="230.0" y="0.0" type="line" smooth="yes"/>
      <point x="160.0" y="0.0"/>
      <point x="160.0" y="75.0" type="qcurve" smooth="yes"/>
      <point x="160.0" y="1359.0" type="line" smooth="yes"/>
      <point x="160.0" y="1434.0"/>
      <point x="230.0" y="1434.0" type="qcurve" smooth="yes"/>
      <point x="1079.0" y="1434.0" type="line" smooth="yes"/>
      <point x="1154.0" y="1434.0"/>
      <point x="1154.0" y="1369.0" type="qcurve" smooth="yes"/>
      <point x="1154.0" y="1251.0" type="line" smooth="yes"/>
      <point x="1154.0" y="1186.0"/>
      <point x="1079.0" y="1186.0" type="qcurve" smooth="yes"/>
      <point x="452.0" y="1186.0" type="line"/>
      <point x="452.0" y="876.0" type="line"/>
      <point x="617.0" y="876.0" type="line" smooth="yes"/>
      <point x="987.0" y="876.0"/>
      <point x="1275.0" y="638.0"/>
      <point x="1275.0" y="438.0" type="qcurve" smooth="yes"/>
      <point x="1275.0" y="238.0"/>
      <point x="987.0" y="0.0"/>
      <point x="617.0" y="0.0" type="qcurve" smooth="yes"/>
    </contour>
    <contour>
      <point x="452.0" y="244.0" type="line"/>
      <point x="588.0" y="244.0" type="line" smooth="yes"/>
      <point x="798.0" y="244.0"/>
      <point x="963.0" y="318.0"/>
      <point x="963.0" y="438.0" type="qcurve" smooth="yes"/>
      <point x="963.0" y="558.0"/>
      <point x="798.0" y="632.0"/>
      <point x="588.0" y="632.0" type="qcurve" smooth="yes"/>
      <point x="452.0" y="632.0" type="line"/>
    </contour>
  </outline>
</glyph>
<glyph name="afii10026" format="2">
  <advance width="1492"/>
  <unicode hex="0418"/>
  <outline>
    <contour>
      <point x="230.0" y="0.0" type="line" smooth="yes"/>
      <point x="160.0" y="0.0"/>
      <point x="160.0" y="75.0" type="qcurve" smooth="yes"/>
      <point x="160.0" y="1359.0" type="line" smooth="yes"/>
      <point x="160.0" y="1434.0"/>
      <point x="230.0" y="1434.0" type="qcurve" smooth="yes"/>
      <point x="382.0" y="1434.0" type="line" smooth="yes"/>
      <point x="452.0" y="1434.0"/>
      <point x="452.0" y="1359.0" type="qcurve" smooth="yes"/>
      <point x="452.0" y="570.0" type="line" smooth="yes"/>
      <point x="452.0" y="510.0"/>
      <point x="447.0" y="450.0" type="qcurve"/>
      <point x="454.0" y="450.0" type="line"/>
      <point x="944.0" y="1364.0" type="line" smooth="yes"/>
      <point x="982.0" y="1434.0"/>
      <point x="1074.0" y="1434.0" type="qcurve" smooth="yes"/>
      <point x="1262.0" y="1434.0" type="line" smooth="yes"/>
      <point x="1332.0" y="1434.0"/>
      <point x="1332.0" y="1359.0" type="qcurve" smooth="yes"/>
      <point x="1332.0" y="75.0" type="line" smooth="yes"/>
      <point x="1332.0" y="0.0"/>
      <point x="1262.0" y="0.0" type="qcurve" smooth="yes"/>
      <point x="1110.0" y="0.0" type="line" smooth="yes"/>
      <point x="1040.0" y="0.0"/>
      <point x="1040.0" y="75.0" type="qcurve" smooth="yes"/>
      <point x="1040.0" y="864.0" type="line" smooth="yes"/>
      <point x="1040.0" y="924.0"/>
      <point x="1045.0" y="984.0" type="qcurve"/>
      <point x="1038.0" y="984.0" type="line"/>
      <point x="548.0" y="70.0" type="line" smooth="yes"/>
      <point x="510.0" y="0.0"/>
      <point x="418.0" y="0.0" type="qcurve" smooth="yes"/>
    </contour>
  </outline>
</glyph>
<glyph name="afii10029" format="2">
  <advance width="1494"/>
  <unicode hex="041B"/>
  <outline>
    <contour>
      <point x="68.0" y="-10.0" type="qcurve" smooth="yes"/>
      <point x="26.0" y="4.0"/>
      <point x="38.0" y="58.0" type="qcurve" smooth="yes"/>
      <point x="64.0" y="172.0" type="line" smooth="yes"/>
      <point x="76.0" y="225.0"/>
      <point x="127.0" y="210.0" type="qcurve" smooth="yes"/>
      <point x="155.0" y="202.0"/>
      <point x="185.0" y="202.0" type="qcurve" smooth="yes"/>
      <point x="338.0" y="202.0"/>
      <point x="454.0" y="639.0"/>
      <point x="454.0" y="1090.0" type="qcurve" smooth="yes"/>
      <point x="454.0" y="1359.0" type="line" smooth="yes"/>
      <point x="454.0" y="1434.0"/>
      <point x="524.0" y="1434.0" type="qcurve" smooth="yes"/>
      <point x="1264.0" y="1434.0" type="line" smooth="yes"/>
      <point x="1334.0" y="1434.0"/>
      <point x="1334.0" y="1359.0" type="qcurve" smooth="yes"/>
      <point x="1334.0" y="75.0" type="line" smooth="yes"/>
      <point x="1334.0" y="0.0"/>
      <point x="1264.0" y="0.0" type="qcurve" smooth="yes"/>
      <point x="1112.0" y="0.0" type="line" smooth="yes"/>
      <point x="1042.0" y="0.0"/>
      <point x="1042.0" y="75.0" type="qcurve" smooth="yes"/>
      <point x="1042.0" y="1186.0" type="line"/>
      <point x="704.0" y="1186.0" type="line"/>
      <point x="704.0" y="1034.0" type="line" smooth="yes"/>
      <point x="704.0" y="439.0"/>
      <point x="470.0" y="-34.0"/>
      <point x="208.0" y="-34.0" type="qcurve" smooth="yes"/>
      <point x="142.0" y="-34.0"/>
    </contour>
  </outline>
</glyph>
<glyph name="afii10037" format="2">
  <advance width="1382"/>
  <unicode hex="0423"/>
  <outline>
    <contour>
      <point x="62.0" y="1348.0" type="line" smooth="yes"/>
      <point x="17.0" y="1434.0"/>
      <point x="109.0" y="1434.0" type="qcurve" smooth="yes"/>
      <point x="286.0" y="1434.0" type="line" smooth="yes"/>
      <point x="344.0" y="1434.0"/>
      <point x="378.0" y="1365.0" type="qcurve" smooth="yes"/>
      <point x="676.0" y="754.0" type="line" smooth="yes"/>
      <point x="705.0" y="695.0"/>
      <point x="735.0" y="579.0"/>
      <point x="743.0" y="524.0" type="qcurve"/>
      <point x="747.0" y="524.0" type="line"/>
      <point x="756.0" y="582.0"/>
      <point x="780.0" y="697.0"/>
      <point x="800.0" y="754.0" type="qcurve" smooth="yes"/>
      <point x="1021.0" y="1365.0" type="line" smooth="yes"/>
      <point x="1046.0" y="1434.0"/>
      <point x="1113.0" y="1434.0" type="qcurve" smooth="yes"/>
      <point x="1285.0" y="1434.0" type="line" smooth="yes"/>
      <point x="1367.0" y="1434.0"/>
      <point x="1332.0" y="1348.0" type="qcurve" smooth="yes"/>
      <point x="915.0" y="331.0" type="line" smooth="yes"/>
      <point x="824.0" y="109.0"/>
      <point x="630.0" y="-34.0"/>
      <point x="452.0" y="-34.0" type="qcurve" smooth="yes"/>
      <point x="323.0" y="-34.0"/>
      <point x="245.0" y="0.0" type="qcurve" smooth="yes"/>
      <point x="184.0" y="27.0"/>
      <point x="199.0" y="78.0" type="qcurve" smooth="yes"/>
      <point x="236.0" y="207.0" type="line" smooth="yes"/>
      <point x="249.0" y="252.0"/>
      <point x="310.0" y="227.0" type="qcurve" smooth="yes"/>
      <point x="372.0" y="202.0"/>
      <point x="419.0" y="202.0" type="qcurve" smooth="yes"/>
      <point x="477.0" y="202.0"/>
      <point x="565.0" y="234.0"/>
      <point x="589.0" y="291.0" type="qcurve" smooth="yes"/>
      <point x="603.0" y="324.0" type="line"/>
    </contour>
  </outline>
</glyph>
<glyph name="afii10041" format="2">
  <advance width="1308"/>
  <unicode hex="0427"/>
  <outline>
    <contour>
      <point x="112.0" y="932.0" type="qcurve" smooth="yes"/>
      <point x="112.0" y="1359.0" type="line" smooth="yes"/>
      <point x="112.0" y="1434.0"/>
      <point x="182.0" y="1434.0" type="qcurve" smooth="yes"/>
      <point x="334.0" y="1434.0" type="line" smooth="yes"/>
      <point x="404.0" y="1434.0"/>
      <point x="404.0" y="1359.0" type="qcurve" smooth="yes"/>
      <point x="404.0" y="980.0" type="line" smooth="yes"/>
      <point x="404.0" y="858.0"/>
      <point x="492.0" y="760.0"/>
      <point x="569.0" y="760.0" type="qcurve" smooth="yes"/>
      <point x="641.0" y="760.0"/>
      <point x="768.0" y="786.0"/>
      <point x="856.0" y="827.0" type="qcurve"/>
      <point x="856.0" y="1359.0" type="line" smooth="yes"/>
      <point x="856.0" y="1434.0"/>
      <point x="926.0" y="1434.0" type="qcurve" smooth="yes"/>
      <point x="1078.0" y="1434.0" type="line" smooth="yes"/>
      <point x="1148.0" y="1434.0"/>
      <point x="1148.0" y="1359.0" type="qcurve" smooth="yes"/>
      <point x="1148.0" y="75.0" type="line" smooth="yes"/>
      <point x="1148.0" y="0.0"/>
      <point x="1078.0" y="0.0" type="qcurve" smooth="yes"/>
      <point x="926.0" y="0.0" type="line" smooth="yes"/>
      <point x="856.0" y="0.0"/>
      <point x="856.0" y="75.0" type="qcurve" smooth="yes"/>
      <point x="856.0" y="491.0" type="line" smooth="yes"/>
      <point x="856.0" y="551.0"/>
      <point x="861.0" y="611.0" type="qcurve"/>
      <point x="854.0" y="611.0" type="line"/>
      <point x="782.0" y="574.0"/>
      <point x="580.0" y="524.0"/>
      <point x="495.0" y="524.0" type="qcurve" smooth="yes"/>
      <point x="320.0" y="524.0"/>
      <point x="112.0" y="768.0"/>
    </contour>
  </outline>
</glyph>
<glyph name="afii10048" format="2">
  <advance width="2096"/>
  <unicode hex="042E"/>
  <outline>
    <contour>
      <point x="230.0" y="0.0" type="line" smooth="yes"/>
      <point x="160.0" y="0.0"/>
      <point x="160.0" y="75.0" type="qcurve" smooth="yes"/>
      <point x="160.0" y="1359.0" type="line" smooth="yes"/>
      <point x="160.0" y="1434.0"/>
      <point x="230.0" y="1434.0" type="qcurve" smooth="yes"/>
      <point x="382.0" y="1434.0" type="line" smooth="yes"/>
      <point x="452.0" y="1434.0"/>
      <point x="452.0" y="1359.0" type="qcurve" smooth="yes"/>
      <point x="452.0" y="870.0" type="line"/>
      <point x="648.0" y="870.0" type="line"/>
      <point x="656.0" y="1080.0"/>
      <point x="994.0" y="1468.0"/>
      <point x="1324.0" y="1468.0" type="qcurve" smooth="yes"/>
      <point x="1654.0" y="1468.0"/>
      <point x="2010.0" y="1062.0"/>
      <point x="2010.0" y="717.0" type="qcurve" smooth="yes"/>
      <point x="2010.0" y="372.0"/>
      <point x="1654.0" y="-34.0"/>
      <point x="1324.0" y="-34.0" type="qcurve" smooth="yes"/>
      <point x="994.0" y="-34.0"/>
      <point x="655.0" y="355.0"/>
      <point x="642.0" y="622.0" type="qcurve"/>
      <point x="452.0" y="622.0" type="line"/>
      <point x="452.0" y="75.0" type="line" smooth="yes"/>
      <point x="452.0" y="0.0"/>
      <point x="382.0" y="0.0" type="qcurve" smooth="yes"/>
    </contour>
    <contour>
      <point x="950.0" y="717.0" type="qcurve" smooth="yes"/>
      <point x="950.0" y="467.0"/>
      <point x="1129.0" y="202.0"/>
      <point x="1324.0" y="202.0" type="qcurve" smooth="yes"/>
      <point x="1519.0" y="202.0"/>
      <point x="1698.0" y="467.0"/>
      <point x="1698.0" y="717.0" type="qcurve" smooth="yes"/>
      <point x="1698.0" y="967.0"/>
      <point x="1519.0" y="1232.0"/>
      <point x="1324.0" y="1232.0" type="qcurve" smooth="yes"/>
      <point x="1129.0" y="1232.0"/>
      <point x="950.0" y="967.0"/>
    </contour>
  </outline>
</glyph>
<glyph name="afii10068" format="2">
  <advance width="916"/>
  <unicode hex="0433"/>
  <outline>
    <contour>
      <point x="196.0" y="0.0" type="line" smooth="yes"/>
      <point x="136.0" y="0.0"/>
      <point x="136.0" y="60.0" type="qcurve" smooth="yes"/>
      <point x="136.0" y="990.0" type="line" smooth="yes"/>
      <point x="136.0" y="1050.0"/>
      <point x="196.0" y="1050.0" type="qcurve" smooth="yes"/>
      <point x="826.0" y="1050.0" type="line" smooth="yes"/>
      <point x="886.0" y="1050.0"/>
      <point x="886.0" y="1000.0" type="qcurve" smooth="yes"/>
      <point x="886.0" y="900.0" type="line" smooth="yes"/>
      <point x="886.0" y="850.0"/>
      <point x="826.0" y="850.0" type="qcurve" smooth="yes"/>
      <point x="416.0" y="850.0" type="line"/>
      <point x="416.0" y="60.0" type="line" smooth="yes"/>
      <point x="416.0" y="0.0"/>
      <point x="356.0" y="0.0" type="qcurve" smooth="yes"/>
    </contour>
  </outline>
</glyph>
<glyph name="afii10069" format="2">
  <advance width="1222"/>
  <unicode hex="0434"/>
  <outline>
    <contour>
      <point x="97.0" y="-310.0" type="line" smooth="yes"/>
      <point x="42.0" y="-310.0"/>
      <point x="42.0" y="-250.0" type="qcurve" smooth="yes"/>
      <point x="42.0" y="140.0" type="line" smooth="yes"/>
      <point x="42.0" y="200.0"/>
      <point x="102.0" y="200.0" type="qcurve" smooth="yes"/>
      <point x="133.0" y="200.0" type="line"/>
      <point x="229.0" y="258.0"/>
      <point x="308.0" y="552.0"/>
      <point x="308.0" y="774.0" type="qcurve" smooth="yes"/>
      <point x="308.0" y="990.0" type="line" smooth="yes"/>
      <point x="308.0" y="1050.0"/>
      <point x="368.0" y="1050.0" type="qcurve" smooth="yes"/>
      <point x="964.0" y="1050.0" type="line" smooth="yes"/>
      <point x="1024.0" y="1050.0"/>
      <point x="1024.0" y="990.0" type="qcurve" smooth="yes"/>
      <point x="1024.0" y="200.0" type="line"/>
      <point x="1110.0" y="200.0" type="line" smooth="yes"/>
      <point x="1170.0" y="200.0"/>
      <point x="1170.0" y="140.0" type="qcurve" smooth="yes"/>
      <point x="1170.0" y="-250.0" type="line" smooth="yes"/>
      <point x="1170.0" y="-310.0"/>
      <point x="1115.0" y="-310.0" type="qcurve" smooth="yes"/>
      <point x="995.0" y="-310.0" type="line" smooth="yes"/>
      <point x="940.0" y="-310.0"/>
      <point x="940.0" y="-250.0" type="qcurve" smooth="yes"/>
      <point x="940.0" y="0.0" type="line"/>
      <point x="272.0" y="0.0" type="line"/>
      <point x="272.0" y="-250.0" type="line" smooth="yes"/>
      <point x="272.0" y="-310.0"/>
      <point x="217.0" y="-310.0" type="qcurve" smooth="yes"/>
    </contour>
    <contour>
      <point x="419.0" y="200.0" type="qcurve"/>
      <point x="744.0" y="200.0" type="line"/>
      <point x="744.0" y="850.0" type="line"/>
      <point x="538.0" y="850.0" type="line"/>
      <point x="538.0" y="723.0" type="line" smooth="yes"/>
      <point x="538.0" y="492.0"/>
      <point x="469.0" y="234.0"/>
    </contour>
  </outline>
</glyph>
<glyph name="afii10076" format="2">
  <advance width="1085"/>
  <unicode hex="043A"/>
  <outline>
    <contour>
      <point x="196.0" y="0.0" type="line" smooth="yes"/>
      <point x="136.0" y="0.0"/>
      <point x="136.0" y="60.0" type="qcurve" smooth="yes"/>
      <point x="136.0" y="990.0" type="line" smooth="yes"/>
      <point x="136.0" y="1050.0"/>
      <point x="196.0" y="1050.0" type="qcurve" smooth="yes"/>
      <point x="356.0" y="1050.0" type="line" smooth="yes"/>
      <point x="416.0" y="1050.0"/>
      <point x="416.0" y="990.0" type="qcurve" smooth="yes"/>
      <point x="416.0" y="648.0" type="line"/>
      <point x="439.0" y="648.0" type="line" smooth="yes"/>
      <point x="488.0" y="648.0"/>
      <point x="562.0" y="728.0"/>
      <point x="590.0" y="776.0" type="qcurve" smooth="yes"/>
      <point x="728.0" y="1009.0" type="line" smooth="yes"/>
      <point x="752.0" y="1050.0"/>
      <point x="806.0" y="1050.0" type="qcurve" smooth="yes"/>
      <point x="970.0" y="1050.0" type="line" smooth="yes"/>
      <point x="1048.0" y="1050.0"/>
      <point x="1001.0" y="976.0" type="qcurve" smooth="yes"/>
      <point x="837.0" y="716.0" type="line" smooth="yes"/>
      <point x="800.0" y="657.0"/>
      <point x="697.0" y="566.0"/>
      <point x="647.0" y="554.0" type="qcurve"/>
      <point x="647.0" y="552.0" type="line"/>
      <point x="721.0" y="536.0"/>
      <point x="797.0" y="465.0"/>
      <point x="851.0" y="372.0" type="qcurve" smooth="yes"/>
      <point x="1024.0" y="74.0" type="line" smooth="yes"/>
      <point x="1067.0" y="0.0"/>
      <point x="993.0" y="0.0" type="qcurve" smooth="yes"/>
      <point x="822.0" y="0.0" type="line" smooth="yes"/>
      <point x="768.0" y="-0.0"/>
      <point x="740.0" y="52.0" type="qcurve" smooth="yes"/>
      <point x="585.0" y="338.0" type="line" smooth="yes"/>
      <point x="566.0" y="373.0"/>
      <point x="486.0" y="448.0"/>
      <point x="440.0" y="448.0" type="qcurve" smooth="yes"/>
      <point x="416.0" y="448.0" type="line"/>
      <point x="416.0" y="60.0" type="line" smooth="yes"/>
      <point x="416.0" y="0.0"/>
      <point x="356.0" y="0.0" type="qcurve" smooth="yes"/>
    </contour>
  </outline>
</glyph>
<glyph name="afii10078" format="2">
  <advance width="1500"/>
  <unicode hex="043C"/>
  <outline>
    <contour>
      <point x="196.0" y="0.0" type="line" smooth="yes"/>
      <point x="136.0" y="0.0"/>
      <point x="136.0" y="60.0" type="qcurve" smooth="yes"/>
      <point x="136.0" y="990.0" type="line" smooth="yes"/>
      <point x="136.0" y="1050.0"/>
      <point x="196.0" y="1050.0" type="qcurve" smooth="yes"/>
      <point x="465.0" y="1050.0" type="line" smooth="yes"/>
      <point x="531.0" y="1050.0"/>
      <point x="550.0" y="985.0" type="qcurve" smooth="yes"/>
      <point x="719.0" y="394.0" type="line" smooth="yes"/>
      <point x="729.0" y="359.0"/>
      <point x="748.0" y="264.0"/>
      <point x="748.0" y="235.0" type="qcurve"/>
      <point x="752.0" y="235.0" type="line"/>
      <point x="752.0" y="264.0"/>
      <point x="771.0" y="359.0"/>
      <point x="781.0" y="394.0" type="qcurve" smooth="yes"/>
      <point x="950.0" y="985.0" type="line" smooth="yes"/>
      <point x="969.0" y="1050.0"/>
      <point x="1035.0" y="1050.0" type="qcurve" smooth="yes"/>
      <point x="1304.0" y="1050.0" type="line" smooth="yes"/>
      <point x="1364.0" y="1050.0"/>
      <point x="1364.0" y="990.0" type="qcurve" smooth="yes"/>
      <point x="1364.0" y="60.0" type="line" smooth="yes"/>
      <point x="1364.0" y="0.0"/>
      <point x="1304.0" y="0.0" type="qcurve" smooth="yes"/>
      <point x="1144.0" y="0.0" type="line" smooth="yes"/>
      <point x="1084.0" y="0.0"/>
      <point x="1084.0" y="60.0" type="qcurve" smooth="yes"/>
      <point x="1084.0" y="565.0" type="line" smooth="yes"/>
      <point x="1084.0" y="606.0"/>
      <point x="1088.0" y="645.0" type="qcurve"/>
      <point x="1084.0" y="645.0" type="line"/>
      <point x="911.0" y="61.0" type="line" smooth="yes"/>
      <point x="893.0" y="0.0"/>
      <point x="857.0" y="0.0" type="qcurve" smooth="yes"/>
      <point x="643.0" y="0.0" type="line" smooth="yes"/>
      <point x="607.0" y="0.0"/>
      <point x="589.0" y="61.0" type="qcurve" smooth="yes"/>
      <point x="416.0" y="645.0" type="line"/>
      <point x="412.0" y="645.0" type="line"/>
      <point x="416.0" y="606.0"/>
      <point x="416.0" y="565.0" type="qcurve" smooth="yes"/>
      <point x="416.0" y="60.0" type="line" smooth="yes"/>
      <point x="416.0" y="0.0"/>
      <point x="356.0" y="0.0" type="qcurve" smooth="yes"/>
    </contour>
  </outline>
</glyph>
<glyph name="afii10081" format="2">
  <advance width="1184"/>
  <unicode hex="043F"/>
  <outline>
    <contour>
      <point x="196.0" y="0.0" type="line" smooth="yes"/>
      <point x="136.0" y="0.0"/>
      <point x="136.0" y="60.0" type="qcurve" smooth="yes"/>
      <point x="136.0" y="990.0" type="line" smooth="yes"/>
      <point x="136.0" y="1050.0"/>
      <point x="196.0" y="1050.0" type="qcurve" smooth="yes"/>
      <point x="988.0" y="1050.0" type="line" smooth="yes"/>
      <point x="1048.0" y="1050.0"/>
      <point x="1048.0" y="990.0" type="qcurve" smooth="yes"/>
      <point x="1048.0" y="60.0" type="line" smooth="yes"/>
      <point x="1048.0" y="0.0"/>
      <point x="988.0" y="0.0" type="qcurve" smooth="yes"/>
      <point x="828.0" y="0.0" type="line" smooth="yes"/>
      <point x="768.0" y="0.0"/>
      <point x="768.0" y="60.0" type="qcurve" smooth="yes"/>
      <point x="768.0" y="850.0" type="line"/>
      <point x="416.0" y="850.0" type="line"/>
      <point x="416.0" y="60.0" type="line" smooth="yes"/>
      <point x="416.0" y="0.0"/>
      <point x="356.0" y="0.0" type="qcurve" smooth="yes"/>
    </contour>
  </outline>
</glyph>
<glyph name="afii10092" format="2">
  <advance width="1310"/>
  <unicode hex="044A"/>
  <outline>
    <contour>
      <point x="107.0" y="850.0" type="line" smooth="yes"/>
      <point x="47.0" y="850.0"/>
      <point x="47.0" y="900.0" type="qcurve" smooth="yes"/>
      <point x="47.0" y="1000.0" type="line" smooth="yes"/>
      <point x="47.0" y="1050.0"/>
      <point x="107.0" y="1050.0" type="qcurve" smooth="yes"/>
      <point x="604.0" y="1050.0" type="line" smooth="yes"/>
      <point x="664.0" y="1050.0"/>
      <point x="664.0" y="990.0" type="qcurve" smooth="yes"/>
      <point x="664.0" y="648.0" type="line"/>
      <point x="851.0" y="648.0" type="line" smooth="yes"/>
      <point x="1091.0" y="648.0"/>
      <point x="1240.0" y="454.0"/>
      <point x="1240.0" y="324.0" type="qcurve" smooth="yes"/>
      <point x="1240.0" y="194.0"/>
      <point x="1091.0" y="0.0"/>
      <point x="851.0" y="0.0" type="qcurve" smooth="yes"/>
      <point x="444.0" y="0.0" type="line" smooth="yes"/>
      <point x="384.0" y="0.0"/>
      <point x="384.0" y="60.0" type="qcurve" smooth="yes"/>
      <point x="384.0" y="850.0" type="line"/>
    </contour>
    <contour>
      <point x="664.0" y="196.0" type="line"/>
      <point x="733.0" y="196.0" type="line" smooth="yes"/>
      <point x="853.0" y="196.0"/>
      <point x="944.0" y="254.0"/>
      <point x="944.0" y="324.0" type="qcurve" smooth="yes"/>
      <point x="944.0" y="394.0"/>
      <point x="853.0" y="452.0"/>
      <point x="733.0" y="452.0" type="qcurve" smooth="yes"/>
      <point x="664.0" y="452.0" type="line"/>
    </contour>
  </outline>
</glyph>
<glyph name="afii10146" format="2">
  <advance width="1634"/>
  <unicode hex="0462"/>
  <outline>
    <contour>
      <point x="111.0" y="1028.0" type="line" smooth="yes"/>
      <point x="36.0" y="1028.0"/>
      <point x="36.0" y="1093.0" type="qcurve" smooth="yes"/>
      <point x="36.0" y="1211.0" type="line" smooth="yes"/>
      <point x="36.0" y="1276.0"/>
      <point x="111.0" y="1276.0" type="qcurve" smooth="yes"/>
      <point x="444.0" y="1276.0" type="line"/>
      <point x="444.0" y="1359.0" type="line" smooth="yes"/>
      <point x="444.0" y="1434.0"/>
      <point x="514.0" y="1434.0" type="qcurve" smooth="yes"/>
      <point x="666.0" y="1434.0" type="line" smooth="yes"/>
      <point x="736.0" y="1434.0"/>
      <point x="736.0" y="1359.0" type="qcurve" smooth="yes"/>
      <point x="736.0" y="1276.0" type="line"/>
      <point x="1069.0" y="1276.0" type="line" smooth="yes"/>
      <point x="1144.0" y="1276.0"/>
      <point x="1144.0" y="1211.0" type="qcurve" smooth="yes"/>
      <point x="1144.0" y="1093.0" type="line" smooth="yes"/>
      <point x="1144.0" y="1028.0"/>
      <point x="1069.0" y="1028.0" type="qcurve" smooth="yes"/>
      <point x="736.0" y="1028.0" type="line"/>
      <point x="736.0" y="870.0" type="line"/>
      <point x="891.0" y="870.0" type="line" smooth="yes"/>
      <point x="1261.0" y="870.0"/>
      <point x="1549.0" y="635.0"/>
      <point x="1549.0" y="435.0" type="qcurve" smooth="yes"/>
      <point x="1549.0" y="235.0"/>
      <point x="1261.0" y="0.0"/>
      <point x="891.0" y="0.0" type="qcurve" smooth="yes"/>
      <point x="514.0" y="0.0" type="line" smooth="yes"/>
      <point x="444.0" y="0.0"/>
      <point x="444.0" y="75.0" type="qcurve" smooth="yes"/>
      <point x="444.0" y="1028.0" type="line"/>
    </contour>
    <contour>
      <point x="736.0" y="244.0" type="line"/>
      <point x="862.0" y="244.0" type="line" smooth="yes"/>
      <point x="1072.0" y="244.0"/>
      <point x="1237.0" y="315.0"/>
      <point x="1237.0" y="435.0" type="qcurve" smooth="yes"/>
      <point x="1237.0" y="555.0"/>
      <point x="1072.0" y="626.0"/>
      <point x="862.0" y="626.0" type="qcurve" smooth="yes"/>
      <point x="736.0" y="626.0" type="line"/>
    </contour>
  </outline>
</glyph>
<glyph name="afii10147" format="2">
  <advance width="1544"/>
  <unicode hex="0472"/>
  <outline>
    <contour>
      <point x="86.0" y="717.0" type="qcurve" smooth="yes"/>
      <point x="86.0" y="1062.0"/>
      <point x="442.0" y="1468.0"/>
      <point x="772.0" y="1468.0" type="qcurve" smooth="yes"/>
      <point x="1102.0" y="1468.0"/>
      <point x="1458.0" y="1062.0"/>
      <point x="1458.0" y="717.0" type="qcurve" smooth="yes"/>
      <point x="1458.0" y="372.0"/>
      <point x="1102.0" y="-34.0"/>
      <point x="772.0" y="-34.0" type="qcurve" smooth="yes"/>
      <point x="442.0" y="-34.0"/>
      <point x="86.0" y="372.0"/>
    </contour>
    <contour>
      <point x="402.0" y="622.0" type="line"/>
      <point x="408.0" y="454.0"/>
      <point x="577.0" y="202.0"/>
      <point x="772.0" y="202.0" type="qcurve" smooth="yes"/>
      <point x="967.0" y="202.0"/>
      <point x="1136.0" y="454.0"/>
      <point x="1142.0" y="622.0" type="qcurve"/>
    </contour>
    <contour>
      <point x="408.0" y="870.0" type="qcurve"/>
      <point x="1136.0" y="870.0" type="line"/>
      <point x="1128.0" y="986.0"/>
      <point x="967.0" y="1232.0"/>
      <point x="772.0" y="1232.0" type="qcurve" smooth="yes"/>
      <point x="577.0" y="1232.0"/>
      <point x="416.0" y="986.0"/>
    </contour>
  </outline>
</glyph>
<glyph name="uni0498" format="2">
  <advance width="1354"/>
  <unicode hex="0498"/>
  <outline>
    <contour>
      <point x="124.0" y="150.0" type="qcurve" smooth="yes"/>
      <point x="74.0" y="207.0"/>
      <point x="115.0" y="249.0" type="qcurve" smooth="yes"/>
      <point x="211.0" y="348.0" type="line" smooth="yes"/>
      <point x="253.0" y="392.0"/>
      <point x="321.0" y="331.0" type="qcurve" smooth="yes"/>
      <point x="369.0" y="288.0"/>
      <point x="519.0" y="202.0"/>
      <point x="642.0" y="202.0" type="qcurve" smooth="yes"/>
      <point x="759.0" y="202.0"/>
      <point x="938.0" y="288.0"/>
      <point x="938.0" y="414.0" type="qcurve" smooth="yes"/>
      <point x="938.0" y="540.0"/>
      <point x="789.0" y="636.0"/>
      <point x="666.0" y="636.0" type="qcurve" smooth="yes"/>
      <point x="500.0" y="636.0" type="line" smooth="yes"/>
      <point x="425.0" y="636.0"/>
      <point x="425.0" y="699.0" type="qcurve" smooth="yes"/>
      <point x="425.0" y="807.0" type="line" smooth="yes"/>
      <point x="425.0" y="872.0"/>
      <point x="500.0" y="872.0" type="qcurve" smooth="yes"/>
      <point x="624.0" y="872.0" type="line" smooth="yes"/>
      <point x="793.0" y="872.0"/>
      <point x="903.0" y="978.0"/>
      <point x="903.0" y="1062.0" type="qcurve" smooth="yes"/>
      <point x="903.0" y="1149.0"/>
      <point x="778.0" y="1232.0"/>
      <point x="642.0" y="1232.0" type="qcurve" smooth="yes"/>
      <point x="537.0" y="1232.0"/>
      <point x="380.0" y="1167.0"/>
      <point x="341.0" y="1131.0" type="qcurve" smooth="yes"/>
      <point x="276.0" y="1072.0"/>
      <point x="230.0" y="1122.0" type="qcurve" smooth="yes"/>
      <point x="147.0" y="1213.0" type="line" smooth="yes"/>
      <point x="100.0" y="1264.0"/>
      <point x="160.0" y="1313.0" type="qcurve" smooth="yes"/>
      <point x="267.0" y="1401.0"/>
      <point x="504.0" y="1468.0"/>
      <point x="652.0" y="1468.0" type="qcurve" smooth="yes"/>
      <point x="922.0" y="1468.0"/>
      <point x="1199.0" y="1260.0"/>
      <point x="1199.0" y="1092.0" type="qcurve" smooth="yes"/>
      <point x="1199.0" y="948.0"/>
      <point x="1044.0" y="795.0"/>
      <point x="931.0" y="767.0" type="qcurve"/>
      <point x="931.0" y="763.0" type="line"/>
      <point x="1056.0" y="750.0"/>
      <point x="1250.0" y="552.0"/>
      <point x="1250.0" y="397.0" type="qcurve" smooth="yes"/>
      <point x="1250.0" y="194.0"/>
      <point x="953.0" y="-15.0"/>
      <point x="730.0" y="-31.0" type="qcurve"/>
      <point x="696.0" y="-76.0"/>
      <point x="653.0" y="-166.0"/>
      <point x="653.0" y="-202.0" type="qcurve" smooth="yes"/>
      <point x="653.0" y="-225.0"/>
      <point x="675.0" y="-250.0"/>
      <point x="697.0" y="-250.0" type="qcurve" smooth="yes"/>
      <point x="724.0" y="-250.0"/>
      <point x="747.0" y="-247.0" type="qcurve" smooth="yes"/>
      <point x="783.0" y="-241.0"/>
      <point x="787.0" y="-273.0" type="qcurve" smooth="yes"/>
      <point x="799.0" y="-368.0" type="line" smooth="yes"/>
      <point x="803.0" y="-400.0"/>
      <point x="763.0" y="-408.0" type="qcurve" smooth="yes"/>
      <point x="712.0" y="-417.0"/>
      <point x="639.0" y="-417.0" type="qcurve" smooth="yes"/>
      <point x="529.0" y="-417.0"/>
      <point x="438.0" y="-324.0"/>
      <point x="438.0" y="-266.0" type="qcurve" smooth="yes"/>
      <point x="438.0" y="-206.0"/>
      <point x="480.0" y="-104.0"/>
      <point x="527.0" y="-30.0" type="qcurve"/>
      <point x="398.0" y="-20.0"/>
      <point x="200.0" y="62.0"/>
    </contour>
  </outline>
</glyph>
<glyph name="uni04A5" format="2">
  <advance width="1530"/>
  <unicode hex="04A5"/>
  <outline>
    <contour>
      <point x="196.0" y="0.0" type="line" smooth="yes"/>
      <point x="136.0" y="0.0"/>
      <point x="136.0" y="60.0" type="qcurve" smooth="yes"/>
      <point x="136.0" y="990.0" type="line" smooth="yes"/>
      <point x="136.0" y="1050.0"/>
      <point x="196.0" y="1050.0" type="qcurve" smooth="yes"/>
      <point x="356.0" y="1050.0" type="line" smooth="yes"/>
      <point x="416.0" y="1050.0"/>
      <point x="416.0" y="990.0" type="qcurve" smooth="yes"/>
      <point x="416.0" y="648.0" type="line"/>
      <point x="776.0" y="648.0" type="line"/>
      <point x="776.0" y="990.0" type="line" smooth="yes"/>
      <point x="776.0" y="1050.0"/>
      <point x="836.0" y="1050.0" type="qcurve" smooth="yes"/>
      <point x="1440.0" y="1050.0" type="line" smooth="yes"/>
      <point x="1500.0" y="1050.0"/>
      <point x="1500.0" y="1000.0" type="qcurve" smooth="yes"/>
      <point x="1500.0" y="900.0" type="line" smooth="yes"/>
      <point x="1500.0" y="850.0"/>
      <point x="1440.0" y="850.0" type="qcurve" smooth="yes"/>
      <point x="1056.0" y="850.0" type="line"/>
      <point x="1056.0" y="60.0" type="line" smooth="yes"/>
      <point x="1056.0" y="0.0"/>
      <point x="996.0" y="0.0" type="qcurve" smooth="yes"/>
      <point x="836.0" y="0.0" type="line" smooth="yes"/>
      <point x="776.0" y="0.0"/>
      <point x="776.0" y="60.0" type="qcurve" smooth="yes"/>
      <point x="776.0" y="448.0" type="line"/>
      <point x="416.0" y="448.0" type="line"/>
      <point x="416.0" y="60.0" type="line" smooth="yes"/>
      <point x="416.0" y="0.0"/>
      <point x="356.0" y="0.0" type="qcurve" smooth="yes"/>
    </contour>
  </outline>
</glyph>
<glyph name="uni04B7" format="2">
  <advance width="1192"/>
  <unicode hex="04B7"/>
  <outline>
    <contour>
      <point x="100.0" y="736.0" type="qcurve" smooth="yes"/>
      <point x="100.0" y="990.0" type="line" smooth="yes"/>
      <point x="100.0" y="1050.0"/>
      <point x="160.0" y="1050.0" type="qcurve" smooth="yes"/>
      <point x="320.0" y="1050.0" type="line" smooth="yes"/>
      <point x="380.0" y="1050.0"/>
      <point x="380.0" y="990.0" type="qcurve" smooth="yes"/>
      <point x="380.0" y="724.0" type="line" smooth="yes"/>
      <point x="380.0" y="628.0"/>
      <point x="464.0" y="576.0"/>
      <point x="544.0" y="576.0" type="qcurve" smooth="yes"/>
      <point x="586.0" y="576.0"/>
      <point x="676.0" y="594.0"/>
      <point x="714.0" y="646.0" type="qcurve"/>
      <point x="714.0" y="990.0" type="line" smooth="yes"/>
      <point x="714.0" y="1050.0"/>
      <point x="774.0" y="1050.0" type="qcurve" smooth="yes"/>
      <point x="934.0" y="1050.0" type="line" smooth="yes"/>
      <point x="994.0" y="1050.0"/>
      <point x="994.0" y="990.0" type="qcurve" smooth="yes"/>
      <point x="994.0" y="200.0" type="line"/>
      <point x="1080.0" y="200.0" type="line" smooth="yes"/>
      <point x="1140.0" y="200.0"/>
      <point x="1140.0" y="140.0" type="qcurve" smooth="yes"/>
      <point x="1140.0" y="-250.0" type="line" smooth="yes"/>
      <point x="1140.0" y="-310.0"/>
      <point x="1085.0" y="-310.0" type="qcurve" smooth="yes"/>
      <point x="965.0" y="-310.0" type="line" smooth="yes"/>
      <point x="910.0" y="-310.0"/>
      <point x="910.0" y="-250.0" type="qcurve" smooth="yes"/>
      <point x="910.0" y="0.0" type="line"/>
      <point x="774.0" y="0.0" type="line" smooth="yes"/>
      <point x="714.0" y="0.0"/>
      <point x="714.0" y="60.0" type="qcurve" smooth="yes"/>
      <point x="714.0" y="356.0" type="line" smooth="yes"/>
      <point x="714.0" y="396.0"/>
      <point x="718.0" y="436.0" type="qcurve"/>
      <point x="712.0" y="436.0" type="line"/>
      <point x="652.0" y="406.0"/>
      <point x="484.0" y="380.0"/>
      <point x="432.0" y="380.0" type="qcurve" smooth="yes"/>
      <point x="250.0" y="380.0"/>
      <point x="100.0" y="578.0"/>
    </contour>
  </outline>
</glyph>
<glyph name="uni04BA" format="2">
  <advance width="1312"/>
  <unicode hex="04BA"/>
  <outline>
    <contour>
      <point x="230.0" y="0.0" type="line" smooth="yes"/>
      <point x="160.0" y="0.0"/>
      <point x="160.0" y="75.0" type="qcurve" smooth="yes"/>
      <point x="160.0" y="1359.0" type="line" smooth="yes"/>
      <point x="160.0" y="1434.0"/>
      <point x="230.0" y="1434.0" type="qcurve" smooth="yes"/>
      <point x="382.0" y="1434.0" type="line" smooth="yes"/>
      <point x="452.0" y="1434.0"/>
      <point x="452.0" y="1359.0" type="qcurve" smooth="yes"/>
      <point x="452.0" y="943.0" type="line" smooth="yes"/>
      <point x="452.0" y="883.0"/>
      <point x="447.0" y="823.0" type="qcurve"/>
      <point x="454.0" y="823.0" type="line"/>
      <point x="526.0" y="860.0"/>
      <point x="728.0" y="910.0"/>
      <point x="815.0" y="910.0" type="qcurve" smooth="yes"/>
      <point x="992.0" y="910.0"/>
      <point x="1200.0" y="666.0"/>
      <point x="1200.0" y="502.0" type="qcurve" smooth="yes"/>
      <point x="1200.0" y="75.0" type="line" smooth="yes"/>
      <point x="1200.0" y="0.0"/>
      <point x="1130.0" y="0.0" type="qcurve" smooth="yes"/>
      <point x="978.0" y="0.0" type="line" smooth="yes"/>
      <point x="908.0" y="0.0"/>
      <point x="908.0" y="75.0" type="qcurve" smooth="yes"/>
      <point x="908.0" y="454.0" type="line" smooth="yes"/>
      <point x="908.0" y="576.0"/>
      <point x="820.0" y="674.0"/>
      <point x="741.0" y="674.0" type="qcurve" smooth="yes"/>
      <point x="667.0" y="674.0"/>
      <point x="540.0" y="648.0"/>
      <point x="452.0" y="607.0" type="qcurve"/>
      <point x="452.0" y="75.0" type="line" smooth="yes"/>
      <point x="452.0" y="0.0"/>
      <point x="382.0" y="0.0" type="qcurve" smooth="yes"/>
    </contour>
  </outline>
</glyph>
<glyph name="uni04C4" format="2">
  <advance width="1144"/>
  <unicode hex="04C4"/>
  <outline>
    <contour>
      <point x="196.0" y="0.0" type="line" smooth="yes"/>
      <point x="136.0" y="0.0"/>
      <point x="136.0" y="60.0" type="qcurve" smooth="yes"/>
      <point x="136.0" y="990.0" type="line" smooth="yes"/>
      <point x="136.0" y="1050.0"/>
      <point x="196.0" y="1050.0" type="qcurve" smooth="yes"/>
      <point x="356.0" y="1050.0" type="line" smooth="yes"/>
      <point x="416.0" y="1050.0"/>
      <point x="416.0" y="990.0" type="qcurve" smooth="yes"/>
      <point x="416.0" y="648.0" type="line"/>
      <point x="439.0" y="648.0" type="line" smooth="yes"/>
      <point x="488.0" y="648.0"/>
      <point x="561.0" y="727.0"/>
      <point x="590.0" y="776.0" type="qcurve" smooth="yes"/>
      <point x="728.0" y="1009.0" type="line" smooth="yes"/>
      <point x="752.0" y="1050.0"/>
      <point x="806.0" y="1050.0" type="qcurve" smooth="yes"/>
      <point x="970.0" y="1050.0" type="line" smooth="yes"/>
      <point x="1048.0" y="1050.0"/>
      <point x="1001.0" y="976.0" type="qcurve" smooth="yes"/>
      <point x="837.0" y="716.0" type="line" smooth="yes"/>
      <point x="817.0" y="684.0"/>
      <point x="732.0" y="590.0"/>
      <point x="690.0" y="574.0" type="qcurve"/>
      <point x="690.0" y="572.0" type="line"/>
      <point x="874.0" y="536.0"/>
      <point x="1056.0" y="260.0"/>
      <point x="1056.0" y="68.0" type="qcurve" smooth="yes"/>
      <point x="1056.0" y="-146.0"/>
      <point x="800.0" y="-420.0"/>
      <point x="543.0" y="-420.0" type="qcurve" smooth="yes"/>
      <point x="478.0" y="-420.0"/>
      <point x="399.0" y="-410.0" type="qcurve" smooth="yes"/>
      <point x="365.0" y="-406.0"/>
      <point x="370.0" y="-361.0" type="qcurve" smooth="yes"/>
      <point x="384.0" y="-246.0" type="line" smooth="yes"/>
      <point x="390.0" y="-200.0"/>
      <point x="435.0" y="-213.0" type="qcurve" smooth="yes"/>
      <point x="476.0" y="-224.0"/>
      <point x="537.0" y="-224.0" type="qcurve" smooth="yes"/>
      <point x="652.0" y="-224.0"/>
      <point x="760.0" y="-72.0"/>
      <point x="760.0" y="62.0" type="qcurve" smooth="yes"/>
      <point x="760.0" y="246.0"/>
      <point x="598.0" y="448.0"/>
      <point x="440.0" y="448.0" type="qcurve" smooth="yes"/>
      <point x="416.0" y="448.0" type="line"/>
      <point x="416.0" y="60.0" type="line" smooth="yes"/>
      <point x="416.0" y="0.0"/>
      <point x="356.0" y="0.0" type="qcurve" smooth="yes"/>
    </contour>
  </outline>
</glyph>
<glyph name="uni04C7" format="2">
  <advance width="1442"/>
  <unicode hex="04C7"/>
  <outline>
    <contour>
      <point x="230.0" y="0.0" type="line" smooth="yes"/>
      <point x="160.0" y="0.0"/>
      <point x="160.0" y="75.0" type="qcurve" smooth="yes"/>
      <point x="160.0" y="1359.0" type="line" smooth="yes"/>
      <point x="160.0" y="1434.0"/>
      <point x="230.0" y="1434.0" type="qcurve" smooth="yes"/>
      <point x="382.0" y="1434.0" type="line" smooth="yes"/>
      <point x="452.0" y="1434.0"/>
      <point x="452.0" y="1359.0" type="qcurve" smooth="yes"/>
      <point x="452.0" y="870.0" type="line"/>
      <point x="990.0" y="870.0" type="line"/>
      <point x="990.0" y="1359.0" type="line" smooth="yes"/>
      <point x="990.0" y="1434.0"/>
      <point x="1060.0" y="1434.0" type="qcurve" smooth="yes"/>
      <point x="1212.0" y="1434.0" type="line" smooth="yes"/>
      <point x="1282.0" y="1434.0"/>
      <point x="1282.0" y="1359.0" type="qcurve" smooth="yes"/>
      <point x="1282.0" y="35.0" type="line" smooth="yes"/>
      <point x="1282.0" y="-201.0"/>
      <point x="1092.0" y="-420.0"/>
      <point x="902.0" y="-420.0" type="qcurve" smooth="yes"/>
      <point x="788.0" y="-420.0"/>
      <point x="700.0" y="-389.0" type="qcurve" smooth="yes"/>
      <point x="649.0" y="-371.0"/>
      <point x="662.0" y="-320.0" type="qcurve" smooth="yes"/>
      <point x="694.0" y="-199.0" type="line" smooth="yes"/>
      <point x="709.0" y="-140.0"/>
      <point x="771.0" y="-165.0" type="qcurve" smooth="yes"/>
      <point x="819.0" y="-184.0"/>
      <point x="863.0" y="-184.0" type="qcurve" smooth="yes"/>
      <point x="930.0" y="-184.0"/>
      <point x="990.0" y="-88.0"/>
      <point x="990.0" y="91.0" type="qcurve" smooth="yes"/>
      <point x="990.0" y="622.0" type="line"/>
      <point x="452.0" y="622.0" type="line"/>
      <point x="452.0" y="75.0" type="line" smooth="yes"/>
      <point x="452.0" y="0.0"/>
      <point x="382.0" y="0.0" type="qcurve" smooth="yes"/>
    </contour>
  </outline>
</glyph>
<glyph name="minute" format="2">
  <advance width="540"/>
  <unicode hex="2032"/>
  <outline>
    <contour>
      <point x="164.0" y="894.0" type="line" smooth="yes"/>
      <point x="114.0" y="894.0"/>
      <point x="128.0" y="954.0" type="qcurve" smooth="yes"/>
      <point x="255.0" y="1485.0" type="line" smooth="yes"/>
      <point x="271.0" y="1550.0"/>
      <point x="321.0" y="1550.0" type="qcurve" smooth="yes"/>
      <point x="483.0" y="1550.0" type="line" smooth="yes"/>
      <point x="543.0" y="1550.0"/>
      <point x="519.0" y="1485.0" type="qcurve" smooth="yes"/>
      <point x="326.0" y="954.0" type="line" smooth="yes"/>
      <point x="304.0" y="894.0"/>
      <point x="262.0" y="894.0" type="qcurve" smooth="yes"/>
    </contour>
  </outline>
</glyph>
<glyph name="uni2071" format="2">
  <advance width="410"/>
  <unicode hex="2071"/>
  <outline>
    <contour>
      <point x="146.0" y="1583.0" type="line" smooth="yes"/>
      <point x="105.0" y="1583.0"/>
      <point x="105.0" y="1622.0" type="qcurve" smooth="yes"/>
      <point x="105.0" y="1705.0" type="line" smooth="yes"/>
      <point x="105.0" y="1744.0"/>
      <point x="146.0" y="1744.0" type="qcurve" smooth="yes"/>
      <point x="264.0" y="1744.0" type="line" smooth="yes"/>
      <point x="305.0" y="1744.0"/>
      <point x="305.0" y="1705.0" type="qcurve" smooth="yes"/>
      <point x="305.0" y="1622.0" type="line" smooth="yes"/>
      <point x="305.0" y="1583.0"/>
      <point x="264.0" y="1583.0" type="qcurve" smooth="yes"/>
    </contour>
    <contour>
      <point x="146.0" y="800.0" type="line" smooth="yes"/>
      <point x="105.0" y="800.0"/>
      <point x="105.0" y="839.0" type="qcurve" smooth="yes"/>
      <point x="105.0" y="1444.0" type="line" smooth="yes"/>
      <point x="105.0" y="1482.0"/>
      <point x="146.0" y="1482.0" type="qcurve" smooth="yes"/>
      <point x="264.0" y="1482.0" type="line" smooth="yes"/>
      <point x="305.0" y="1482.0"/>
      <point x="305.0" y="1444.0" type="qcurve" smooth="yes"/>
      <point x="305.0" y="839.0" type="line" smooth="yes"/>
      <point x="305.0" y="800.0"/>
      <point x="264.0" y="800.0" type="qcurve" smooth="yes"/>
    </contour>
  </outline>
</glyph>
<glyph name="uni2076" format="2">
  <advance width="640"/>
  <unicode hex="2076"/>
  <outline>
    <contour>
      <point x="47.0" y="1061.0" type="qcurve" smooth="yes"/>
      <point x="47.0" y="1290.0"/>
      <point x="224.0" y="1468.0"/>
      <point x="350.0" y="1468.0" type="qcurve" smooth="yes"/>
      <point x="414.0" y="1468.0"/>
      <point x="517.0" y="1431.0"/>
      <point x="536.0" y="1415.0" type="qcurve" smooth="yes"/>
      <point x="560.0" y="1395.0"/>
      <point x="546.0" y="1371.0" type="qcurve" smooth="yes"/>
      <point x="510.0" y="1310.0" type="line" smooth="yes"/>
      <point x="497.0" y="1288.0"/>
      <point x="466.0" y="1310.0" type="qcurve" smooth="yes"/>
      <point x="450.0" y="1321.0"/>
      <point x="387.0" y="1341.0"/>
      <point x="353.0" y="1341.0" type="qcurve" smooth="yes"/>
      <point x="296.0" y="1341.0"/>
      <point x="205.0" y="1248.0"/>
      <point x="205.0" y="1132.0" type="qcurve"/>
      <point x="207.0" y="1132.0" type="line"/>
      <point x="232.0" y="1168.0"/>
      <point x="318.0" y="1197.0"/>
      <point x="374.0" y="1197.0" type="qcurve" smooth="yes"/>
      <point x="478.0" y="1197.0"/>
      <point x="595.0" y="1056.0"/>
      <point x="595.0" y="950.0" type="qcurve" smooth="yes"/>
      <point x="595.0" y="832.0"/>
      <point x="458.0" y="694.0"/>
      <point x="331.0" y="694.0" type="qcurve" smooth="yes"/>
      <point x="186.0" y="694.0"/>
      <point x="47.0" y="882.0"/>
    </contour>
    <contour>
      <point x="230.0" y="947.0" type="qcurve" smooth="yes"/>
      <point x="230.0" y="884.0"/>
      <point x="284.0" y="821.0"/>
      <point x="327.0" y="821.0" type="qcurve" smooth="yes"/>
      <point x="373.0" y="821.0"/>
      <point x="429.0" y="877.0"/>
      <point x="429.0" y="951.0" type="qcurve" smooth="yes"/>
      <point x="429.0" y="1013.0"/>
      <point x="379.0" y="1070.0"/>
      <point x="333.0" y="1070.0" type="qcurve" smooth="yes"/>
      <point x="280.0" y="1070.0"/>
      <point x="230.0" y="988.0"/>
    </contour>
  </outline>
</glyph>
<glyph name="uni2078" format="2">
  <advance width="646"/>
  <unicode hex="2078"/>
  <outline>
    <contour>
      <point x="46.0" y="911.0" type="qcurve" smooth="yes"/>
      <point x="46.0" y="1000.0"/>
      <point x="155.0" y="1100.0"/>
      <point x="195.0" y="1110.0" type="qcurve"/>
      <point x="195.0" y="1113.0" type="line"/>
      <point x="151.0" y="1127.0"/>
      <point x="67.0" y="1209.0"/>
      <point x="67.0" y="1270.0" type="qcurve" smooth="yes"/>
      <point x="67.0" y="1360.0"/>
      <point x="204.0" y="1468.0"/>
      <point x="323.0" y="1468.0" type="qcurve" smooth="yes"/>
      <point x="442.0" y="1468.0"/>
      <point x="579.0" y="1360.0"/>
      <point x="579.0" y="1270.0" type="qcurve" smooth="yes"/>
      <point x="579.0" y="1209.0"/>
      <point x="495.0" y="1127.0"/>
      <point x="451.0" y="1113.0" type="qcurve"/>
      <point x="451.0" y="1110.0" type="line"/>
      <point x="491.0" y="1100.0"/>
      <point x="600.0" y="1000.0"/>
      <point x="600.0" y="911.0" type="qcurve" smooth="yes"/>
      <point x="600.0" y="815.0"/>
      <point x="452.0" y="694.0"/>
      <point x="323.0" y="694.0" type="qcurve" smooth="yes"/>
      <point x="194.0" y="694.0"/>
      <point x="46.0" y="815.0"/>
    </contour>
    <contour>
      <point x="212.0" y="928.0" type="qcurve" smooth="yes"/>
      <point x="212.0" y="878.0"/>
      <point x="266.0" y="821.0"/>
      <point x="323.0" y="821.0" type="qcurve" smooth="yes"/>
      <point x="380.0" y="821.0"/>
      <point x="434.0" y="878.0"/>
      <point x="434.0" y="928.0" type="qcurve" smooth="yes"/>
      <point x="434.0" y="968.0"/>
      <point x="378.0" y="1042.0"/>
      <point x="323.0" y="1042.0" type="qcurve" smooth="yes"/>
      <point x="268.0" y="1042.0"/>
      <point x="212.0" y="968.0"/>
    </contour>
    <contour>
      <point x="229.0" y="1263.0" type="qcurve" smooth="yes"/>
      <point x="229.0" y="1228.0"/>
      <point x="276.0" y="1177.0"/>
      <point x="323.0" y="1177.0" type="qcurve" smooth="yes"/>
      <point x="370.0" y="1177.0"/>
      <point x="417.0" y="1228.0"/>
      <point x="417.0" y="1263.0" type="qcurve" smooth="yes"/>
      <point x="417.0" y="1308.0"/>
      <point x="362.0" y="1341.0"/>
      <point x="323.0" y="1341.0" type="qcurve" smooth="yes"/>
      <point x="284.0" y="1341.0"/>
      <point x="229.0" y="1308.0"/>
    </contour>
  </outline>
</glyph>
<glyph name="uni207F" format="2">
  <advance width="842"/>
  <unicode hex="207F"/>
  <outline>
    <contour>
      <point x="146.0" y="800.0" type="line" smooth="yes"/>
      <point x="105.0" y="800.0"/>
      <point x="105.0" y="839.0" type="qcurve" smooth="yes"/>
      <point x="105.0" y="1444.0" type="line" smooth="yes"/>
      <point x="105.0" y="1482.0"/>
      <point x="146.0" y="1482.0" type="qcurve" smooth="yes"/>
      <point x="263.0" y="1482.0" type="line" smooth="yes"/>
      <point x="304.0" y="1482.0"/>
      <point x="304.0" y="1444.0" type="qcurve" smooth="yes"/>
      <point x="304.0" y="1406.0" type="line"/>
      <point x="307.0" y="1406.0" type="line"/>
      <point x="338.0" y="1457.0"/>
      <point x="431.0" y="1496.0"/>
      <point x="493.0" y="1496.0" type="qcurve" smooth="yes"/>
      <point x="599.0" y="1496.0"/>
      <point x="737.0" y="1368.0"/>
      <point x="737.0" y="1199.0" type="qcurve" smooth="yes"/>
      <point x="737.0" y="839.0" type="line" smooth="yes"/>
      <point x="737.0" y="800.0"/>
      <point x="697.0" y="800.0" type="qcurve" smooth="yes"/>
      <point x="578.0" y="800.0" type="line" smooth="yes"/>
      <point x="537.0" y="800.0"/>
      <point x="537.0" y="839.0" type="qcurve" smooth="yes"/>
      <point x="537.0" y="1132.0" type="line" smooth="yes"/>
      <point x="537.0" y="1263.0"/>
      <point x="491.0" y="1340.0"/>
      <point x="439.0" y="1340.0" type="qcurve" smooth="yes"/>
      <point x="368.0" y="1340.0"/>
      <point x="305.0" y="1234.0"/>
      <point x="305.0" y="1075.0" type="qcurve" smooth="yes"/>
      <point x="305.0" y="839.0" type="line" smooth="yes"/>
      <point x="305.0" y="800.0"/>
      <point x="265.0" y="800.0" type="qcurve" smooth="yes"/>
    </contour>
  </outline>
</glyph>
<glyph name="Euro" format="2">
  <advance width="1200"/>
  <unicode hex="20AC"/>
  <outline>
    <contour>
      <point x="63.0" y="474.0" type="line" smooth="yes"/>
      <point x="8.0" y="474.0"/>
      <point x="16.0" y="519.0" type="qcurve" smooth="yes"/>
      <point x="32.0" y="611.0" type="line" smooth="yes"/>
      <point x="40.0" y="656.0"/>
      <point x="95.0" y="656.0" type="qcurve" smooth="yes"/>
      <point x="100.0" y="656.0" type="line"/>
      <point x="99.0" y="724.0"/>
      <point x="104.0" y="788.0" type="qcurve"/>
      <point x="63.0" y="788.0" type="line" smooth="yes"/>
      <point x="8.0" y="788.0"/>
      <point x="16.0" y="833.0" type="qcurve" smooth="yes"/>
      <point x="32.0" y="925.0" type="line" smooth="yes"/>
      <point x="40.0" y="970.0"/>
      <point x="95.0" y="970.0" type="qcurve" smooth="yes"/>
      <point x="130.0" y="970.0" type="line"/>
      <point x="170.0" y="1174.0"/>
      <point x="478.0" y="1456.0"/>
      <point x="731.0" y="1456.0" type="qcurve" smooth="yes"/>
      <point x="813.0" y="1456.0"/>
      <point x="1005.0" y="1404.0"/>
      <point x="1081.0" y="1326.0" type="qcurve" smooth="yes"/>
      <point x="1133.0" y="1272.0"/>
      <point x="1089.0" y="1234.0" type="qcurve" smooth="yes"/>
      <point x="989.0" y="1148.0" type="line" smooth="yes"/>
      <point x="952.0" y="1116.0"/>
      <point x="904.0" y="1160.0" type="qcurve" smooth="yes"/>
      <point x="846.0" y="1214.0"/>
      <point x="766.0" y="1232.0"/>
      <point x="711.0" y="1232.0" type="qcurve" smooth="yes"/>
      <point x="600.0" y="1232.0"/>
      <point x="456.0" y="1086.0"/>
      <point x="428.0" y="970.0" type="qcurve"/>
      <point x="791.0" y="970.0" type="line" smooth="yes"/>
      <point x="846.0" y="970.0"/>
      <point x="838.0" y="925.0" type="qcurve" smooth="yes"/>
      <point x="822.0" y="833.0" type="line" smooth="yes"/>
      <point x="814.0" y="788.0"/>
      <point x="759.0" y="788.0" type="qcurve" smooth="yes"/>
      <point x="404.0" y="788.0" type="line"/>
      <point x="400.0" y="726.0"/>
      <point x="400.0" y="656.0" type="qcurve"/>
      <point x="791.0" y="656.0" type="line" smooth="yes"/>
      <point x="846.0" y="656.0"/>
      <point x="838.0" y="611.0" type="qcurve" smooth="yes"/>
      <point x="822.0" y="519.0" type="line" smooth="yes"/>
      <point x="814.0" y="474.0"/>
      <point x="759.0" y="474.0" type="qcurve" smooth="yes"/>
      <point x="411.0" y="474.0" type="line"/>
      <point x="428.0" y="338.0"/>
      <point x="572.0" y="190.0"/>
      <point x="694.0" y="190.0" type="qcurve" smooth="yes"/>
      <point x="786.0" y="190.0"/>
      <point x="889.0" y="235.0"/>
      <point x="936.0" y="277.0" type="qcurve" smooth="yes"/>
      <point x="992.0" y="326.0"/>
      <point x="1027.0" y="291.0" type="qcurve" smooth="yes"/>
      <point x="1115.0" y="202.0" type="line" smooth="yes"/>
      <point x="1155.0" y="161.0"/>
      <point x="1106.0" y="114.0" type="qcurve" smooth="yes"/>
      <point x="1029.0" y="40.0"/>
      <point x="816.0" y="-35.0"/>
      <point x="693.0" y="-35.0" type="qcurve" smooth="yes"/>
      <point x="414.0" y="-35.0"/>
      <point x="147.0" y="219.0"/>
      <point x="113.0" y="474.0" type="qcurve"/>
    </contour>
  </outline>
</glyph>
<glyph name="uni2116" format="2">
  <advance width="2082"/>
  <unicode hex="2116"/>
  <outline>
    <contour>
      <point x="230.0" y="0.0" type="line" smooth="yes"/>
      <point x="160.0" y="0.0"/>
      <point x="160.0" y="75.0" type="qcurve" smooth="yes"/>
      <point x="160.0" y="1359.0" type="line" smooth="yes"/>
      <point x="160.0" y="1434.0"/>
      <point x="230.0" y="1434.0" type="qcurve" smooth="yes"/>
      <point x="356.0" y="1434.0" type="line" smooth="yes"/>
      <point x="447.0" y="1434.0"/>
      <point x="486.0" y="1364.0" type="qcurve" smooth="yes"/>
      <point x="938.0" y="545.0" type="line"/>
      <point x="945.0" y="545.0" type="line"/>
      <point x="940.0" y="605.0"/>
      <point x="940.0" y="665.0" type="qcurve" smooth="yes"/>
      <point x="940.0" y="1359.0" type="line" smooth="yes"/>
      <point x="940.0" y="1434.0"/>
      <point x="1010.0" y="1434.0" type="qcurve" smooth="yes"/>
      <point x="1162.0" y="1434.0" type="line" smooth="yes"/>
      <point x="1232.0" y="1434.0"/>
      <point x="1232.0" y="1359.0" type="qcurve" smooth="yes"/>
      <point x="1232.0" y="75.0" type="line" smooth="yes"/>
      <point x="1232.0" y="0.0"/>
      <point x="1162.0" y="0.0" type="qcurve" smooth="yes"/>
      <point x="1044.0" y="0.0" type="line" smooth="yes"/>
      <point x="953.0" y="0.0"/>
      <point x="914.0" y="70.0" type="qcurve" smooth="yes"/>
      <point x="454.0" y="894.0" type="line"/>
      <point x="447.0" y="894.0" type="line"/>
      <point x="452.0" y="834.0"/>
      <point x="452.0" y="774.0" type="qcurve" smooth="yes"/>
      <point x="452.0" y="75.0" type="line" smooth="yes"/>
      <point x="452.0" y="0.0"/>
      <point x="382.0" y="0.0" type="qcurve" smooth="yes"/>
    </contour>
    <contour>
      <point x="1370.0" y="673.0" type="qcurve" smooth="yes"/>
      <point x="1370.0" y="863.0"/>
      <point x="1534.0" y="1023.0"/>
      <point x="1679.0" y="1023.0" type="qcurve" smooth="yes"/>
      <point x="1824.0" y="1023.0"/>
      <point x="1988.0" y="863.0"/>
      <point x="1988.0" y="673.0" type="qcurve" smooth="yes"/>
      <point x="1988.0" y="483.0"/>
      <point x="1824.0" y="324.0"/>
      <point x="1679.0" y="324.0" type="qcurve" smooth="yes"/>
      <point x="1534.0" y="324.0"/>
      <point x="1370.0" y="483.0"/>
    </contour>
    <contour>
      <point x="1534.0" y="673.0" type="qcurve" smooth="yes"/>
      <point x="1534.0" y="558.0"/>
      <point x="1594.0" y="447.0"/>
      <point x="1679.0" y="447.0" type="qcurve" smooth="yes"/>
      <point x="1764.0" y="447.0"/>
      <point x="1824.0" y="558.0"/>
      <point x="1824.0" y="673.0" type="qcurve" smooth="yes"/>
      <point x="1824.0" y="788.0"/>
      <point x="1764.0" y="899.0"/>
      <point x="1679.0" y="899.0" type="qcurve" smooth="yes"/>
      <point x="1594.0" y="899.0"/>
      <point x="1534.0" y="788.0"/>
    </contour>
    <contour>
      <point x="1463.0" y="1.0" type="line" smooth="yes"/>
      <point x="1403.0" y="1.0"/>
      <point x="1403.0" y="51.0" type="qcurve" smooth="yes"/>
      <point x="1403.0" y="151.0" type="line" smooth="yes"/>
      <point x="1403.0" y="201.0"/>
      <point x="1463.0" y="201.0" type="qcurve" smooth="yes"/>
      <point x="1895.0" y="201.0" type="line" smooth="yes"/>
      <point x="1955.0" y="201.0"/>
      <point x="1955.0" y="151.0" type="qcurve" smooth="yes"/>
      <point x="1955.0" y="51.0" type="line" smooth="yes"/>
      <point x="1955.0" y="1.0"/>
      <point x="1895.0" y="1.0" type="qcurve" smooth="yes"/>
    </contour>
  </outline>
</glyph>
<glyph name="trademark" format="2">
  <advance width="1696"/>
  <unicode hex="2122"/>
  <outline>
    <contour>
      <point x="104.0" y="1294.0" type="line" smooth="yes"/>
      <point x="65.0" y="1294.0"/>
      <point x="65.0" y="1326.0" type="qcurve" smooth="yes"/>
      <point x="65.0" y="1402.0" type="line" smooth="yes"/>
      <point x="65.0" y="1434.0"/>
      <point x="104.0" y="1434.0" type="qcurve" smooth="yes"/>
      <point x="639.0" y="1434.0" type="line" smooth="yes"/>
      <point x="677.0" y="1434.0"/>
      <point x="677.0" y="1402.0" type="qcurve" smooth="yes"/>
      <point x="677.0" y="1326.0" type="line" smooth="yes"/>
      <point x="677.0" y="1294.0"/>
      <point x="639.0" y="1294.0" type="qcurve" smooth="yes"/>
      <point x="466.0" y="1294.0" type="line"/>
      <point x="466.0" y="800.0" type="line" smooth="yes"/>
      <point x="466.0" y="762.0"/>
      <point x="427.0" y="762.0" type="qcurve" smooth="yes"/>
      <point x="314.0" y="762.0" type="line" smooth="yes"/>
      <point x="276.0" y="762.0"/>
      <point x="276.0" y="800.0" type="qcurve" smooth="yes"/>
      <point x="276.0" y="1294.0" type="line"/>
    </contour>
    <contour>
      <point x="794.0" y="762.0" type="line" smooth="yes"/>
      <point x="756.0" y="762.0"/>
      <point x="756.0" y="800.0" type="qcurve" smooth="yes"/>
      <point x="756.0" y="1396.0" type="line" smooth="yes"/>
      <point x="756.0" y="1434.0"/>
      <point x="794.0" y="1434.0" type="qcurve" smooth="yes"/>
      <point x="981.0" y="1434.0" type="line" smooth="yes"/>
      <point x="1024.0" y="1434.0"/>
      <point x="1036.0" y="1392.0" type="qcurve" smooth="yes"/>
      <point x="1142.0" y="1014.0" type="line" smooth="yes"/>
      <point x="1147.0" y="995.0"/>
      <point x="1158.0" y="941.0"/>
      <point x="1158.0" y="922.0" type="qcurve"/>
      <point x="1161.0" y="922.0" type="line"/>
      <point x="1161.0" y="941.0"/>
      <point x="1172.0" y="995.0"/>
      <point x="1177.0" y="1014.0" type="qcurve" smooth="yes"/>
      <point x="1284.0" y="1392.0" type="line" smooth="yes"/>
      <point x="1296.0" y="1434.0"/>
      <point x="1338.0" y="1434.0" type="qcurve" smooth="yes"/>
      <point x="1524.0" y="1434.0" type="line" smooth="yes"/>
      <point x="1563.0" y="1434.0"/>
      <point x="1563.0" y="1396.0" type="qcurve" smooth="yes"/>
      <point x="1563.0" y="800.0" type="line" smooth="yes"/>
      <point x="1563.0" y="762.0"/>
      <point x="1524.0" y="762.0" type="qcurve" smooth="yes"/>
      <point x="1412.0" y="762.0" type="line" smooth="yes"/>
      <point x="1373.0" y="762.0"/>
      <point x="1373.0" y="800.0" type="qcurve" smooth="yes"/>
      <point x="1373.0" y="1124.0" type="line" smooth="yes"/>
      <point x="1373.0" y="1150.0"/>
      <point x="1376.0" y="1175.0" type="qcurve"/>
      <point x="1373.0" y="1175.0" type="line"/>
      <point x="1268.0" y="801.0" type="line" smooth="yes"/>
      <point x="1257.0" y="762.0"/>
      <point x="1233.0" y="762.0" type="qcurve" smooth="yes"/>
      <point x="1086.0" y="762.0" type="line" smooth="yes"/>
      <point x="1063.0" y="762.0"/>
      <point x="1052.0" y="801.0" type="qcurve" smooth="yes"/>
      <point x="946.0" y="1175.0" type="line"/>
      <point x="943.0" y="1175.0" type="line"/>
      <point x="946.0" y="1150.0"/>
      <point x="946.0" y="1124.0" type="qcurve" smooth="yes"/>
      <point x="946.0" y="800.0" type="line" smooth="yes"/>
      <point x="946.0" y="762.0"/>
      <point x="907.0" y="762.0" type="qcurve" smooth="yes"/>
    </contour>
  </outline>
</glyph>
<glyph name="estimated" format="2">
  <advance width="1718"/>
  <unicode hex="212E"/>
  <outline>
    <contour>
      <point x="58.0" y="696.0" type="qcurve" smooth="yes"/>
      <point x="58.0" y="893.0"/>
      <point x="273.0" y="1228.0"/>
      <point x="642.0" y="1422.0"/>
      <point x="859.0" y="1422.0" type="qcurve" smooth="yes"/>
      <point x="1021.0" y="1422.0"/>
      <point x="1319.0" y="1304.0"/>
      <point x="1533.0" y="1111.0"/>
      <point x="1660.0" y="852.0"/>
      <point x="1660.0" y="715.0" type="qcurve" smooth="yes"/>
      <point x="1660.0" y="692.0"/>
      <point x="1635.0" y="679.0"/>
      <point x="1600.0" y="679.0" type="qcurve" smooth="yes"/>
      <point x="405.0" y="679.0" type="line"/>
      <point x="405.0" y="332.0" type="line" smooth="yes"/>
      <point x="405.0" y="288.0"/>
      <point x="422.0" y="252.0"/>
      <point x="448.0" y="227.0" type="qcurve" smooth="yes"/>
      <point x="624.0" y="61.0"/>
      <point x="859.0" y="61.0" type="qcurve" smooth="yes"/>
      <point x="1000.0" y="61.0"/>
      <point x="1238.0" y="179.0"/>
      <point x="1324.0" y="286.0" type="qcurve" smooth="yes"/>
      <point x="1346.0" y="314.0"/>
      <point x="1372.0" y="329.0"/>
      <point x="1404.0" y="329.0" type="qcurve" smooth="yes"/>
      <point x="1486.0" y="329.0" type="line" smooth="yes"/>
      <point x="1522.0" y="329.0"/>
      <point x="1528.0" y="291.0"/>
      <point x="1511.0" y="275.0" type="qcurve"/>
      <point x="1390.0" y="128.0"/>
      <point x="1052.0" y="-30.0"/>
      <point x="859.0" y="-30.0" type="qcurve" smooth="yes"/>
      <point x="642.0" y="-30.0"/>
      <point x="273.0" y="164.0"/>
      <point x="58.0" y="499.0"/>
    </contour>
    <contour>
      <point x="405.0" y="768.0" type="line"/>
      <point x="1323.0" y="768.0" type="line"/>
      <point x="1323.0" y="1048.0" type="line" smooth="yes"/>
      <point x="1323.0" y="1093.0"/>
      <point x="1304.0" y="1132.0"/>
      <point x="1276.0" y="1159.0" type="qcurve" smooth="yes"/>
      <point x="1192.0" y="1240.0"/>
      <point x="977.0" y="1331.0"/>
      <point x="859.0" y="1331.0" type="qcurve" smooth="yes"/>
      <point x="625.0" y="1331.0"/>
      <point x="449.0" y="1166.0" type="qcurve" smooth="yes"/>
      <point x="422.0" y="1141.0"/>
      <point x="405.0" y="1105.0"/>
      <point x="405.0" y="1060.0" type="qcurve" smooth="yes"/>
    </contour>
  </outline>
</glyph>
<glyph name="greaterequal" format="2">
  <advance width="1280"/>
  <unicode hex="2265"/>
  <outline>
    <contour>
      <point x="135.0" y="72.0" type="line" smooth="yes"/>
      <point x="75.0" y="72.0"/>
      <point x="75.0" y="122.0" type="qcurve" smooth="yes"/>
      <point x="75.0" y="208.0" type="line" smooth="yes"/>
      <point x="75.0" y="258.0"/>
      <point x="135.0" y="258.0" type="qcurve" smooth="yes"/>
      <point x="1145.0" y="258.0" type="line" smooth="yes"/>
      <point x="1205.0" y="258.0"/>
      <point x="1205.0" y="208.0" type="qcurve" smooth="yes"/>
      <point x="1205.0" y="122.0" type="line" smooth="yes"/>
      <point x="1205.0" y="72.0"/>
      <point x="1145.0" y="72.0" type="qcurve" smooth="yes"/>
    </contour>
    <contour>
      <point x="78.0" y="532.0" type="line" smooth="yes"/>
      <point x="60.0" y="579.0"/>
      <point x="118.0" y="600.0" type="qcurve" smooth="yes"/>
      <point x="891.0" y="881.0" type="line"/>
      <point x="891.0" y="882.0" type="line"/>
      <point x="118.0" y="1163.0" type="line" smooth="yes"/>
      <point x="60.0" y="1184.0"/>
      <point x="78.0" y="1231.0" type="qcurve" smooth="yes"/>
      <point x="108.0" y="1311.0" type="line" smooth="yes"/>
      <point x="126.0" y="1358.0"/>
      <point x="181.0" y="1338.0" type="qcurve" smooth="yes"/>
      <point x="1162.0" y="981.0" type="line" smooth="yes"/>
      <point x="1202.0" y="966.0"/>
      <point x="1202.0" y="913.0" type="qcurve" smooth="yes"/>
      <point x="1202.0" y="850.0" type="line" smooth="yes"/>
      <point x="1202.0" y="797.0"/>
      <point x="1162.0" y="782.0" type="qcurve" smooth="yes"/>
      <point x="181.0" y="425.0" type="line" smooth="yes"/>
      <point x="126.0" y="405.0"/>
      <point x="108.0" y="452.0" type="qcurve" smooth="yes"/>
    </contour>
  </outline>
</glyph>
<glyph name="lozenge" format="2">
  <advance width="1080"/>
  <unicode hex="25CA"/>
  <outline>
    <contour>
      <point x="78.0" y="717.0" type="qcurve" smooth="yes"/>
      <point x="78.0" y="755.0"/>
      <point x="100.0" y="796.0" type="qcurve" smooth="yes"/>
      <point x="442.0" y="1428.0" type="line" smooth="yes"/>
      <point x="463.0" y="1468.0"/>
      <point x="497.0" y="1468.0" type="qcurve" smooth="yes"/>
      <point x="583.0" y="1468.0" type="line" smooth="yes"/>
      <point x="617.0" y="1468.0"/>
      <point x="638.0" y="1428.0" type="qcurve" smooth="yes"/>
      <point x="980.0" y="796.0" type="line" smooth="yes"/>
      <point x="1002.0" y="755.0"/>
      <point x="1002.0" y="717.0" type="qcurve" smooth="yes"/>
      <point x="1002.0" y="679.0"/>
      <point x="980.0" y="638.0" type="qcurve" smooth="yes"/>
      <point x="638.0" y="6.0" type="line" smooth="yes"/>
      <point x="617.0" y="-34.0"/>
      <point x="583.0" y="-34.0" type="qcurve" smooth="yes"/>
      <point x="497.0" y="-34.0" type="line" smooth="yes"/>
      <point x="463.0" y="-34.0"/>
      <point x="442.0" y="6.0" type="qcurve" smooth="yes"/>
      <point x="100.0" y="638.0" type="line" smooth="yes"/>
      <point x="78.0" y="679.0"/>
    </contour>
    <contour>
      <point x="248.0" y="717.0" type="line"/>
      <point x="539.0" y="180.0" type="line"/>
      <point x="541.0" y="180.0" type="line"/>
      <point x="832.0" y="717.0" type="line"/>
      <point x="541.0" y="1254.0" type="line"/>
      <point x="539.0" y="1254.0" type="line"/>
    </contour>
  </outline>
</glyph>
<glyph name="dotaccent.cap" format="2">
  <advance width="820"/>
  <unicode hex="EFED"/>
  <outline>
    <contour>
      <point x="334.0" y="1526.0" type="line" smooth="yes"/>
      <point x="264.0" y="1526.0"/>
      <point x="264.0" y="1601.0" type="qcurve" smooth="yes"/>
      <point x="264.0" y="1715.0" type="line" smooth="yes"/>
      <point x="264.0" y="1790.0"/>
      <point x="334.0" y="1790.0" type="qcurve" smooth="yes"/>
      <point x="486.0" y="1790.0" type="line" smooth="yes"/>
      <point x="556.0" y="1790.0"/>
      <point x="556.0" y="1715.0" type="qcurve" smooth="yes"/>
      <point x="556.0" y="1601.0" type="line" smooth="yes"/>
      <point x="556.0" y="1526.0"/>
      <point x="486.0" y="1526.0" type="qcurve" smooth="yes"/>
    </contour>
  </outline>
</glyph>
<glyph name="breve.cap" format="2">
  <advance width="820"/>
  <unicode hex="EFEE"/>
  <outline>
    <contour>
      <point x="38.0" y="1765.0" type="qcurve" smooth="yes"/>
      <point x="16.0" y="1817.0"/>
      <point x="58.0" y="1837.0" type="qcurve" smooth="yes"/>
      <point x="120.0" y="1866.0" type="line" smooth="yes"/>
      <point x="161.0" y="1885.0"/>
      <point x="192.0" y="1838.0" type="qcurve" smooth="yes"/>
      <point x="218.0" y="1798.0"/>
      <point x="330.0" y="1716.0"/>
      <point x="410.0" y="1716.0" type="qcurve" smooth="yes"/>
      <point x="490.0" y="1716.0"/>
      <point x="602.0" y="1798.0"/>
      <point x="628.0" y="1838.0" type="qcurve" smooth="yes"/>
      <point x="659.0" y="1885.0"/>
      <point x="700.0" y="1866.0" type="qcurve" smooth="yes"/>
      <point x="762.0" y="1837.0" type="line" smooth="yes"/>
      <point x="804.0" y="1817.0"/>
      <point x="782.0" y="1765.0" type="qcurve" smooth="yes"/>
      <point x="738.0" y="1660.0"/>
      <point x="550.0" y="1540.0"/>
      <point x="410.0" y="1540.0" type="qcurve" smooth="yes"/>
      <point x="270.0" y="1540.0"/>
      <point x="82.0" y="1660.0"/>
    </contour>
  </outline>
</glyph>
<glyph name="ring.cap" format="2">
  <advance width="820"/>
  <unicode hex="EFF3"/>
  <outline>
    <contour>
      <point x="223.0" y="1707.0" type="qcurve" smooth="yes"/>
      <point x="223.0" y="1784.0"/>
      <point x="330.0" y="1885.0"/>
      <point x="410.0" y="1885.0" type="qcurve" smooth="yes"/>
      <point x="490.0" y="1885.0"/>
      <point x="597.0" y="1782.0"/>
      <point x="597.0" y="1707.0" type="qcurve" smooth="yes"/>
      <point x="597.0" y="1632.0"/>
      <point x="490.0" y="1529.0"/>
      <point x="410.0" y="1529.0" type="qcurve" smooth="yes"/>
      <point x="330.0" y="1529.0"/>
      <point x="223.0" y="1630.0"/>
    </contour>
    <contour>
      <point x="315.0" y="1707.0" type="qcurve" smooth="yes"/>
      <point x="315.0" y="1669.0"/>
      <point x="368.0" y="1617.0"/>
      <point x="410.0" y="1617.0" type="qcurve" smooth="yes"/>
      <point x="452.0" y="1617.0"/>
      <point x="505.0" y="1669.0"/>
      <point x="505.0" y="1707.0" type="qcurve" smooth="yes"/>
      <point x="505.0" y="1745.0"/>
      <point x="452.0" y="1797.0"/>
      <point x="410.0" y="1797.0" type="qcurve" smooth="yes"/>
      <point x="368.0" y="1797.0"/>
      <point x="315.0" y="1745.0"/>
    </contour>
  </outline>
</glyph>
<glyph name="one.oldstyle.tab" format="2">
  <advance width="1200"/>
  <unicode hex="F644"/>
  <outline>
    <contour>
      <point x="176.0" y="786.0" type="line" smooth="yes"/>
      <point x="149.8260040283203" y="837.9320068359375"/>
      <point x="211.0" y="862.0" type="qcurve" smooth="yes"/>
      <point x="268.0" y="884.0"/>
      <point x="395.0" y="978.0"/>
      <point x="435.0" y="1028.0" type="qcurve" smooth="yes"/>
      <point x="480.0" y="1084.0"/>
      <point x="521.0" y="1084.0" type="qcurve" smooth="yes"/>
      <point x="680.0" y="1084.0" type="line" smooth="yes"/>
      <point x="740.0" y="1084.0"/>
      <point x="740.0" y="1024.0" type="qcurve" smooth="yes"/>
      <point x="740.0" y="248.0" type="line"/>
      <point x="938.0" y="248.0" type="line" smooth="yes"/>
      <point x="1013.0" y="248.0"/>
      <point x="1013.0" y="183.0" type="qcurve" smooth="yes"/>
      <point x="1013.0" y="65.0" type="line" smooth="yes"/>
      <point x="1013.0" y="0.0"/>
      <point x="939.0" y="0.0" type="qcurve" smooth="yes"/>
      <point x="261.0" y="0.0" type="line" smooth="yes"/>
      <point x="187.0" y="0.0"/>
      <point x="187.0" y="65.0" type="qcurve" smooth="yes"/>
      <point x="187.0" y="183.0" type="line" smooth="yes"/>
      <point x="187.0" y="248.0"/>
      <point x="262.0" y="248.0" type="qcurve" smooth="yes"/>
      <point x="460.0" y="248.0" type="line"/>
      <point x="460.0" y="655.0" type="line" smooth="yes"/>
      <point x="460.0" y="695.0"/>
      <point x="464.0" y="735.0" type="qcurve"/>
      <point x="460.0" y="735.0" type="line"/>
      <point x="429.0" y="696.0"/>
      <point x="352.0" y="652.0"/>
      <point x="310.0" y="635.0" type="qcurve" smooth="yes"/>
      <point x="261.7330017089844" y="615.8939819335938"/>
      <point x="239.0" y="661.0" type="qcurve" smooth="yes"/>
    </contour>
  </outline>
</glyph>
<glyph name="three.oldstyle.tab" format="2">
  <advance width="1200"/>
  <unicode hex="F646"/>
  <outline>
    <contour>
      <point x="102.0" y="-146.0" type="qcurve" smooth="yes"/>
      <point x="57.0" y="-104.0"/>
      <point x="96.0" y="-52.0" type="qcurve" smooth="yes"/>
      <point x="149.0" y="19.0" type="line" smooth="yes"/>
      <point x="194.0" y="79.0"/>
      <point x="256.0" y="28.0" type="qcurve" smooth="yes"/>
      <point x="315.0" y="-21.0"/>
      <point x="474.0" y="-70.0"/>
      <point x="561.0" y="-70.0" type="qcurve" smooth="yes"/>
      <point x="684.0" y="-70.0"/>
      <point x="804.0" y="43.0"/>
      <point x="804.0" y="132.0" type="qcurve" smooth="yes"/>
      <point x="804.0" y="223.0"/>
      <point x="672.0" y="344.0"/>
      <point x="549.0" y="344.0" type="qcurve" smooth="yes"/>
      <point x="472.0" y="344.0" type="line" smooth="yes"/>
      <point x="407.0" y="344.0"/>
      <point x="407.0" y="397.0" type="qcurve" smooth="yes"/>
      <point x="407.0" y="507.0" type="line" smooth="yes"/>
      <point x="407.0" y="562.0"/>
      <point x="472.0" y="562.0" type="qcurve" smooth="yes"/>
      <point x="532.0" y="562.0" type="line" smooth="yes"/>
      <point x="639.0" y="562.0"/>
      <point x="762.0" y="653.0"/>
      <point x="762.0" y="742.0" type="qcurve" smooth="yes"/>
      <point x="762.0" y="806.0"/>
      <point x="651.0" y="872.0"/>
      <point x="567.0" y="872.0" type="qcurve" smooth="yes"/>
      <point x="477.0" y="872.0"/>
      <point x="315.0" y="809.0"/>
      <point x="255.0" y="773.0" type="qcurve" smooth="yes"/>
      <point x="193.0" y="736.0"/>
      <point x="164.0" y="790.0" type="qcurve" smooth="yes"/>
      <point x="121.0" y="870.0" type="line" smooth="yes"/>
      <point x="90.0" y="928.0"/>
      <point x="141.0" y="968.0" type="qcurve" smooth="yes"/>
      <point x="213.0" y="1025.0"/>
      <point x="462.0" y="1096.0"/>
      <point x="562.0" y="1096.0" type="qcurve" smooth="yes"/>
      <point x="801.0" y="1096.0"/>
      <point x="1054.0" y="911.0"/>
      <point x="1054.0" y="762.0" type="qcurve" smooth="yes"/>
      <point x="1054.0" y="644.0"/>
      <point x="897.0" y="494.0"/>
      <point x="789.0" y="464.0" type="qcurve"/>
      <point x="789.0" y="460.0" type="line"/>
      <point x="915.0" y="443.0"/>
      <point x="1104.0" y="240.0"/>
      <point x="1104.0" y="117.0" type="qcurve" smooth="yes"/>
      <point x="1104.0" y="-48.0"/>
      <point x="810.0" y="-294.0"/>
      <point x="548.0" y="-294.0" type="qcurve" smooth="yes"/>
      <point x="438.0" y="-294.0"/>
      <point x="192.0" y="-231.0"/>
    </contour>
  </outline>
</glyph>
<glyph name="six.oldstyle.tab" format="2">
  <advance width="1200"/>
  <unicode hex="F649"/>
  <outline>
    <contour>
      <point x="94.0" y="649.0" type="qcurve" smooth="yes"/>
      <point x="94.0" y="1017.0"/>
      <point x="428.0" y="1366.0"/>
      <point x="685.0" y="1366.0" type="qcurve" smooth="yes"/>
      <point x="792.0" y="1366.0"/>
      <point x="966.0" y="1314.0"/>
      <point x="1014.0" y="1272.0" type="qcurve" smooth="yes"/>
      <point x="1060.0" y="1232.0"/>
      <point x="1038.0" y="1196.0" type="qcurve" smooth="yes"/>
      <point x="982.0" y="1104.0" type="line" smooth="yes"/>
      <point x="951.0" y="1054.0"/>
      <point x="910.0" y="1080.0" type="qcurve" smooth="yes"/>
      <point x="849.0" y="1119.0"/>
      <point x="754.0" y="1142.0"/>
      <point x="686.0" y="1142.0" type="qcurve" smooth="yes"/>
      <point x="532.0" y="1142.0"/>
      <point x="373.0" y="920.0"/>
      <point x="373.0" y="761.0" type="qcurve"/>
      <point x="377.0" y="761.0" type="line"/>
      <point x="422.0" y="819.0"/>
      <point x="573.0" y="879.0"/>
      <point x="701.0" y="879.0" type="qcurve" smooth="yes"/>
      <point x="876.0" y="879.0"/>
      <point x="1106.0" y="639.0"/>
      <point x="1106.0" y="425.0" type="qcurve" smooth="yes"/>
      <point x="1106.0" y="219.0"/>
      <point x="846.0" y="-24.0"/>
      <point x="607.0" y="-24.0" type="qcurve" smooth="yes"/>
      <point x="342.0" y="-24.0"/>
      <point x="94.0" y="339.0"/>
    </contour>
    <contour>
      <point x="422.0" y="411.0" type="qcurve" smooth="yes"/>
      <point x="422.0" y="309.0"/>
      <point x="540.0" y="200.0"/>
      <point x="612.0" y="200.0" type="qcurve" smooth="yes"/>
      <point x="705.0" y="200.0"/>
      <point x="806.0" y="315.0"/>
      <point x="806.0" y="418.0" type="qcurve" smooth="yes"/>
      <point x="806.0" y="531.0"/>
      <point x="711.0" y="655.0"/>
      <point x="624.0" y="655.0" type="qcurve" smooth="yes"/>
      <point x="536.0" y="655.0"/>
      <point x="422.0" y="501.0"/>
    </contour>
  </outline>
</glyph>
<glyph name="one.oldstyle" format="2">
  <advance width="864"/>
  <unicode hex="F731"/>
  <outline>
    <contour>
      <point x="120.0" y="795.0" type="line" smooth="yes"/>
      <point x="94.0" y="845.0"/>
      <point x="155.0" y="871.0" type="qcurve" smooth="yes"/>
      <point x="203.0" y="892.0"/>
      <point x="351.0" y="992.0"/>
      <point x="381.0" y="1028.0" type="qcurve" smooth="yes"/>
      <point x="428.0" y="1084.0"/>
      <point x="467.0" y="1084.0" type="qcurve" smooth="yes"/>
      <point x="626.0" y="1084.0" type="line" smooth="yes"/>
      <point x="686.0" y="1084.0"/>
      <point x="686.0" y="1024.0" type="qcurve" smooth="yes"/>
      <point x="686.0" y="60.0" type="line" smooth="yes"/>
      <point x="686.0" y="0.0"/>
      <point x="626.0" y="0.0" type="qcurve" smooth="yes"/>
      <point x="466.0" y="0.0" type="line" smooth="yes"/>
      <point x="406.0" y="0.0"/>
      <point x="406.0" y="60.0" type="qcurve" smooth="yes"/>
      <point x="406.0" y="655.0" type="line" smooth="yes"/>
      <point x="406.0" y="695.0"/>
      <point x="410.0" y="735.0" type="qcurve"/>
      <point x="406.0" y="735.0" type="line"/>
      <point x="363.0" y="698.0"/>
      <point x="301.0" y="663.0"/>
      <point x="267.0" y="650.0" type="qcurve" smooth="yes"/>
      <point x="207.0" y="627.0"/>
      <point x="184.0" y="671.0" type="qcurve" smooth="yes"/>
    </contour>
  </outline>
</glyph>
<glyph name="two.oldstyle" format="2">
  <advance width="1094"/>
  <unicode hex="F732"/>
  <outline>
    <contour>
      <point x="163.0" y="0.0" type="line" smooth="yes"/>
      <point x="88.0" y="0.0"/>
      <point x="88.0" y="65.0" type="qcurve" smooth="yes"/>
      <point x="88.0" y="159.0" type="line" smooth="yes"/>
      <point x="88.0" y="228.0"/>
      <point x="136.0" y="262.0" type="qcurve" smooth="yes"/>
      <point x="431.0" y="468.0" type="line" smooth="yes"/>
      <point x="528.0" y="536.0"/>
      <point x="692.0" y="666.0"/>
      <point x="692.0" y="750.0" type="qcurve" smooth="yes"/>
      <point x="692.0" y="806.0"/>
      <point x="626.0" y="872.0"/>
      <point x="538.0" y="872.0" type="qcurve" smooth="yes"/>
      <point x="464.0" y="872.0"/>
      <point x="338.0" y="780.0"/>
      <point x="301.0" y="720.0" type="qcurve" smooth="yes"/>
      <point x="266.0" y="664.0"/>
      <point x="217.0" y="700.0" type="qcurve" smooth="yes"/>
      <point x="119.0" y="772.0" type="line" smooth="yes"/>
      <point x="80.0" y="801.0"/>
      <point x="110.0" y="851.0" type="qcurve" smooth="yes"/>
      <point x="176.0" y="962.0"/>
      <point x="388.0" y="1096.0"/>
      <point x="540.0" y="1096.0" type="qcurve" smooth="yes"/>
      <point x="754.0" y="1096.0"/>
      <point x="988.0" y="920.0"/>
      <point x="988.0" y="772.0" type="qcurve" smooth="yes"/>
      <point x="988.0" y="610.0"/>
      <point x="710.0" y="402.0"/>
      <point x="622.0" y="342.0" type="qcurve" smooth="yes"/>
      <point x="486.0" y="250.0" type="line"/>
      <point x="486.0" y="244.0" type="line"/>
      <point x="534.0" y="248.0"/>
      <point x="566.0" y="248.0" type="qcurve" smooth="yes"/>
      <point x="929.0" y="248.0" type="line" smooth="yes"/>
      <point x="1004.0" y="248.0"/>
      <point x="1004.0" y="183.0" type="qcurve" smooth="yes"/>
      <point x="1004.0" y="65.0" type="line" smooth="yes"/>
      <point x="1004.0" y="0.0"/>
      <point x="929.0" y="0.0" type="qcurve" smooth="yes"/>
    </contour>
  </outline>
</glyph>
<glyph name="six.oldstyle" format="2">
  <advance width="1180"/>
  <unicode hex="F736"/>
  <outline>
    <contour>
      <point x="94.0" y="649.0" type="qcurve" smooth="yes"/>
      <point x="94.0" y="1017.0"/>
      <point x="428.0" y="1366.0"/>
      <point x="672.0" y="1366.0" type="qcurve" smooth="yes"/>
      <point x="774.0" y="1366.0"/>
      <point x="947.0" y="1314.0"/>
      <point x="995.0" y="1272.0" type="qcurve" smooth="yes"/>
      <point x="1041.0" y="1232.0"/>
      <point x="1019.0" y="1196.0" type="qcurve" smooth="yes"/>
      <point x="963.0" y="1104.0" type="line" smooth="yes"/>
      <point x="932.0" y="1054.0"/>
      <point x="891.0" y="1080.0" type="qcurve" smooth="yes"/>
      <point x="830.0" y="1119.0"/>
      <point x="737.0" y="1142.0"/>
      <point x="673.0" y="1142.0" type="qcurve" smooth="yes"/>
      <point x="513.0" y="1142.0"/>
      <point x="373.0" y="920.0"/>
      <point x="373.0" y="761.0" type="qcurve"/>
      <point x="377.0" y="761.0" type="line"/>
      <point x="422.0" y="819.0"/>
      <point x="565.0" y="879.0"/>
      <point x="687.0" y="879.0" type="qcurve" smooth="yes"/>
      <point x="857.0" y="879.0"/>
      <point x="1087.0" y="639.0"/>
      <point x="1087.0" y="425.0" type="qcurve" smooth="yes"/>
      <point x="1087.0" y="219.0"/>
      <point x="827.0" y="-24.0"/>
      <point x="598.0" y="-24.0" type="qcurve" smooth="yes"/>
      <point x="342.0" y="-24.0"/>
      <point x="94.0" y="339.0"/>
    </contour>
    <contour>
      <point x="418.0" y="411.0" type="qcurve" smooth="yes"/>
      <point x="418.0" y="309.0"/>
      <point x="537.0" y="200.0"/>
      <point x="610.0" y="200.0" type="qcurve" smooth="yes"/>
      <point x="693.0" y="200.0"/>
      <point x="787.0" y="315.0"/>
      <point x="787.0" y="418.0" type="qcurve" smooth="yes"/>
      <point x="787.0" y="531.0"/>
      <point x="693.0" y="655.0"/>
      <point x="610.0" y="655.0" type="qcurve" smooth="yes"/>
      <point x="526.0" y="655.0"/>
      <point x="418.0" y="501.0"/>
    </contour>
  </outline>
</glyph>
<glyph name="seven.oldstyle" format="2">
  <advance width="1138"/>
  <unicode hex="F737"/>
  <outline>
    <contour>
      <point x="161.0" y="824.0" type="line" smooth="yes"/>
      <point x="96.0" y="824.0"/>
      <point x="96.0" y="889.0" type="qcurve" smooth="yes"/>
      <point x="96.0" y="1007.0" type="line" smooth="yes"/>
      <point x="96.0" y="1072.0"/>
      <point x="161.0" y="1072.0" type="qcurve" smooth="yes"/>
      <point x="977.0" y="1072.0" type="line" smooth="yes"/>
      <point x="1042.0" y="1072.0"/>
      <point x="1042.0" y="1007.0" type="qcurve" smooth="yes"/>
      <point x="1042.0" y="894.0" type="line" smooth="yes"/>
      <point x="1042.0" y="838.0"/>
      <point x="992.0" y="787.0" type="qcurve" smooth="yes"/>
      <point x="767.0" y="555.0"/>
      <point x="675.0" y="99.0"/>
      <point x="675.0" y="-143.0" type="qcurve" smooth="yes"/>
      <point x="675.0" y="-205.0" type="line" smooth="yes"/>
      <point x="675.0" y="-270.0"/>
      <point x="610.0" y="-270.0" type="qcurve" smooth="yes"/>
      <point x="460.0" y="-270.0" type="line" smooth="yes"/>
      <point x="395.0" y="-270.0"/>
      <point x="395.0" y="-205.0" type="qcurve" smooth="yes"/>
      <point x="395.0" y="-178.0" type="line" smooth="yes"/>
      <point x="395.0" y="147.0"/>
      <point x="577.0" y="612.0"/>
      <point x="782.0" y="824.0" type="qcurve"/>
      <point x="782.0" y="828.0" type="line"/>
      <point x="747.0" y="824.0"/>
      <point x="712.0" y="824.0" type="qcurve" smooth="yes"/>
    </contour>
  </outline>
</glyph>
<glyph name="nine.oldstyle" format="2">
  <advance width="1180"/>
  <unicode hex="F739"/>
  <outline>
    <contour>
      <point x="93.0" y="647.0" type="qcurve" smooth="yes"/>
      <point x="93.0" y="853.0"/>
      <point x="353.0" y="1096.0"/>
      <point x="582.0" y="1096.0" type="qcurve" smooth="yes"/>
      <point x="838.0" y="1096.0"/>
      <point x="1086.0" y="733.0"/>
      <point x="1086.0" y="423.0" type="qcurve" smooth="yes"/>
      <point x="1086.0" y="55.0"/>
      <point x="752.0" y="-294.0"/>
      <point x="508.0" y="-294.0" type="qcurve" smooth="yes"/>
      <point x="406.0" y="-294.0"/>
      <point x="233.0" y="-242.0"/>
      <point x="185.0" y="-200.0" type="qcurve" smooth="yes"/>
      <point x="139.0" y="-160.0"/>
      <point x="161.0" y="-124.0" type="qcurve" smooth="yes"/>
      <point x="217.0" y="-32.0" type="line" smooth="yes"/>
      <point x="248.0" y="18.0"/>
      <point x="289.0" y="-8.0" type="qcurve" smooth="yes"/>
      <point x="350.0" y="-47.0"/>
      <point x="443.0" y="-70.0"/>
      <point x="507.0" y="-70.0" type="qcurve" smooth="yes"/>
      <point x="667.0" y="-70.0"/>
      <point x="807.0" y="152.0"/>
      <point x="807.0" y="311.0" type="qcurve"/>
      <point x="803.0" y="311.0" type="line"/>
      <point x="758.0" y="253.0"/>
      <point x="615.0" y="193.0"/>
      <point x="493.0" y="193.0" type="qcurve" smooth="yes"/>
      <point x="323.0" y="193.0"/>
      <point x="93.0" y="433.0"/>
    </contour>
    <contour>
      <point x="393.0" y="654.0" type="qcurve" smooth="yes"/>
      <point x="393.0" y="541.0"/>
      <point x="487.0" y="417.0"/>
      <point x="570.0" y="417.0" type="qcurve" smooth="yes"/>
      <point x="654.0" y="417.0"/>
      <point x="762.0" y="571.0"/>
      <point x="762.0" y="661.0" type="qcurve" smooth="yes"/>
      <point x="762.0" y="763.0"/>
      <point x="643.0" y="872.0"/>
      <point x="570.0" y="872.0" type="qcurve" smooth="yes"/>
      <point x="487.0" y="872.0"/>
      <point x="393.0" y="757.0"/>
    </contour>
  </outline>
</glyph>
<glyph name="dieresis.alt0" format="2">
  <advance width="614"/>
  <outline>
    <contour>
      <point x="74.0" y="1210.0" type="line" smooth="yes"/>
      <point x="14.0" y="1210.0"/>
      <point x="14.0" y="1270.0" type="qcurve" smooth="yes"/>
      <point x="14.0" y="1378.0" type="line" smooth="yes"/>
      <point x="14.0" y="1438.0"/>
      <point x="74.0" y="1438.0" type="qcurve" smooth="yes"/>
      <point x="182.0" y="1438.0" type="line" smooth="yes"/>
      <point x="242.0" y="1438.0"/>
      <point x="242.0" y="1378.0" type="qcurve" smooth="yes"/>
      <point x="242.0" y="1270.0" type="line" smooth="yes"/>
      <point x="242.0" y="1210.0"/>
      <point x="182.0" y="1210.0" type="qcurve" smooth="yes"/>
    </contour>
    <contour>
      <point x="432.0" y="1210.0" type="line" smooth="yes"/>
      <point x="372.0" y="1210.0"/>
      <point x="372.0" y="1270.0" type="qcurve" smooth="yes"/>
      <point x="372.0" y="1378.0" type="line" smooth="yes"/>
      <point x="372.0" y="1438.0"/>
      <point x="432.0" y="1438.0" type="qcurve" smooth="yes"/>
      <point x="540.0" y="1438.0" type="line" smooth="yes"/>
      <point x="600.0" y="1438.0"/>
      <point x="600.0" y="1378.0" type="qcurve" smooth="yes"/>
      <point x="600.0" y="1270.0" type="line" smooth="yes"/>
      <point x="600.0" y="1210.0"/>
      <point x="540.0" y="1210.0" type="qcurve" smooth="yes"/>
    </contour>
  </outline>
</glyph>
<glyph name="dieresis.alt1" format="2">
  <advance width="820"/>
  <outline>
    <contour>
      <point x="120.0" y="1530.0" type="line" smooth="yes"/>
      <point x="50.0" y="1530.0"/>
      <point x="50.0" y="1605.0" type="qcurve" smooth="yes"/>
      <point x="50.0" y="1711.0" type="line" smooth="yes"/>
      <point x="50.0" y="1786.0"/>
      <point x="120.0" y="1786.0" type="qcurve" smooth="yes"/>
      <point x="252.0" y="1786.0" type="line" smooth="yes"/>
      <point x="322.0" y="1786.0"/>
      <point x="322.0" y="1711.0" type="qcurve" smooth="yes"/>
      <point x="322.0" y="1605.0" type="line" smooth="yes"/>
      <point x="322.0" y="1530.0"/>
      <point x="252.0" y="1530.0" type="qcurve" smooth="yes"/>
    </contour>
    <contour>
      <point x="568.0" y="1530.0" type="line" smooth="yes"/>
      <point x="498.0" y="1530.0"/>
      <point x="498.0" y="1605.0" type="qcurve" smooth="yes"/>
      <point x="498.0" y="1711.0" type="line" smooth="yes"/>
      <point x="498.0" y="1786.0"/>
      <point x="568.0" y="1786.0" type="qcurve" smooth="yes"/>
      <point x="700.0" y="1786.0" type="line" smooth="yes"/>
      <point x="770.0" y="1786.0"/>
      <point x="770.0" y="1711.0" type="qcurve" smooth="yes"/>
      <point x="770.0" y="1605.0" type="line" smooth="yes"/>
      <point x="770.0" y="1530.0"/>
      <point x="700.0" y="1530.0" type="qcurve" smooth="yes"/>
    </contour>
  </outline>
</glyph>
<glyph name="one.tab" format="2">
  <advance width="1200"/>
  <outline>
    <contour>
      <point x="176.0" y="1138.0" type="line" smooth="yes"/>
      <point x="150.01199340820312" y="1187.010009765625"/>
      <point x="211.0" y="1214.0" type="qcurve" smooth="yes"/>
      <point x="269.0" y="1240.0"/>
      <point x="395.0" y="1334.0"/>
      <point x="435.0" y="1384.0" type="qcurve" smooth="yes"/>
      <point x="480.0" y="1440.0"/>
      <point x="521.0" y="1440.0" type="qcurve" smooth="yes"/>
      <point x="680.0" y="1440.0" type="line" smooth="yes"/>
      <point x="740.0" y="1440.0"/>
      <point x="740.0" y="1380.0" type="qcurve" smooth="yes"/>
      <point x="740.0" y="248.0" type="line"/>
      <point x="938.0" y="248.0" type="line" smooth="yes"/>
      <point x="1013.0" y="248.0"/>
      <point x="1013.0" y="183.0" type="qcurve" smooth="yes"/>
      <point x="1013.0" y="65.0" type="line" smooth="yes"/>
      <point x="1013.0" y="0.0"/>
      <point x="939.0" y="0.0" type="qcurve" smooth="yes"/>
      <point x="261.0" y="0.0" type="line" smooth="yes"/>
      <point x="187.0" y="0.0"/>
      <point x="187.0" y="65.0" type="qcurve" smooth="yes"/>
      <point x="187.0" y="183.0" type="line" smooth="yes"/>
      <point x="187.0" y="248.0"/>
      <point x="262.0" y="248.0" type="qcurve" smooth="yes"/>
      <point x="460.0" y="248.0" type="line"/>
      <point x="460.0" y="1011.0" type="line" smooth="yes"/>
      <point x="460.0" y="1051.0"/>
      <point x="464.0" y="1091.0" type="qcurve"/>
      <point x="460.0" y="1091.0" type="line"/>
      <point x="429.0" y="1052.0"/>
      <point x="355.0" y="996.0"/>
      <point x="317.0" y="980.0" type="qcurve" smooth="yes"/>
      <point x="270.3210144042969" y="960.1370239257812"/>
      <point x="246.0" y="1006.0" type="qcurve" smooth="yes"/>
    </contour>
  </outline>
</glyph>
